<svg width="21" height="20" viewBox="0 0 21 20" fill="none" xmlns="http://www.w3.org/2000/svg">
<mask id="mask0_139_5506" style="mask-type:alpha" maskUnits="userSpaceOnUse" x="0" y="0" width="21" height="20">
<rect x="0.75" width="20" height="20" fill="#D9D9D9"/>
</mask>
<g mask="url(#mask0_139_5506)">
<path d="M10.75 17.9007C8.94764 17.4092 7.45542 16.3483 6.27333 14.718C5.09111 13.0877 4.5 11.2651 4.5 9.25006V4.45527L10.75 2.11548L17 4.45527V8.42965H15.4535V13.7934L13.2244 11.5642C13.3665 11.327 13.4757 11.0774 13.5521 10.8153C13.6285 10.553 13.6667 10.2813 13.6667 10.0001C13.6667 9.19798 13.381 8.51138 12.8098 7.94027C12.2387 7.36902 11.5521 7.0834 10.75 7.0834C9.94792 7.0834 9.26132 7.36902 8.69021 7.94027C8.11896 8.51138 7.83333 9.19798 7.83333 10.0001C7.83333 10.8021 8.11896 11.4887 8.69021 12.0599C9.26132 12.6311 9.94792 12.9167 10.75 12.9167C11.031 12.9167 11.3058 12.8772 11.5746 12.7982C11.8432 12.719 12.0918 12.6004 12.3204 12.4424L14.9392 15.0609C14.3643 15.7553 13.7438 16.3419 13.0777 16.8205C12.4116 17.2991 11.6357 17.6592 10.75 17.9007ZM10.75 11.6667C11.2083 11.6667 11.6007 11.5035 11.9271 11.1771C12.2535 10.8508 12.4167 10.4584 12.4167 10.0001C12.4167 9.54173 12.2535 9.14937 11.9271 8.82298C11.6007 8.49659 11.2083 8.3334 10.75 8.3334C10.2917 8.3334 9.89931 8.49659 9.57292 8.82298C9.24653 9.14937 9.08333 9.54173 9.08333 10.0001C9.08333 10.4584 9.24653 10.8508 9.57292 11.1771C9.89931 11.5035 10.2917 11.6667 10.75 11.6667ZM17.9452 17.9167C17.768 17.9167 17.6196 17.8568 17.5 17.7369C17.3803 17.6171 17.3204 17.4686 17.3204 17.2915C17.3204 17.1143 17.3803 16.9659 17.5002 16.8463C17.6201 16.7266 17.7686 16.6667 17.9458 16.6667C18.1229 16.6667 18.2713 16.7267 18.391 16.8465C18.5106 16.9664 18.5704 17.1149 18.5704 17.2919C18.5704 17.4692 18.5105 17.6176 18.3906 17.7371C18.2709 17.8569 18.1224 17.9167 17.9452 17.9167ZM17.3204 14.8399V10.2565H18.5704V14.8399H17.3204Z" fill="white"/>
</g>
</svg>
