<svg width="17" height="17" viewBox="0 0 17 17" fill="none" xmlns="http://www.w3.org/2000/svg">
<path d="M11.4998 13.9614C12.1153 13.9614 12.6377 13.748 13.0671 13.3212C13.4966 12.8944 13.7113 12.3706 13.7113 11.7499C13.7113 11.1345 13.4966 10.6121 13.0671 10.1826C12.6377 9.75318 12.1153 9.53846 11.4998 9.53846C10.8791 9.53846 10.3554 9.75318 9.92859 10.1826C9.50178 10.6121 9.28838 11.1345 9.28838 11.7499C9.28838 12.3706 9.50178 12.8944 9.92859 13.3212C10.3554 13.748 10.8791 13.9614 11.4998 13.9614ZM15.7498 16.878L13.4598 14.6008C13.1789 14.7974 12.8722 14.9484 12.5398 15.0537C12.2076 15.1588 11.8609 15.2114 11.4998 15.2114C10.5383 15.2114 9.72102 14.8749 9.04796 14.2018C8.37491 13.5287 8.03838 12.7114 8.03838 11.7499C8.03838 10.7884 8.37491 9.9711 9.04796 9.29804C9.72102 8.62499 10.5383 8.28846 11.4998 8.28846C12.4614 8.28846 13.2787 8.62499 13.9517 9.29804C14.6248 9.9711 14.9613 10.7884 14.9613 11.7499C14.9613 12.1196 14.9053 12.4719 14.7932 12.8068C14.681 13.1418 14.5265 13.4498 14.3298 13.7308L16.62 15.9999L15.7498 16.878ZM2.17296 15.9166C1.75199 15.9166 1.39567 15.7708 1.104 15.4791C0.812337 15.1874 0.666504 14.8311 0.666504 14.4101V1.58971C0.666504 1.16874 0.812337 0.812419 1.104 0.520752C1.39567 0.229085 1.75199 0.083252 2.17296 0.083252H8.7915L13.1665 4.45825V6.75784C12.8972 6.66172 12.6237 6.58832 12.3459 6.53763C12.0681 6.48679 11.7861 6.46138 11.4998 6.46138C10.7114 6.46138 9.979 6.61659 9.30275 6.927C8.6265 7.23742 8.04796 7.6645 7.56713 8.20825H3.7915V9.45825H6.74817C6.58373 9.78089 6.45824 10.1171 6.37171 10.467C6.28518 10.817 6.23602 11.1752 6.22421 11.5416H3.7915V12.7916H6.31713C6.43782 13.4219 6.66755 14.0052 7.0063 14.5416C7.34491 15.0778 7.77595 15.5362 8.29942 15.9166H2.17296ZM8.1665 5.08325H11.9165L8.1665 1.33325V5.08325Z" fill="white"/>
</svg>
