<svg width="40" height="41" viewBox="0 0 40 41" fill="none" xmlns="http://www.w3.org/2000/svg">
<path d="M20 40.5C31.0457 40.5 40 31.5457 40 20.5C40 9.4543 31.0457 0.5 20 0.5C8.9543 0.5 0 9.4543 0 20.5C0 31.5457 8.9543 40.5 20 40.5Z" fill="#F49B33"/>
<path d="M27.3671 16.4152C27.1716 13.9071 25.0201 13.0289 22.2972 12.7412L22.3585 9.26663L20.2454 9.23212L20.184 12.6147C19.6279 12.6032 19.0603 12.607 18.4927 12.607L18.5541 9.20144L16.441 9.16309L16.3796 12.6377C15.9232 12.6377 15.4707 12.6415 15.0335 12.63V12.6185L12.115 12.5686L12.0766 14.8275C12.0766 14.8275 13.6414 14.8237 13.6145 14.8544C14.4697 14.8697 14.742 15.3721 14.8149 15.8016L14.7459 19.7594C14.8034 19.7594 14.8801 19.7633 14.9683 19.7786L14.7459 19.7748L14.65 25.3203C14.6078 25.5888 14.4429 26.0145 13.8408 26.0068C13.8676 26.0298 12.3029 25.98 12.3029 25.98L11.8389 28.4958L14.5925 28.5456C15.1025 28.5571 15.6088 28.5725 16.1035 28.584L16.0421 32.0969L18.1553 32.1314L18.2166 28.6569C18.7957 28.676 19.3595 28.6914 19.9079 28.7029L19.8465 32.1621L21.9597 32.1966L22.021 28.6914C25.58 28.5495 28.0843 27.6981 28.4525 24.3616C28.7478 21.677 27.5052 20.4536 25.4956 19.9359C26.7305 19.3376 27.5167 18.2523 27.3671 16.4152ZM24.2761 23.8783C24.2339 26.5054 19.7392 26.1257 18.3048 26.1027L18.3892 21.4469C19.8235 21.4699 24.3259 21.1362 24.2761 23.8783ZM23.4093 17.2896C23.3672 19.6789 19.6203 19.3337 18.4276 19.3146L18.5004 15.0921C19.6931 15.1113 23.4515 14.7968 23.4093 17.2896Z" fill="white"/>
</svg>
