<svg width="131" height="36" viewBox="0 0 131 36" fill="none" xmlns="http://www.w3.org/2000/svg">
<g clip-path="url(#clip0_462_1516)">
<mask id="mask0_462_1516" style="mask-type:luminance" maskUnits="userSpaceOnUse" x="0" y="0" width="36" height="36">
<path d="M27 0H9C4.02944 0 0 4.02944 0 9V27C0 31.9706 4.02944 36 9 36H27C31.9706 36 36 31.9706 36 27V9C36 4.02944 31.9706 0 27 0Z" fill="white"/>
</mask>
<g mask="url(#mask0_462_1516)">
<path d="M27 0H9C4.02944 0 0 4.02944 0 9V27C0 31.9706 4.02944 36 9 36H27C31.9706 36 36 31.9706 36 27V9C36 4.02944 31.9706 0 27 0Z" fill="url(#paint0_linear_462_1516)"/>
<path d="M0 18C0 8.05888 8.05888 0 18 0C27.9411 0 36 8.05888 36 18C36 27.9411 27.9411 36 18 36C8.05888 36 0 27.9411 0 18Z" fill="url(#paint1_linear_462_1516)"/>
</g>
<path d="M9.81812 14.8517L25.3636 5.72729L24.9517 12.2213L11.7124 19.992L9.81812 14.8517Z" fill="#004104"/>
<path opacity="0.5" d="M11.7123 19.9917L22.6454 13.5745L22.2335 20.0685L13.6066 25.132L11.7123 19.9917Z" fill="#004104"/>
<path opacity="0.25" d="M13.6052 25.1327L19.9259 21.4227L19.514 27.9167L15.4995 30.2731L13.6052 25.1327Z" fill="#004104"/>
</g>
<rect x="0.818182" y="0.818182" width="34.3636" height="34.3636" rx="17.1818" stroke="url(#paint2_linear_462_1516)" stroke-width="1.63636"/>
<path d="M52.136 26H49.716V10.204H59.308V12.316H52.136V17.464H58.252V19.576H52.136V26ZM63.4894 20.038V26H61.2674V14.34H63.3354V16.804C64.1494 15.198 65.9094 14.186 67.8234 14.186V16.496C65.3154 16.364 63.4894 17.464 63.4894 20.038ZM76.5118 26V24.196C75.7858 25.494 74.4878 26.22 72.7718 26.22C70.3518 26.22 68.7678 24.834 68.7678 22.7C68.7678 20.412 70.5938 19.224 74.0698 19.224C74.7518 19.224 75.3018 19.246 76.2478 19.356V18.498C76.2478 16.826 75.3458 15.88 73.8058 15.88C72.1778 15.88 71.1878 16.848 71.1218 18.476H69.0978C69.2078 15.858 71.0778 14.12 73.8058 14.12C76.6878 14.12 78.3598 15.748 78.3598 18.52V26H76.5118ZM70.8798 22.634C70.8798 23.844 71.7818 24.636 73.2118 24.636C75.0818 24.636 76.2478 23.47 76.2478 21.688V20.742C75.3898 20.632 74.7738 20.61 74.2018 20.61C71.9798 20.61 70.8798 21.27 70.8798 22.634ZM80.3627 20.17C80.3627 16.628 82.3867 14.12 85.5327 14.12C87.0947 14.12 88.4587 14.912 89.2727 16.342V10.204H91.4947V26H89.4267V23.91C88.5907 25.384 87.1827 26.22 85.5327 26.22C82.3867 26.22 80.3627 23.668 80.3627 20.17ZM82.6727 20.17C82.6727 22.766 84.0367 24.24 85.9727 24.24C87.8647 24.24 89.2727 22.7 89.2727 20.126C89.2727 17.508 87.8207 16.078 85.9727 16.078C84.0367 16.078 82.6727 17.53 82.6727 20.17ZM97.1575 11.634C97.1575 12.47 96.4975 13.108 95.5515 13.108C94.6055 13.108 93.9235 12.47 93.9235 11.634C93.9235 10.776 94.6055 10.16 95.5515 10.16C96.4975 10.16 97.1575 10.776 97.1575 11.634ZM96.6735 26H94.4515V14.34H96.6735V26ZM106.908 21.204V14.34H109.13V26H107.062V24.152C106.446 25.362 105.082 26.22 103.498 26.22C101.144 26.22 99.5161 24.834 99.5161 21.842V14.34H101.738V21.402C101.738 23.426 102.75 24.262 104.202 24.262C105.698 24.262 106.908 23.03 106.908 21.204ZM114.306 26H112.084V14.34H114.152V16.276C114.944 14.934 116.198 14.12 117.804 14.12C119.52 14.12 120.818 15 121.346 16.54C122.16 15.044 123.502 14.12 125.284 14.12C127.682 14.12 129.222 15.682 129.222 18.454V26H127V19.158C127 17.222 126.142 16.078 124.514 16.078C122.996 16.078 121.764 17.354 121.764 19.312V26H119.542V19.158C119.542 17.222 118.684 16.078 117.056 16.078C115.516 16.078 114.306 17.354 114.306 19.312V26Z" fill="white"/>
<defs>
<linearGradient id="paint0_linear_462_1516" x1="18" y1="0" x2="18" y2="36" gradientUnits="userSpaceOnUse">
<stop stop-color="#99E39E"/>
<stop offset="1" stop-color="#4BB255"/>
</linearGradient>
<linearGradient id="paint1_linear_462_1516" x1="18" y1="7.37607e-07" x2="19.5" y2="36" gradientUnits="userSpaceOnUse">
<stop stop-color="white" stop-opacity="0"/>
<stop offset="1" stop-color="white" stop-opacity="0.12"/>
</linearGradient>
<linearGradient id="paint2_linear_462_1516" x1="18" y1="0" x2="18" y2="36" gradientUnits="userSpaceOnUse">
<stop stop-color="white" stop-opacity="0.25"/>
<stop offset="1" stop-color="white" stop-opacity="0"/>
</linearGradient>
<clipPath id="clip0_462_1516">
<rect width="36" height="36" rx="18" fill="white"/>
</clipPath>
</defs>
</svg>
