<svg width="137" height="42" viewBox="0 0 137 42" fill="none" xmlns="http://www.w3.org/2000/svg">
<g clip-path="url(#clip0_4197_18272)">
<mask id="mask0_4197_18272" style="mask-type:luminance" maskUnits="userSpaceOnUse" x="0" y="0" width="43" height="42">
<path d="M31.5026 0H10.5026C4.70363 0 0.00262451 4.70101 0.00262451 10.5V31.5C0.00262451 37.299 4.70363 42 10.5026 42H31.5026C37.3016 42 42.0026 37.299 42.0026 31.5V10.5C42.0026 4.70101 37.3016 0 31.5026 0Z" fill="white"/>
</mask>
<g mask="url(#mask0_4197_18272)">
<path d="M31.5026 0H10.5026C4.70363 0 0.00262451 4.70101 0.00262451 10.5V31.5C0.00262451 37.299 4.70363 42 10.5026 42H31.5026C37.3016 42 42.0026 37.299 42.0026 31.5V10.5C42.0026 4.70101 37.3016 0 31.5026 0Z" fill="url(#paint0_linear_4197_18272)"/>
<path d="M0.00262451 21C0.00262451 9.40202 9.40464 0 21.0026 0C32.6006 0 42.0026 9.40202 42.0026 21C42.0026 32.598 32.6006 42 21.0026 42C9.40464 42 0.00262451 32.598 0.00262451 21Z" fill="url(#paint1_linear_4197_18272)"/>
</g>
<path opacity="0.25" d="M29.7953 12.0427L18.9301 30.0652L26.346 30.0652L36.3244 12.0427L29.7953 12.0427Z" fill="#004104"/>
<path d="M13.3932 12.0889L27.4426 12.0889L24.442 18.0263L10.6149 18.0103L13.3932 12.0889Z" fill="#004104"/>
<path d="M27.615 12.1062L35.8414 30.1506L29.1819 30.1506L21.217 12.1062L27.615 12.1062Z" fill="#004104"/>
<path opacity="0.25" d="M8.14008 23.9893L21.421 23.9893L17.859 30.0645L5.36182 30.0645L8.14008 23.9893Z" fill="#004104"/>
<path opacity="0.5" d="M8.42402 18.0078L18.9683 18.0028L15.6598 23.9969L5.64576 23.9858L8.42402 18.0078Z" fill="#004104"/>
</g>
<rect x="0.954545" y="0.954545" width="40.0909" height="40.0909" rx="20.0455" stroke="url(#paint2_linear_4197_18272)" stroke-width="1.90909"/>
<g filter="url(#filter0_di_4197_18272)">
<path d="M57.384 19.5H55.404V6.576H63.252V8.304H57.384V12.516H62.388V14.244H57.384V19.5ZM66.4931 14.622V19.5H64.6751V9.96H66.3671V11.976C67.0331 10.662 68.4731 9.834 70.0391 9.834V11.724C67.9871 11.616 66.4931 12.516 66.4931 14.622ZM76.9679 19.5V18.024C76.3739 19.086 75.3119 19.68 73.9079 19.68C71.9279 19.68 70.6319 18.546 70.6319 16.8C70.6319 14.928 72.1259 13.956 74.9699 13.956C75.5279 13.956 75.9779 13.974 76.7519 14.064V13.362C76.7519 11.994 76.0139 11.22 74.7539 11.22C73.4219 11.22 72.6119 12.012 72.5579 13.344H70.9019C70.9919 11.202 72.5219 9.78 74.7539 9.78C77.1119 9.78 78.4799 11.112 78.4799 13.38V19.5H76.9679ZM72.3599 16.746C72.3599 17.736 73.0979 18.384 74.2679 18.384C75.7979 18.384 76.7519 17.43 76.7519 15.972V15.198C76.0499 15.108 75.5459 15.09 75.0779 15.09C73.2599 15.09 72.3599 15.63 72.3599 16.746ZM79.9386 14.73C79.9386 11.832 81.5946 9.78 84.1686 9.78C85.4466 9.78 86.5626 10.428 87.2286 11.598V6.576H89.0466V19.5H87.3546V17.79C86.6706 18.996 85.5186 19.68 84.1686 19.68C81.5946 19.68 79.9386 17.592 79.9386 14.73ZM81.8286 14.73C81.8286 16.854 82.9446 18.06 84.5286 18.06C86.0766 18.06 87.2286 16.8 87.2286 14.694C87.2286 12.552 86.0406 11.382 84.5286 11.382C82.9446 11.382 81.8286 12.57 81.8286 14.73ZM93.4997 7.746C93.4997 8.43 92.9597 8.952 92.1857 8.952C91.4117 8.952 90.8537 8.43 90.8537 7.746C90.8537 7.044 91.4117 6.54 92.1857 6.54C92.9597 6.54 93.4997 7.044 93.4997 7.746ZM93.1037 19.5H91.2857V9.96H93.1037V19.5Z" fill="url(#paint3_linear_4197_18272)"/>
<path d="M101.298 15.576V9.96H103.116V19.5H101.424V17.988C100.92 18.978 99.8035 19.68 98.5075 19.68C96.5815 19.68 95.2495 18.546 95.2495 16.098V9.96H97.0675V15.738C97.0675 17.394 97.8955 18.078 99.0835 18.078C100.308 18.078 101.298 17.07 101.298 15.576ZM107.17 19.5H105.352V9.96H107.044V11.544C107.692 10.446 108.718 9.78 110.032 9.78C111.436 9.78 112.498 10.5 112.93 11.76C113.596 10.536 114.694 9.78 116.152 9.78C118.114 9.78 119.374 11.058 119.374 13.326V19.5H117.556V13.902C117.556 12.318 116.854 11.382 115.522 11.382C114.28 11.382 113.272 12.426 113.272 14.028V19.5H111.454V13.902C111.454 12.318 110.752 11.382 109.42 11.382C108.16 11.382 107.17 12.426 107.17 14.028V19.5Z" fill="url(#paint4_linear_4197_18272)"/>
<path d="M101.298 15.576V9.96H103.116V19.5H101.424V17.988C100.92 18.978 99.8035 19.68 98.5075 19.68C96.5815 19.68 95.2495 18.546 95.2495 16.098V9.96H97.0675V15.738C97.0675 17.394 97.8955 18.078 99.0835 18.078C100.308 18.078 101.298 17.07 101.298 15.576ZM107.17 19.5H105.352V9.96H107.044V11.544C107.692 10.446 108.718 9.78 110.032 9.78C111.436 9.78 112.498 10.5 112.93 11.76C113.596 10.536 114.694 9.78 116.152 9.78C118.114 9.78 119.374 11.058 119.374 13.326V19.5H117.556V13.902C117.556 12.318 116.854 11.382 115.522 11.382C114.28 11.382 113.272 12.426 113.272 14.028V19.5H111.454V13.902C111.454 12.318 110.752 11.382 109.42 11.382C108.16 11.382 107.17 12.426 107.17 14.028V19.5Z" fill="#99E39E"/>
</g>
<path d="M59.292 36.662C56.412 36.662 54.486 34.664 54.486 31.658C54.486 28.796 56.484 26.708 59.256 26.708C62.298 26.708 64.314 29.174 63.864 32.306H57.042C57.204 33.872 57.96 34.736 59.238 34.736C60.336 34.736 61.074 34.196 61.362 33.242H63.846C63.306 35.42 61.632 36.662 59.292 36.662ZM59.202 28.544C58.032 28.544 57.294 29.3 57.078 30.722H61.218C61.146 29.39 60.39 28.544 59.202 28.544ZM66.6672 36.5H63.8772L67.1172 31.604L64.0932 26.888H66.9732L68.9352 30.2L70.9152 26.888H73.5432L70.5552 31.694L73.7772 36.5H70.9332L68.7732 33.044L66.6672 36.5ZM80.7836 34.07V36.248C80.1716 36.554 79.5956 36.68 78.8576 36.68C76.8776 36.68 75.6356 35.546 75.6356 33.386V29.03H73.6916V26.888H75.6356V24.044H78.1196V26.888H80.8736V29.03H78.1196V32.81C78.1196 33.926 78.6236 34.376 79.5236 34.376C79.9916 34.376 80.4236 34.268 80.7836 34.07ZM86.0784 36.662C83.1984 36.662 81.2724 34.664 81.2724 31.658C81.2724 28.796 83.2704 26.708 86.0424 26.708C89.0844 26.708 91.1004 29.174 90.6504 32.306H83.8284C83.9904 33.872 84.7464 34.736 86.0244 34.736C87.1224 34.736 87.8604 34.196 88.1484 33.242H90.6324C90.0924 35.42 88.4184 36.662 86.0784 36.662ZM85.9884 28.544C84.8184 28.544 84.0804 29.3 83.8644 30.722H88.0044C87.9324 29.39 87.1764 28.544 85.9884 28.544ZM94.5402 31.262V36.5H92.0382V26.888H94.3422V28.256C95.0442 27.302 96.0342 26.708 97.2942 26.708C99.2202 26.708 100.552 27.968 100.552 30.29V36.5H98.0682V31.136C98.0682 29.714 97.5102 28.922 96.3762 28.922C95.3862 28.922 94.5402 29.714 94.5402 31.262ZM110.538 33.422C110.538 35.438 109.008 36.68 106.272 36.68C103.536 36.68 102.006 35.366 101.808 33.224H104.202C104.22 34.214 105.066 34.844 106.308 34.844C107.28 34.844 108.018 34.538 108.018 33.854C108.018 33.242 107.622 32.99 106.704 32.81L104.976 32.486C103.248 32.18 102.204 31.226 102.204 29.732C102.204 27.95 103.734 26.708 106.128 26.708C108.54 26.708 110.196 27.986 110.376 30.056H107.982C107.892 29.12 107.19 28.544 106.128 28.544C105.21 28.544 104.598 28.886 104.598 29.498C104.598 30.074 104.994 30.308 105.858 30.47L107.712 30.812C109.584 31.172 110.538 32.036 110.538 33.422ZM114.856 24.656C114.856 25.502 114.172 26.132 113.182 26.132C112.21 26.132 111.526 25.502 111.526 24.656C111.526 23.774 112.21 23.144 113.182 23.144C114.172 23.144 114.856 23.774 114.856 24.656ZM114.46 36.5H111.958V26.888H114.46V36.5ZM120.647 36.68C117.857 36.68 115.769 34.484 115.769 31.694C115.769 28.886 117.857 26.708 120.647 26.708C123.437 26.708 125.525 28.886 125.525 31.694C125.525 34.484 123.437 36.68 120.647 36.68ZM120.647 34.466C121.889 34.466 122.951 33.476 122.951 31.694C122.951 29.912 121.889 28.94 120.647 28.94C119.405 28.94 118.343 29.912 118.343 31.694C118.343 33.476 119.405 34.466 120.647 34.466ZM129.335 31.262V36.5H126.833V26.888H129.137V28.256C129.839 27.302 130.829 26.708 132.089 26.708C134.015 26.708 135.347 27.968 135.347 30.29V36.5H132.863V31.136C132.863 29.714 132.305 28.922 131.171 28.922C130.181 28.922 129.335 29.714 129.335 31.262Z" fill="white"/>
<defs>
<filter id="filter0_di_4197_18272" x="52.404" y="5.04004" width="69.9703" height="19.1399" filterUnits="userSpaceOnUse" color-interpolation-filters="sRGB">
<feFlood flood-opacity="0" result="BackgroundImageFix"/>
<feColorMatrix in="SourceAlpha" type="matrix" values="0 0 0 0 0 0 0 0 0 0 0 0 0 0 0 0 0 0 127 0" result="hardAlpha"/>
<feOffset dy="1.5"/>
<feGaussianBlur stdDeviation="1.5"/>
<feComposite in2="hardAlpha" operator="out"/>
<feColorMatrix type="matrix" values="0 0 0 0 0.1374 0 0 0 0 0.42396 0 0 0 0 0.156762 0 0 0 0.6 0"/>
<feBlend mode="normal" in2="BackgroundImageFix" result="effect1_dropShadow_4197_18272"/>
<feBlend mode="normal" in="SourceGraphic" in2="effect1_dropShadow_4197_18272" result="shape"/>
<feColorMatrix in="SourceAlpha" type="matrix" values="0 0 0 0 0 0 0 0 0 0 0 0 0 0 0 0 0 0 127 0" result="hardAlpha"/>
<feOffset dy="-1"/>
<feGaussianBlur stdDeviation="1.25"/>
<feComposite in2="hardAlpha" operator="arithmetic" k2="-1" k3="1"/>
<feColorMatrix type="matrix" values="0 0 0 0 1 0 0 0 0 1 0 0 0 0 1 0 0 0 1 0"/>
<feBlend mode="normal" in2="shape" result="effect2_innerShadow_4197_18272"/>
</filter>
<linearGradient id="paint0_linear_4197_18272" x1="21.0026" y1="0" x2="21.0026" y2="42" gradientUnits="userSpaceOnUse">
<stop stop-color="#99E39E"/>
<stop offset="1" stop-color="#4BB255"/>
</linearGradient>
<linearGradient id="paint1_linear_4197_18272" x1="21.0026" y1="8.60542e-07" x2="22.7526" y2="42" gradientUnits="userSpaceOnUse">
<stop stop-color="white" stop-opacity="0"/>
<stop offset="1" stop-color="white" stop-opacity="0.12"/>
</linearGradient>
<linearGradient id="paint2_linear_4197_18272" x1="21" y1="0" x2="21" y2="42" gradientUnits="userSpaceOnUse">
<stop stop-color="white" stop-opacity="0.25"/>
<stop offset="1" stop-color="white" stop-opacity="0"/>
</linearGradient>
<linearGradient id="paint3_linear_4197_18272" x1="87.5" y1="10.2083" x2="87.5" y2="19.8333" gradientUnits="userSpaceOnUse">
<stop stop-color="white"/>
<stop offset="1" stop-color="#BDFBC1"/>
</linearGradient>
<linearGradient id="paint4_linear_4197_18272" x1="87.5" y1="10.2083" x2="87.5" y2="19.8333" gradientUnits="userSpaceOnUse">
<stop stop-color="white"/>
<stop offset="1" stop-color="#BDFBC1"/>
</linearGradient>
<clipPath id="clip0_4197_18272">
<rect width="42" height="42" rx="21" fill="white"/>
</clipPath>
</defs>
</svg>
