<svg width="20" height="20" viewBox="0 0 20 20" fill="none" xmlns="http://www.w3.org/2000/svg">
<mask id="mask0_735_8363" style="mask-type:alpha" maskUnits="userSpaceOnUse" x="0" y="0" width="20" height="20">
<rect width="20" height="20" fill="#D9D9D9"/>
</mask>
<g mask="url(#mask0_735_8363)">
<path d="M4.16699 15.0352C4.91699 14.2991 5.78852 13.7192 6.78158 13.2956C7.77463 12.872 8.84755 12.6602 10.0003 12.6602C11.1531 12.6602 12.226 12.872 13.2191 13.2956C14.2121 13.7192 15.0837 14.2991 15.8337 15.0352V4.42313C15.8337 4.35896 15.8069 4.30021 15.7535 4.24688C15.7001 4.19341 15.6414 4.16667 15.5772 4.16667H4.42345C4.35928 4.16667 4.30053 4.19341 4.2472 4.24688C4.19373 4.30021 4.16699 4.35896 4.16699 4.42313V15.0352ZM10.0003 10.8654C10.7524 10.8654 11.3919 10.6021 11.9187 10.0754C12.4453 9.54862 12.7087 8.90917 12.7087 8.15709C12.7087 7.405 12.4453 6.76556 11.9187 6.23876C11.3919 5.71209 10.7524 5.44875 10.0003 5.44875C9.24824 5.44875 8.6088 5.71209 8.08199 6.23876C7.55533 6.76556 7.29199 7.405 7.29199 8.15709C7.29199 8.90917 7.55533 9.54862 8.08199 10.0754C8.6088 10.6021 9.24824 10.8654 10.0003 10.8654ZM4.42345 17.0833C4.00248 17.0833 3.64616 16.9375 3.35449 16.6458C3.06283 16.3542 2.91699 15.9979 2.91699 15.5769V4.42313C2.91699 4.00216 3.06283 3.64584 3.35449 3.35417C3.64616 3.06251 4.00248 2.91667 4.42345 2.91667H15.5772C15.9982 2.91667 16.3545 3.06251 16.6462 3.35417C16.9378 3.64584 17.0837 4.00216 17.0837 4.42313V15.5769C17.0837 15.9979 16.9378 16.3542 16.6462 16.6458C16.3545 16.9375 15.9982 17.0833 15.5772 17.0833H4.42345ZM5.14783 15.8333H14.8528C14.1456 15.1849 13.3746 14.7022 12.5397 14.3854C11.7047 14.0686 10.8582 13.9102 10.0003 13.9102C9.1531 13.9102 8.30505 14.0686 7.45616 14.3854C6.60741 14.7022 5.83796 15.1849 5.14783 15.8333ZM10.0003 9.61542C9.59963 9.61542 9.25644 9.47251 8.97074 9.18667C8.68491 8.90098 8.54199 8.55778 8.54199 8.15709C8.54199 7.75639 8.68491 7.4132 8.97074 7.12751C9.25644 6.84167 9.59963 6.69875 10.0003 6.69875C10.401 6.69875 10.7442 6.84167 11.0299 7.12751C11.3157 7.4132 11.4587 7.75639 11.4587 8.15709C11.4587 8.55778 11.3157 8.90098 11.0299 9.18667C10.7442 9.47251 10.401 9.61542 10.0003 9.61542Z" fill="#9BE4A0"/>
</g>
</svg>
