<svg width="20" height="20" viewBox="0 0 20 20" fill="none" xmlns="http://www.w3.org/2000/svg">
<mask id="mask0_539_17733" style="mask-type:alpha" maskUnits="userSpaceOnUse" x="0" y="0" width="20" height="20">
<rect width="20" height="20" fill="#D9D9D9"/>
</mask>
<g mask="url(#mask0_539_17733)">
<path d="M13.7501 15.9615C14.3655 15.9615 14.8879 15.7481 15.3174 15.3213C15.7468 14.8945 15.9615 14.3707 15.9615 13.75C15.9615 13.1346 15.7468 12.6122 15.3174 12.1827C14.8879 11.7533 14.3655 11.5386 13.7501 11.5386C13.1294 11.5386 12.6056 11.7533 12.1788 12.1827C11.752 12.6122 11.5386 13.1346 11.5386 13.75C11.5386 14.3707 11.752 14.8945 12.1788 15.3213C12.6056 15.7481 13.1294 15.9615 13.7501 15.9615ZM18.0001 18.8782L15.7101 16.6009C15.4291 16.7975 15.1224 16.9485 14.7901 17.0538C14.4579 17.1589 14.1112 17.2115 13.7501 17.2115C12.7886 17.2115 11.9713 16.875 11.2982 16.2019C10.6252 15.5289 10.2886 14.7116 10.2886 13.75C10.2886 12.7885 10.6252 11.9712 11.2982 11.2982C11.9713 10.6251 12.7886 10.2886 13.7501 10.2886C14.7116 10.2886 15.5289 10.6251 16.202 11.2982C16.875 11.9712 17.2115 12.7885 17.2115 13.75C17.2115 14.1198 17.1555 14.4721 17.0434 14.8069C16.9312 15.1419 16.7768 15.4499 16.5801 15.7309L18.8703 18L18.0001 18.8782ZM4.42321 17.9167C4.00223 17.9167 3.64591 17.7709 3.35425 17.4792C3.06258 17.1875 2.91675 16.8312 2.91675 16.4102V3.58983C2.91675 3.16886 3.06258 2.81254 3.35425 2.52087C3.64591 2.22921 4.00223 2.08337 4.42321 2.08337H11.0417L15.4167 6.45837V8.75796C15.1474 8.66185 14.8739 8.58844 14.5961 8.53775C14.3183 8.48692 14.0363 8.4615 13.7501 8.4615C12.9616 8.4615 12.2292 8.61671 11.553 8.92712C10.8767 9.23754 10.2982 9.66462 9.81737 10.2084H6.04175V11.4584H8.99842C8.83397 11.781 8.70848 12.1173 8.62196 12.4671C8.53543 12.8171 8.48626 13.1753 8.47446 13.5417H6.04175V14.7917H8.56737C8.68807 15.422 8.91779 16.0053 9.25654 16.5417C9.59515 17.078 10.0262 17.5363 10.5497 17.9167H4.42321ZM10.4167 7.08337H14.1667L10.4167 3.33337V7.08337Z" fill="#25262B"/>
</g>
</svg>
