<svg width="20" height="20" viewBox="0 0 20 20" fill="none" xmlns="http://www.w3.org/2000/svg">
<mask id="mask0_539_16650" style="mask-type:alpha" maskUnits="userSpaceOnUse" x="0" y="0" width="20" height="20">
<rect width="20" height="20" fill="#D9D9D9"/>
</mask>
<g mask="url(#mask0_539_16650)">
<path d="M4.16669 3.33337V8.48233V8.4615V16.6667V3.33337ZM6.04169 11.4584H8.99835C9.1021 11.2191 9.22287 10.9966 9.36065 10.7909C9.49842 10.5852 9.65335 10.391 9.82544 10.2084H6.04169V11.4584ZM6.04169 14.7917H8.56731C8.51926 14.5834 8.48745 14.375 8.4719 14.1667C8.45648 13.9584 8.45731 13.75 8.4744 13.5417H6.04169V14.7917ZM4.42315 17.9167C4.00217 17.9167 3.64585 17.7709 3.35419 17.4792C3.06252 17.1875 2.91669 16.8312 2.91669 16.4103V3.58983C2.91669 3.16886 3.06252 2.81254 3.35419 2.52087C3.64585 2.22921 4.00217 2.08337 4.42315 2.08337H11.0417L15.4167 6.45837V8.75796C15.2168 8.67893 15.0127 8.61886 14.8044 8.57775C14.5961 8.53664 14.3835 8.50483 14.1667 8.48233V7.08337H10.4167V3.33337H4.42315C4.35898 3.33337 4.30023 3.36011 4.2469 3.41358C4.19342 3.46692 4.16669 3.52567 4.16669 3.58983V16.4103C4.16669 16.4744 4.19342 16.5332 4.2469 16.5865C4.30023 16.64 4.35898 16.6667 4.42315 16.6667H9.33981C9.50328 16.9146 9.68648 17.1435 9.8894 17.3534C10.0925 17.5634 10.3125 17.7512 10.5496 17.9167H4.42315ZM13.75 15.9615C14.3707 15.9615 14.8945 15.7481 15.3213 15.3213C15.7481 14.8945 15.9615 14.3707 15.9615 13.75C15.9615 13.1293 15.7481 12.6056 15.3213 12.1788C14.8945 11.752 14.3707 11.5386 13.75 11.5386C13.1293 11.5386 12.6056 11.752 12.1788 12.1788C11.752 12.6056 11.5386 13.1293 11.5386 13.75C11.5386 14.3707 11.752 14.8945 12.1788 15.3213C12.6056 15.7481 13.1293 15.9615 13.75 15.9615ZM18 18.8703L15.7179 16.5882C15.437 16.7933 15.129 16.9485 14.7942 17.0538C14.4592 17.1589 14.1111 17.2115 13.75 17.2115C12.7885 17.2115 11.9712 16.875 11.2981 16.2019C10.6251 15.5289 10.2886 14.7116 10.2886 13.75C10.2886 12.7885 10.6251 11.9712 11.2981 11.2982C11.9712 10.6251 12.7885 10.2886 13.75 10.2886C14.7115 10.2886 15.5288 10.6251 16.2019 11.2982C16.875 11.9712 17.2115 12.7885 17.2115 13.75C17.2115 14.1112 17.1589 14.4592 17.0538 14.7942C16.9485 15.1291 16.7933 15.437 16.5881 15.718L18.8702 18L18 18.8703Z" fill="white"/>
</g>
</svg>
