<svg width="20" height="20" viewBox="0 0 20 20" fill="none" xmlns="http://www.w3.org/2000/svg">
<path d="M10 20C15.5228 20 20 15.5228 20 10C20 4.47715 15.5228 0 10 0C4.47715 0 0 4.47715 0 10C0 15.5228 4.47715 20 10 20Z" fill="white" fill-opacity="0.15"/>
<path d="M13.6841 7.95774C13.5863 6.70367 12.5105 6.26455 11.1491 6.12074L11.1797 4.38344L10.1232 4.36618L10.0925 6.05746C9.81446 6.0517 9.53066 6.05362 9.24686 6.05362L9.27754 4.35084L8.22098 4.33167L8.19029 6.06896C7.96211 6.06896 7.73584 6.07088 7.51724 6.06513V6.05937L6.05799 6.03445L6.03881 7.16388C6.03881 7.16388 6.82117 7.16196 6.80775 7.1773C7.23536 7.18497 7.3715 7.43617 7.40794 7.65094L7.37342 9.62984C7.40218 9.62984 7.44053 9.63176 7.48464 9.63943L7.37342 9.63751L7.32548 12.4103C7.30439 12.5445 7.22194 12.7574 6.92088 12.7535C6.9343 12.765 6.15194 12.7401 6.15194 12.7401L5.91992 13.998L7.29672 14.0229C7.55175 14.0287 7.80487 14.0364 8.05223 14.0421L8.02155 15.7986L9.07812 15.8158L9.1088 14.0786C9.39835 14.0881 9.68023 14.0958 9.95444 14.1016L9.92376 15.8312L10.9803 15.8484L11.011 14.0958C12.7905 14.0249 14.0426 13.5992 14.2267 11.9309C14.3744 10.5886 13.7531 9.97692 12.7483 9.71805C13.3657 9.41891 13.7588 8.87625 13.6841 7.95774ZM12.1385 11.6893C12.1174 13.0028 9.87006 12.813 9.1529 12.8015L9.19509 10.4736C9.91225 10.4851 12.1634 10.3182 12.1385 11.6893ZM11.7052 8.39494C11.6841 9.58958 9.81062 9.417 9.21426 9.40741L9.2507 7.29619C9.84705 7.30578 11.7262 7.14854 11.7052 8.39494Z" fill="white"/>
</svg>
