<svg width="20" height="20" viewBox="0 0 20 20" fill="none" xmlns="http://www.w3.org/2000/svg">
<mask id="mask0_539_16816" style="mask-type:alpha" maskUnits="userSpaceOnUse" x="0" y="0" width="20" height="20">
<rect width="20" height="20" fill="#D9D9D9"/>
</mask>
<g mask="url(#mask0_539_16816)">
<path d="M15.7739 17.0833L11.1795 12.4887L12.4966 11.1714L17.0912 15.766L15.7739 17.0833ZM4.2339 17.0833L2.91661 15.766L8.69077 9.99205L6.74515 8.05435L6.22598 8.57372L5.29973 7.63935V9.24351L4.78036 9.76268L2.42786 7.41018L2.94702 6.89101H4.55119L3.62973 5.97747L6.01119 3.59622C6.24619 3.36108 6.5007 3.18907 6.77473 3.08018C7.04876 2.97115 7.33376 2.91664 7.62973 2.91664C7.9257 2.91664 8.2107 2.97115 8.48473 3.08018C8.75876 3.18907 9.01327 3.36108 9.24827 3.59622L7.60411 5.24039L8.58161 6.21789L8.06244 6.73706L10.0079 8.67476L12.0112 6.67143C11.9183 6.50268 11.8504 6.32831 11.8076 6.14831C11.7649 5.96817 11.7435 5.77879 11.7435 5.58018C11.7435 4.83018 12.002 4.19664 12.5191 3.67956C13.0362 3.16247 13.6697 2.90393 14.4197 2.90393C14.5961 2.90393 14.7647 2.91942 14.9254 2.95039C15.0862 2.98136 15.2478 3.03317 15.4101 3.10581L13.516 4.99997L14.9999 6.48393L16.8941 4.58976C16.9754 4.75212 17.0293 4.91372 17.056 5.07456C17.0827 5.23525 17.096 5.40379 17.096 5.58018C17.096 6.33018 16.8374 6.96372 16.3204 7.48081C15.8033 7.99789 15.1697 8.25643 14.4197 8.25643C14.2211 8.25643 14.0317 8.23719 13.8516 8.19872C13.6716 8.16025 13.4972 8.09025 13.3285 7.98872L4.2339 17.0833Z" fill="#99E39E"/>
</g>
</svg>
