<svg width="20" height="20" viewBox="0 0 20 20" fill="none" xmlns="http://www.w3.org/2000/svg">
<mask id="mask0_735_7608" style="mask-type:alpha" maskUnits="userSpaceOnUse" x="0" y="0" width="20" height="20">
<rect width="20" height="20" fill="#D9D9D9"/>
</mask>
<g mask="url(#mask0_735_7608)">
<path d="M7.54813 14.5833C7.12715 14.5833 6.77083 14.4375 6.47917 14.1458C6.1875 13.8542 6.04167 13.4979 6.04167 13.0769V3.5898C6.04167 3.16883 6.1875 2.81251 6.47917 2.52084C6.77083 2.22918 7.12715 2.08334 7.54813 2.08334H14.5352C14.9562 2.08334 15.3125 2.22918 15.6042 2.52084C15.8958 2.81251 16.0417 3.16883 16.0417 3.5898V13.0769C16.0417 13.4979 15.8958 13.8542 15.6042 14.1458C15.3125 14.4375 14.9562 14.5833 14.5352 14.5833H7.54813ZM4.63146 17.5C4.21049 17.5 3.85417 17.3542 3.5625 17.0625C3.27083 16.7708 3.125 16.4145 3.125 15.9936V5.25647H4.375V15.9936C4.375 16.0577 4.40174 16.1165 4.45521 16.1698C4.50854 16.2233 4.56729 16.25 4.63146 16.25H12.8685V17.5H4.63146Z" fill="white"/>
</g>
</svg>
