<svg width="20" height="20" viewBox="0 0 20 20" fill="none" xmlns="http://www.w3.org/2000/svg">
<path d="M10 20C15.5228 20 20 15.5228 20 10C20 4.47715 15.5228 0 10 0C4.47715 0 0 4.47715 0 10C0 15.5228 4.47715 20 10 20Z" fill="white" fill-opacity="0.15"/>
<path d="M10.3115 2.49838V8.0424L14.9971 10.1364L10.3115 2.49838Z" fill="white" fill-opacity="0.6"/>
<path d="M10.3116 2.49838L5.62598 10.1364L10.3116 8.0424V2.49838Z" fill="white"/>
<path d="M10.3115 13.7288V17.4958L14.9999 11.0087L10.3115 13.7288Z" fill="white" fill-opacity="0.6"/>
<path d="M10.3116 17.4958V13.7288L5.62598 11.0087L10.3116 17.4958Z" fill="white"/>
<path d="M10.3115 12.8567L14.9971 10.1366L10.3115 8.0426V12.8567Z" fill="white" fill-opacity="0.2"/>
<path d="M5.62598 10.1366L10.3116 12.8567V8.0426L5.62598 10.1366Z" fill="white" fill-opacity="0.6"/>
</svg>
