<svg width="20" height="20" viewBox="0 0 20 20" fill="none" xmlns="http://www.w3.org/2000/svg">
<mask id="mask0_539_16660" style="mask-type:alpha" maskUnits="userSpaceOnUse" x="0" y="0" width="20" height="20">
<rect width="20" height="20" fill="#D9D9D9"/>
</mask>
<g mask="url(#mask0_539_16660)">
<path d="M9.98398 17.0833C8.17954 17.0833 6.6069 16.4893 5.26606 15.3012C3.92523 14.1132 3.15336 12.6238 2.95044 10.8333H4.22606C4.43648 12.2725 5.08419 13.4656 6.16919 14.4127C7.25405 15.3598 8.52565 15.8333 9.98398 15.8333C11.609 15.8333 12.9875 15.2673 14.1194 14.1354C15.2513 13.0034 15.8173 11.625 15.8173 9.99996C15.8173 8.37496 15.2513 6.99649 14.1194 5.86454C12.9875 4.7326 11.609 4.16663 9.98398 4.16663C9.0737 4.16663 8.22065 4.36885 7.42482 4.77329C6.62884 5.1776 5.94343 5.73392 5.36856 6.44225H7.54815V7.69225H3.31731V3.46142H4.56731V5.43579C5.24356 4.63774 6.05343 4.01836 6.9969 3.57767C7.94023 3.13697 8.93593 2.91663 9.98398 2.91663C10.9669 2.91663 11.8879 3.10253 12.7469 3.47433C13.6058 3.84614 14.3547 4.35149 14.9936 4.99038C15.6325 5.62926 16.1378 6.37822 16.5096 7.23725C16.8814 8.09614 17.0673 9.01704 17.0673 9.99996C17.0673 10.9829 16.8814 11.9038 16.5096 12.7627C16.1378 13.6217 15.6325 14.3707 14.9936 15.0095C14.3547 15.6484 13.6058 16.1538 12.7469 16.5256C11.8879 16.8974 10.9669 17.0833 9.98398 17.0833ZM12.4856 13.3558L9.38315 10.2531V5.83329H10.6329V9.74683L13.3638 12.4775L12.4856 13.3558Z" fill="white"/>
</g>
</svg>
