<svg width="17" height="17" viewBox="0 0 17 17" fill="none" xmlns="http://www.w3.org/2000/svg">
<path d="M14.5 8.49989C14.5 9.67181 14.1569 10.8181 13.5129 11.7972C12.8689 12.7763 11.9522 13.5454 10.8761 14.0095C9.80001 14.4736 8.61155 14.6124 7.45746 14.4088C6.30337 14.2051 5.23417 13.668 4.38188 12.8636C4.33411 12.8185 4.2957 12.7644 4.26884 12.7044C4.24198 12.6444 4.2272 12.5797 4.22535 12.514C4.22349 12.4483 4.23459 12.3829 4.25802 12.3215C4.28144 12.2601 4.31673 12.2039 4.36188 12.1561C4.45304 12.0597 4.5788 12.0034 4.71148 11.9996C4.77718 11.9978 4.8426 12.0089 4.90401 12.0323C4.96542 12.0557 5.02161 12.091 5.06938 12.1361C5.78421 12.8105 6.68193 13.2593 7.65037 13.4264C8.61881 13.5935 9.61501 13.4715 10.5145 13.0756C11.414 12.6798 12.1769 12.0276 12.7079 11.2007C13.2389 10.3737 13.5144 9.40865 13.5 8.42601C13.4856 7.44337 13.1819 6.48675 12.627 5.6757C12.072 4.86464 11.2904 4.23511 10.3797 3.86576C9.46897 3.49641 8.46962 3.40363 7.50649 3.599C6.54336 3.79438 5.65916 4.26924 4.96438 4.96427C4.74375 5.18739 4.53625 5.40677 4.33438 5.62489L5.35375 6.64614C5.42376 6.71607 5.47144 6.80519 5.49076 6.90224C5.51009 6.99928 5.50019 7.09987 5.46231 7.19129C5.42444 7.2827 5.36029 7.36082 5.27799 7.41575C5.19569 7.47069 5.09895 7.49997 5 7.49989H2.5C2.36739 7.49989 2.24021 7.44721 2.14645 7.35344C2.05268 7.25968 2 7.1325 2 6.99989V4.49989C1.99992 4.40094 2.0292 4.3042 2.08414 4.2219C2.13908 4.1396 2.21719 4.07546 2.30861 4.03758C2.40002 3.9997 2.50061 3.9898 2.59765 4.00913C2.6947 4.02845 2.78382 4.07613 2.85375 4.14614L3.625 4.91864C3.82625 4.70052 4.03375 4.48114 4.25375 4.25927C5.09255 3.41903 6.16178 2.84654 7.32609 2.61425C8.49041 2.38196 9.69746 2.50032 10.7945 2.95435C11.8915 3.40837 12.8292 4.17765 13.4888 5.16481C14.1484 6.15197 14.5003 7.31263 14.5 8.49989ZM8.5 4.99989C8.36739 4.99989 8.24021 5.05257 8.14645 5.14634C8.05268 5.24011 8 5.36728 8 5.49989V8.49989C7.99997 8.58621 8.02229 8.67107 8.06479 8.7462C8.10729 8.82133 8.16851 8.88419 8.2425 8.92864L10.7425 10.4286C10.7988 10.4625 10.8612 10.4849 10.9262 10.4945C10.9911 10.5042 11.0574 10.501 11.1211 10.4851C11.1848 10.4692 11.2448 10.4409 11.2976 10.4019C11.3504 10.3628 11.3949 10.3137 11.4288 10.2574C11.4626 10.2011 11.485 10.1387 11.4947 10.0737C11.5043 10.0088 11.5012 9.94252 11.4853 9.8788C11.4694 9.81507 11.4411 9.75511 11.402 9.70232C11.3629 9.64953 11.3138 9.60496 11.2575 9.57114L9 8.21677V5.49989C9 5.36728 8.94732 5.24011 8.85355 5.14634C8.75979 5.05257 8.63261 4.99989 8.5 4.99989Z" fill="white" fill-opacity="0.6"/>
</svg>
