<svg width="20" height="20" viewBox="0 0 20 20" fill="none" xmlns="http://www.w3.org/2000/svg">
<mask id="mask0_539_16670" style="mask-type:alpha" maskUnits="userSpaceOnUse" x="0" y="0" width="20" height="20">
<rect width="20" height="20" fill="#D9D9D9"/>
</mask>
<g mask="url(#mask0_539_16670)">
<path d="M4.42315 17.0833C4.00217 17.0833 3.64585 16.9375 3.35419 16.6458C3.06252 16.3541 2.91669 15.9978 2.91669 15.5768V12.6123H4.16669V15.5768C4.16669 15.641 4.19342 15.6998 4.2469 15.7531C4.30023 15.8066 4.35898 15.8333 4.42315 15.8333H15.5769C15.6411 15.8333 15.6998 15.8066 15.7531 15.7531C15.8066 15.6998 15.8334 15.641 15.8334 15.5768V4.42308C15.8334 4.35892 15.8066 4.30017 15.7531 4.24683C15.6998 4.19336 15.6411 4.16663 15.5769 4.16663H4.42315C4.35898 4.16663 4.30023 4.19336 4.2469 4.24683C4.19342 4.30017 4.16669 4.35892 4.16669 4.42308V7.38767H2.91669V4.42308C2.91669 4.00211 3.06252 3.64579 3.35419 3.35413C3.64585 3.06246 4.00217 2.91663 4.42315 2.91663H15.5769C15.9979 2.91663 16.3542 3.06246 16.6459 3.35413C16.9375 3.64579 17.0834 4.00211 17.0834 4.42308V15.5768C17.0834 15.9978 16.9375 16.3541 16.6459 16.6458C16.3542 16.9375 15.9979 17.0833 15.5769 17.0833H4.42315ZM8.89419 13.7179L8.01606 12.8141L10.2052 10.625H2.91669V9.37496H10.2052L8.01606 7.18579L8.89419 6.28204L12.6121 9.99996L8.89419 13.7179Z" fill="white"/>
</g>
</svg>
