<svg width="21" height="20" viewBox="0 0 21 20" fill="none" xmlns="http://www.w3.org/2000/svg">
<mask id="mask0_539_16741" style="mask-type:alpha" maskUnits="userSpaceOnUse" x="0" y="0" width="21" height="20">
<rect x="0.5" width="20" height="20" fill="#D9D9D9"/>
</mask>
<g mask="url(#mask0_539_16741)">
<path d="M15.2115 16.3781C14.4308 16.3781 13.7708 16.1086 13.2317 15.5695C12.6926 15.0304 12.4231 14.3704 12.4231 13.5897C12.4231 12.8089 12.6926 12.149 13.2317 11.61C13.7708 11.0708 14.4308 10.8012 15.2115 10.8012C15.9923 10.8012 16.6522 11.0708 17.1913 11.61C17.7304 12.149 18 12.8089 18 13.5897C18 14.3704 17.7304 15.0304 17.1913 15.5695C16.6522 16.1086 15.9923 16.3781 15.2115 16.3781ZM15.2106 15.1281C15.6353 15.1281 15.9981 14.978 16.299 14.6779C16.5997 14.3776 16.75 14.0152 16.75 13.5906C16.75 13.1659 16.5999 12.8031 16.2996 12.5022C15.9994 12.2015 15.637 12.0512 15.2123 12.0512C14.7876 12.0512 14.4249 12.2013 14.1242 12.5016C13.8235 12.8018 13.6731 13.1642 13.6731 13.5889C13.6731 14.0136 13.8232 14.3763 14.1233 14.677C14.4236 14.9777 14.786 15.1281 15.2106 15.1281ZM4.25 14.2147V12.9647H10.5963V14.2147H4.25ZM5.78854 9.1987C5.00771 9.1987 4.34778 8.92912 3.80875 8.38995C3.26958 7.85092 3 7.19099 3 6.41016C3 5.62947 3.26958 4.96953 3.80875 4.43037C4.34778 3.89134 5.00771 3.62183 5.78854 3.62183C6.56924 3.62183 7.22917 3.89134 7.76833 4.43037C8.30736 4.96953 8.57688 5.62947 8.57688 6.41016C8.57688 7.19099 8.30736 7.85092 7.76833 8.38995C7.22917 8.92912 6.56924 9.1987 5.78854 9.1987ZM5.78771 7.9487C6.21243 7.9487 6.57514 7.79856 6.87583 7.49828C7.17653 7.19815 7.32688 6.83572 7.32688 6.41099C7.32688 5.98627 7.17681 5.62356 6.87667 5.32287C6.57639 5.02217 6.21396 4.87183 5.78937 4.87183C5.36465 4.87183 5.00187 5.0219 4.70104 5.32204C4.40035 5.62231 4.25 5.98474 4.25 6.40933C4.25 6.83405 4.40014 7.19683 4.70042 7.49766C5.00056 7.79835 5.36299 7.9487 5.78771 7.9487ZM10.4038 7.03516V5.78516H16.75V7.03516H10.4038Z" fill="white"/>
</g>
</svg>
