<svg width="20" height="20" viewBox="0 0 20 20" fill="none" xmlns="http://www.w3.org/2000/svg">
<mask id="mask0_539_16824" style="mask-type:alpha" maskUnits="userSpaceOnUse" x="0" y="0" width="20" height="20">
<rect width="20" height="20" fill="#D9D9D9"/>
</mask>
<g mask="url(#mask0_539_16824)">
<path d="M10 9.74355C9.19792 9.74355 8.51132 9.45799 7.94021 8.88688C7.36896 8.31563 7.08333 7.62897 7.08333 6.82688C7.08333 6.0248 7.36896 5.3382 7.94021 4.76709C8.51132 4.19584 9.19792 3.91022 10 3.91022C10.8021 3.91022 11.4887 4.19584 12.0598 4.76709C12.631 5.3382 12.9167 6.0248 12.9167 6.82688C12.9167 7.62897 12.631 8.31563 12.0598 8.88688C11.4887 9.45799 10.8021 9.74355 10 9.74355ZM3.75 16.0898V14.2371C3.75 13.829 3.86083 13.4511 4.0825 13.1033C4.30417 12.7556 4.60042 12.4882 4.97125 12.3013C5.79486 11.8975 6.62576 11.5947 7.46396 11.3927C8.30215 11.1908 9.1475 11.0898 10 11.0898C10.8525 11.0898 11.6978 11.1908 12.536 11.3927C13.3742 11.5947 14.2051 11.8975 15.0287 12.3013C15.3996 12.4882 15.6958 12.7556 15.9175 13.1033C16.1392 13.4511 16.25 13.829 16.25 14.2371V16.0898H3.75Z" fill="#9BE4A0"/>
</g>
</svg>
