<svg width="20" height="20" viewBox="0 0 20 20" fill="none" xmlns="http://www.w3.org/2000/svg">
<mask id="mask0_735_7629" style="mask-type:alpha" maskUnits="userSpaceOnUse" x="0" y="0" width="20" height="20">
<rect width="20" height="20" fill="#D9D9D9"/>
</mask>
<g mask="url(#mask0_735_7629)">
<path d="M2.9165 9.16666V2.91666H9.1665V9.16666H2.9165ZM4.1665 7.91666H7.9165V4.16666H4.1665V7.91666ZM2.9165 17.0833V10.8333H9.1665V17.0833H2.9165ZM4.1665 15.8333H7.9165V12.0833H4.1665V15.8333ZM10.8332 9.16666V2.91666H17.0832V9.16666H10.8332ZM12.0832 7.91666H15.8332V4.16666H12.0832V7.91666ZM15.5207 17.0833V15.5208H17.0832V17.0833H15.5207ZM10.8332 12.3958V10.8333H12.3957V12.3958H10.8332ZM12.3957 13.9583V12.3958H13.9582V13.9583H12.3957ZM10.8332 15.5208V13.9583H12.3957V15.5208H10.8332ZM12.3957 17.0833V15.5208H13.9582V17.0833H12.3957ZM13.9582 15.5208V13.9583H15.5207V15.5208H13.9582ZM13.9582 12.3958V10.8333H15.5207V12.3958H13.9582ZM15.5207 13.9583V12.3958H17.0832V13.9583H15.5207Z" fill="white"/>
</g>
</svg>
