<svg width="16" height="17" viewBox="0 0 16 17" fill="none" xmlns="http://www.w3.org/2000/svg">
<path d="M13.8671 7.17896C13.8467 7.148 13.8196 7.12198 13.7878 7.10279C13.756 7.08359 13.7204 7.07171 13.6835 7.068C13.6466 7.06429 13.6093 7.06884 13.5743 7.08134C13.5394 7.09383 13.5077 7.11394 13.4815 7.14021L8.76773 11.854C8.67233 11.9388 8.54811 11.9838 8.42054 11.98C8.29296 11.9762 8.17168 11.9237 8.08155 11.8333C7.99142 11.7429 7.93926 11.6215 7.93576 11.4939C7.93226 11.3664 7.97769 11.2423 8.06273 11.1471L13.8565 5.35396C13.9029 5.30751 13.9398 5.25236 13.9649 5.19166C13.9901 5.13097 14.003 5.06591 14.003 5.00021C14.003 4.93452 13.9901 4.86946 13.9649 4.80877C13.9398 4.74807 13.9029 4.69292 13.8565 4.64646C13.81 4.60001 13.7549 4.56316 13.6942 4.53802C13.6335 4.51288 13.5684 4.49994 13.5027 4.49994C13.437 4.49994 13.372 4.51288 13.3113 4.53802C13.2506 4.56316 13.1954 4.60001 13.149 4.64646L12.3127 5.48334C11.1193 4.55126 9.65588 4.03112 8.1419 4.00091C6.62791 3.97069 5.14492 4.43202 3.91523 5.31573C2.68555 6.19945 1.77544 7.45793 1.32133 8.90253C0.867225 10.3471 0.893592 11.9 1.39648 13.3283C1.46538 13.5242 1.5932 13.6939 1.7624 13.8142C1.93159 13.9345 2.13388 13.9995 2.34148 14.0002H13.6584C13.8657 14.0003 14.068 13.936 14.2372 13.8161C14.4064 13.6961 14.5342 13.5266 14.6027 13.3308C14.9591 12.3175 15.0781 11.2359 14.9506 10.1693C14.8231 9.10275 14.4524 8.07969 13.8671 7.17896ZM3.59023 11.9008C3.61658 12.0308 3.59023 12.1659 3.51697 12.2764C3.44372 12.3869 3.32956 12.4639 3.1996 12.4902C3.1667 12.4969 3.13319 12.5003 3.0996 12.5002C2.98436 12.5001 2.8727 12.4601 2.78353 12.3871C2.69435 12.3141 2.63313 12.2125 2.61023 12.0996C2.43143 11.2194 2.47075 10.3089 2.72474 9.44744C2.97873 8.58598 3.43969 7.79976 4.06738 7.15739C4.69508 6.51503 5.47044 6.03603 6.32581 5.76221C7.18117 5.48838 8.09056 5.42805 8.9746 5.58646C9.10514 5.60984 9.22104 5.68411 9.29682 5.79294C9.3726 5.90177 9.40204 6.03624 9.37866 6.16678C9.35529 6.29731 9.28102 6.41322 9.17219 6.48899C9.06336 6.56477 8.92889 6.59421 8.79835 6.57084C8.07492 6.44132 7.33079 6.49079 6.63087 6.71492C5.93095 6.93905 5.2965 7.33104 4.78287 7.85669C4.26924 8.38234 3.89203 9.02569 3.68415 9.7306C3.47626 10.4355 3.44402 11.1806 3.59023 11.9008Z" fill="white" fill-opacity="0.6"/>
</svg>
