<svg width="21" height="20" viewBox="0 0 21 20" fill="none" xmlns="http://www.w3.org/2000/svg">
<mask id="mask0_539_16738" style="mask-type:alpha" maskUnits="userSpaceOnUse" x="0" y="0" width="21" height="20">
<rect x="0.5" width="20" height="20" fill="#D9D9D9"/>
</mask>
<g mask="url(#mask0_539_16738)">
<path d="M16.7852 17.1476L11.5513 11.9134C11.1346 12.2574 10.6554 12.5267 10.1138 12.7211C9.57209 12.9155 9.01174 13.0128 8.43271 13.0128C7.00841 13.0128 5.80299 12.5196 4.81646 11.5334C3.82993 10.5471 3.33667 9.342 3.33667 7.91797C3.33667 6.49408 3.82979 5.28853 4.81604 4.3013C5.80229 3.31422 7.00743 2.82068 8.43146 2.82068C9.85535 2.82068 11.0609 3.31394 12.0481 4.30047C13.0352 5.287 13.5288 6.49241 13.5288 7.91672C13.5288 8.51186 13.4289 9.08026 13.2292 9.62193C13.0293 10.1636 12.7627 10.6347 12.4294 11.0353L17.6633 16.2692L16.7852 17.1476ZM8.43271 11.763C9.50646 11.763 10.4159 11.3903 11.161 10.6451C11.9063 9.89991 12.279 8.99047 12.279 7.91672C12.279 6.84297 11.9063 5.93353 11.161 5.18839C10.4159 4.44311 9.50646 4.07047 8.43271 4.07047C7.35896 4.07047 6.44952 4.44311 5.70438 5.18839C4.9591 5.93353 4.58646 6.84297 4.58646 7.91672C4.58646 8.99047 4.9591 9.89991 5.70438 10.6451C6.44952 11.3903 7.35896 11.763 8.43271 11.763Z" fill="white"/>
</g>
</svg>
