<svg width="20" height="20" viewBox="0 0 20 20" fill="none" xmlns="http://www.w3.org/2000/svg">
<mask id="mask0_735_8375" style="mask-type:alpha" maskUnits="userSpaceOnUse" x="0" y="0" width="20" height="20">
<rect width="20" height="20" fill="#D9D9D9"/>
</mask>
<g mask="url(#mask0_735_8375)">
<path d="M14.0043 17.9167C13.3805 17.9167 12.8509 17.6986 12.4155 17.2623C11.9802 16.8261 11.7626 16.2963 11.7626 15.6731C11.7626 15.5898 11.7914 15.3873 11.8491 15.0656L5.9228 11.5769C5.72197 11.7852 5.48336 11.9484 5.20697 12.0665C4.93058 12.1845 4.63447 12.2436 4.31863 12.2436C3.69766 12.2436 3.16981 12.0245 2.73509 11.5865C2.30037 11.1484 2.08301 10.6196 2.08301 10C2.08301 9.38043 2.30037 8.85161 2.73509 8.41355C3.16981 7.9755 3.69766 7.75647 4.31863 7.75647C4.63447 7.75647 4.93058 7.8155 5.20697 7.93355C5.48336 8.05161 5.72197 8.2148 5.9228 8.42313L11.8491 4.9423C11.816 4.8398 11.7933 4.73939 11.7809 4.64105C11.7687 4.54272 11.7626 4.438 11.7626 4.32689C11.7626 3.70369 11.9809 3.17397 12.4174 2.73772C12.854 2.30147 13.3843 2.08334 14.008 2.08334C14.6318 2.08334 15.1613 2.30168 15.5966 2.73834C16.032 3.17487 16.2497 3.70501 16.2497 4.32876C16.2497 4.95251 16.0316 5.48209 15.5953 5.91751C15.159 6.35279 14.6293 6.57043 14.0061 6.57043C13.6888 6.57043 13.3936 6.51008 13.1207 6.38939C12.8477 6.26869 12.6107 6.10418 12.4099 5.89584L6.48363 9.38459C6.51669 9.48723 6.5394 9.58765 6.55176 9.68584C6.56398 9.78418 6.57009 9.8889 6.57009 10C6.57009 10.1111 6.56398 10.2158 6.55176 10.3142C6.5394 10.4124 6.51669 10.5128 6.48363 10.6154L12.4099 14.1042C12.6107 13.8958 12.8477 13.7313 13.1207 13.6106C13.3936 13.4899 13.6888 13.4296 14.0061 13.4296C14.6293 13.4296 15.159 13.6479 15.5953 14.0844C16.0316 14.5211 16.2497 15.0513 16.2497 15.675C16.2497 16.2988 16.0313 16.8283 15.5947 17.2636C15.1581 17.699 14.628 17.9167 14.0043 17.9167ZM14.0061 16.6667C14.2877 16.6667 14.5236 16.5715 14.714 16.3811C14.9045 16.1906 14.9997 15.9547 14.9997 15.6731C14.9997 15.3916 14.9045 15.1556 14.714 14.9652C14.5236 14.7747 14.2877 14.6794 14.0061 14.6794C13.7246 14.6794 13.4886 14.7747 13.2982 14.9652C13.1077 15.1556 13.0124 15.3916 13.0124 15.6731C13.0124 15.9547 13.1077 16.1906 13.2982 16.3811C13.4886 16.5715 13.7246 16.6667 14.0061 16.6667ZM4.31863 10.9936C4.60238 10.9936 4.84023 10.8983 5.03217 10.7079C5.22426 10.5175 5.3203 10.2815 5.3203 10C5.3203 9.71848 5.22426 9.48251 5.03217 9.29209C4.84023 9.10168 4.60238 9.00647 4.31863 9.00647C4.03933 9.00647 3.80523 9.10168 3.61634 9.29209C3.42745 9.48251 3.33301 9.71848 3.33301 10C3.33301 10.2815 3.42745 10.5175 3.61634 10.7079C3.80523 10.8983 4.03933 10.9936 4.31863 10.9936ZM14.0061 5.32064C14.2877 5.32064 14.5236 5.22536 14.714 5.0348C14.9045 4.84438 14.9997 4.60841 14.9997 4.32689C14.9997 4.04536 14.9045 3.80939 14.714 3.61897C14.5236 3.42855 14.2877 3.33334 14.0061 3.33334C13.7246 3.33334 13.4886 3.42855 13.2982 3.61897C13.1077 3.80939 13.0124 4.04536 13.0124 4.32689C13.0124 4.60841 13.1077 4.84438 13.2982 5.0348C13.4886 5.22536 13.7246 5.32064 14.0061 5.32064Z" fill="#9BE4A0"/>
</g>
</svg>
