<svg width="20" height="20" viewBox="0 0 20 20" fill="none" xmlns="http://www.w3.org/2000/svg">
<mask id="mask0_539_16615" style="mask-type:alpha" maskUnits="userSpaceOnUse" x="0" y="0" width="20" height="20">
<rect width="20" height="20" fill="#D9D9D9"/>
</mask>
<g mask="url(#mask0_539_16615)">
<path d="M14.0047 17.9167C13.381 17.9167 12.8514 17.6986 12.416 17.2623C11.9807 16.8261 11.7631 16.2964 11.7631 15.6732C11.7631 15.5898 11.7919 15.3873 11.8495 15.0657L5.92329 11.5769C5.72245 11.7852 5.48384 11.9484 5.20745 12.0665C4.93107 12.1846 4.63495 12.2436 4.31912 12.2436C3.69815 12.2436 3.1703 12.0246 2.73558 11.5865C2.30086 11.1484 2.0835 10.6196 2.0835 10C2.0835 9.38046 2.30086 8.85164 2.73558 8.41358C3.1703 7.97553 3.69815 7.7565 4.31912 7.7565C4.63495 7.7565 4.93107 7.81553 5.20745 7.93358C5.48384 8.05164 5.72245 8.21483 5.92329 8.42317L11.8495 4.94233C11.8165 4.83983 11.7938 4.73942 11.7814 4.64108C11.7692 4.54275 11.7631 4.43803 11.7631 4.32692C11.7631 3.70372 11.9813 3.174 12.4179 2.73775C12.8545 2.3015 13.3847 2.08337 14.0085 2.08337C14.6322 2.08337 15.1618 2.30171 15.597 2.73837C16.0325 3.1749 16.2502 3.70504 16.2502 4.32879C16.2502 4.95254 16.032 5.48212 15.5958 5.91754C15.1595 6.35282 14.6298 6.57046 14.0066 6.57046C13.6893 6.57046 13.3941 6.51011 13.1212 6.38942C12.8481 6.26872 12.6112 6.10421 12.4104 5.89587L6.48412 9.38462C6.51718 9.48726 6.53989 9.58768 6.55225 9.68587C6.56447 9.78421 6.57058 9.88893 6.57058 10C6.57058 10.1112 6.56447 10.2159 6.55225 10.3142C6.53989 10.4124 6.51718 10.5128 6.48412 10.6155L12.4104 14.1042C12.6112 13.8959 12.8481 13.7314 13.1212 13.6107C13.3941 13.49 13.6893 13.4296 14.0066 13.4296C14.6298 13.4296 15.1595 13.6479 15.5958 14.0844C16.032 14.5211 16.2502 15.0513 16.2502 15.675C16.2502 16.2988 16.0318 16.8283 15.5952 17.2636C15.1586 17.699 14.6285 17.9167 14.0047 17.9167Z" fill="#25262B"/>
</g>
</svg>
