<svg width="20" height="20" viewBox="0 0 20 20" fill="none" xmlns="http://www.w3.org/2000/svg">
<path d="M18.0781 3.46419C18.0781 3.46419 18.0781 3.47201 18.0781 3.47591L13.5312 18.4712C13.4624 18.7148 13.3207 18.9315 13.1252 19.0922C12.9297 19.2529 12.6897 19.35 12.4374 19.3704C12.4015 19.3736 12.3656 19.3751 12.3296 19.3751C12.0932 19.3759 11.8615 19.309 11.6619 19.1823C11.4623 19.0556 11.3031 18.8745 11.2031 18.6603L8.35931 12.8244C8.33086 12.7659 8.32136 12.7 8.33214 12.6358C8.34293 12.5717 8.37345 12.5125 8.41947 12.4665L12.9445 7.94154C13.0567 7.82338 13.1184 7.66603 13.1163 7.50305C13.1142 7.34008 13.0485 7.18437 12.9333 7.06911C12.818 6.95386 12.6623 6.88819 12.4994 6.88611C12.3364 6.88402 12.179 6.94568 12.0609 7.05794L7.53353 11.5829C7.48757 11.629 7.42839 11.6595 7.36425 11.6703C7.30011 11.6811 7.2342 11.6716 7.17572 11.6431L1.33431 8.80013C1.10589 8.69055 0.916158 8.51414 0.790262 8.29428C0.664365 8.07443 0.608246 7.82151 0.629342 7.56904C0.650437 7.31657 0.747752 7.07647 0.908388 6.88056C1.06903 6.68464 1.2854 6.54217 1.52884 6.47201L16.5242 1.92513H16.5359C16.7494 1.86515 16.975 1.86305 17.1896 1.91904C17.4042 1.97503 17.6 2.08711 17.757 2.24376C17.9139 2.40042 18.0264 2.59601 18.0828 2.81048C18.1393 3.02495 18.1376 3.25057 18.0781 3.46419Z" fill="#25262B"/>
</svg>
