<svg width="17" height="16" viewBox="0 0 17 16" fill="none" xmlns="http://www.w3.org/2000/svg">
<path d="M13.5 5H3.5C3.36739 5 3.24021 4.94732 3.14645 4.85355C3.05268 4.75979 3 4.63261 3 4.5C3 4.36739 3.05268 4.24021 3.14645 4.14645C3.24021 4.05268 3.36739 4 3.5 4H12C12.1326 4 12.2598 3.94732 12.3536 3.85355C12.4473 3.75979 12.5 3.63261 12.5 3.5C12.5 3.36739 12.4473 3.24021 12.3536 3.14645C12.2598 3.05268 12.1326 3 12 3H3.5C3.10218 3 2.72064 3.15804 2.43934 3.43934C2.15804 3.72064 2 4.10218 2 4.5V12.5C2 12.8978 2.15804 13.2794 2.43934 13.5607C2.72064 13.842 3.10218 14 3.5 14H13.5C13.7652 14 14.0196 13.8946 14.2071 13.7071C14.3946 13.5196 14.5 13.2652 14.5 13V6C14.5 5.73478 14.3946 5.48043 14.2071 5.29289C14.0196 5.10536 13.7652 5 13.5 5ZM11.25 10C11.1017 10 10.9567 9.95601 10.8333 9.8736C10.71 9.79119 10.6139 9.67406 10.5571 9.53701C10.5003 9.39997 10.4855 9.24917 10.5144 9.10368C10.5434 8.9582 10.6148 8.82456 10.7197 8.71967C10.8246 8.61478 10.9582 8.54335 11.1037 8.51441C11.2492 8.48547 11.4 8.50032 11.537 8.55709C11.6741 8.61386 11.7912 8.70999 11.8736 8.83332C11.956 8.95666 12 9.10166 12 9.25C12 9.44891 11.921 9.63968 11.7803 9.78033C11.6397 9.92098 11.4489 10 11.25 10Z" fill="#ACADAF"/>
</svg>
