<svg width="20" height="20" viewBox="0 0 20 20" fill="none" xmlns="http://www.w3.org/2000/svg">
<mask id="mask0_539_17865" style="mask-type:alpha" maskUnits="userSpaceOnUse" x="0" y="0" width="20" height="20">
<rect width="20" height="20" fill="#D9D9D9"/>
</mask>
<g mask="url(#mask0_539_17865)">
<path d="M4.42321 17.0833C4.00765 17.0833 3.65265 16.9361 3.35821 16.6418C3.0639 16.3474 2.91675 15.9924 2.91675 15.5768V4.42308C2.91675 4.00753 3.0639 3.65253 3.35821 3.35808C3.65265 3.06378 4.00765 2.91663 4.42321 2.91663H15.577C15.9925 2.91663 16.3475 3.06378 16.642 3.35808C16.9363 3.65253 17.0834 4.00753 17.0834 4.42308V6.69079H15.8334V4.42308C15.8334 4.34822 15.8094 4.28677 15.7613 4.23871C15.7133 4.19065 15.6518 4.16663 15.577 4.16663H4.42321C4.34835 4.16663 4.28689 4.19065 4.23883 4.23871C4.19078 4.28677 4.16675 4.34822 4.16675 4.42308V15.5768C4.16675 15.6517 4.19078 15.7132 4.23883 15.7612C4.28689 15.8093 4.34835 15.8333 4.42321 15.8333H15.577C15.6518 15.8333 15.7133 15.8093 15.7613 15.7612C15.8094 15.7132 15.8334 15.6517 15.8334 15.5768V13.3091H17.0834V15.5768C17.0834 15.9924 16.9363 16.3474 16.642 16.6418C16.3475 16.9361 15.9925 17.0833 15.577 17.0833H4.42321ZM11.0899 13.75C10.6743 13.75 10.3193 13.6028 10.0249 13.3085C9.73057 13.0141 9.58341 12.6591 9.58341 12.2435V7.75642C9.58341 7.34086 9.73057 6.98586 10.0249 6.69142C10.3193 6.39711 10.6743 6.24996 11.0899 6.24996H16.4103C16.8258 6.24996 17.1808 6.39711 17.4753 6.69142C17.7696 6.98586 17.9167 7.34086 17.9167 7.75642V12.2435C17.9167 12.6591 17.7696 13.0141 17.4753 13.3085C17.1808 13.6028 16.8258 13.75 16.4103 13.75H11.0899ZM16.4103 12.5C16.4852 12.5 16.5466 12.4759 16.5947 12.4279C16.6427 12.3798 16.6667 12.3184 16.6667 12.2435V7.75642C16.6667 7.68156 16.6427 7.6201 16.5947 7.57204C16.5466 7.52399 16.4852 7.49996 16.4103 7.49996H11.0899C11.015 7.49996 10.9536 7.52399 10.9055 7.57204C10.8574 7.6201 10.8334 7.68156 10.8334 7.75642V12.2435C10.8334 12.3184 10.8574 12.3798 10.9055 12.4279C10.9536 12.4759 11.015 12.5 11.0899 12.5H16.4103ZM13.3334 11.25C13.6806 11.25 13.9758 11.1284 14.2188 10.8854C14.4619 10.6423 14.5834 10.3472 14.5834 9.99996C14.5834 9.65274 14.4619 9.3576 14.2188 9.11454C13.9758 8.87149 13.6806 8.74996 13.3334 8.74996C12.9862 8.74996 12.6911 8.87149 12.448 9.11454C12.2049 9.3576 12.0834 9.65274 12.0834 9.99996C12.0834 10.3472 12.2049 10.6423 12.448 10.8854C12.6911 11.1284 12.9862 11.25 13.3334 11.25Z" fill="white"/>
</g>
</svg>
