<svg width="20" height="20" viewBox="0 0 20 20" fill="none" xmlns="http://www.w3.org/2000/svg">
<mask id="mask0_1902_949" style="mask-type:alpha" maskUnits="userSpaceOnUse" x="0" y="0" width="20" height="20">
<rect width="20" height="20" fill="#D9D9D9"/>
</mask>
<g mask="url(#mask0_1902_949)">
<path d="M10 17.9004C8.19764 17.4089 6.70542 16.348 5.52333 14.7177C4.34111 13.0875 3.75 11.2648 3.75 9.24982V4.45503L10 2.11523L16.25 4.45503V8.4294H15V5.31232L10 3.44523L5 5.31232V9.24982C5 10.9304 5.47222 12.4582 6.41667 13.8332C7.36111 15.2082 8.55556 16.1248 10 16.5832C10.3611 16.472 10.7049 16.3297 11.0313 16.1561C11.3576 15.9825 11.6806 15.7776 12 15.5415L12.846 16.4357C12.4091 16.7733 11.9594 17.0636 11.4969 17.3067C11.0342 17.5497 10.5353 17.7477 10 17.9004ZM17.1952 17.9165C17.018 17.9165 16.8696 17.8566 16.75 17.7367C16.6303 17.6168 16.5704 17.4684 16.5704 17.2913C16.5704 17.1141 16.6303 16.9657 16.7502 16.8461C16.8701 16.7263 17.0186 16.6665 17.1958 16.6665C17.3729 16.6665 17.5213 16.7264 17.641 16.8463C17.7606 16.9661 17.8204 17.1146 17.8204 17.2917C17.8204 17.4689 17.7605 17.6173 17.6406 17.7369C17.5209 17.8566 17.3724 17.9165 17.1952 17.9165ZM16.5704 14.8396V10.2563H17.8204V14.8396H16.5704ZM10 11.6665C10.4583 11.6665 10.8507 11.5033 11.1771 11.1769C11.5035 10.8505 11.6667 10.4582 11.6667 9.99982C11.6667 9.54149 11.5035 9.14912 11.1771 8.82274C10.8507 8.49635 10.4583 8.33315 10 8.33315C9.54167 8.33315 9.14931 8.49635 8.82292 8.82274C8.49653 9.14912 8.33333 9.54149 8.33333 9.99982C8.33333 10.4582 8.49653 10.8505 8.82292 11.1769C9.14931 11.5033 9.54167 11.6665 10 11.6665ZM10 12.9165C9.19792 12.9165 8.51132 12.6309 7.94021 12.0596C7.36896 11.4885 7.08333 10.8019 7.08333 9.99982C7.08333 9.19774 7.36896 8.51114 7.94021 7.94003C8.51132 7.36878 9.19792 7.08315 10 7.08315C10.8021 7.08315 11.4887 7.36878 12.0598 7.94003C12.631 8.51114 12.9167 9.19774 12.9167 9.99982C12.9167 10.2811 12.8785 10.5528 12.8021 10.815C12.7257 11.0771 12.6165 11.3268 12.4744 11.564L14.9133 13.9902L14.0225 14.8813L11.5704 12.4421C11.3418 12.6002 11.0932 12.7188 10.8246 12.7979C10.5558 12.877 10.281 12.9165 10 12.9165Z" fill="white"/>
</g>
</svg>
