<svg width="20" height="20" viewBox="0 0 20 20" fill="none" xmlns="http://www.w3.org/2000/svg">
<mask id="mask0_1902_954" style="mask-type:alpha" maskUnits="userSpaceOnUse" x="0" y="0" width="20" height="20">
<rect width="20" height="20" fill="#D9D9D9"/>
</mask>
<g mask="url(#mask0_1902_954)">
<path d="M4.16602 3.33398V8.48294V8.46211V16.6673V3.33398ZM6.04102 11.459H8.99768C9.10143 11.2197 9.2222 10.9972 9.35997 10.7915C9.49775 10.5858 9.65268 10.3916 9.82477 10.209H6.04102V11.459ZM6.04102 14.7923H8.56664C8.51859 14.584 8.48678 14.3757 8.47122 14.1673C8.45581 13.959 8.45664 13.7507 8.47372 13.5423H6.04102V14.7923ZM4.42247 17.9173C4.0015 17.9173 3.64518 17.7715 3.35352 17.4798C3.06185 17.1882 2.91602 16.8318 2.91602 16.4109V3.59044C2.91602 3.16947 3.06185 2.81315 3.35352 2.52148C3.64518 2.22982 4.0015 2.08398 4.42247 2.08398H11.041L15.416 6.45898V8.75857C15.2162 8.67954 15.0121 8.61947 14.8037 8.57836C14.5954 8.53725 14.3828 8.50544 14.166 8.48294V7.08398H10.416V3.33398H4.42247C4.35831 3.33398 4.29956 3.36072 4.24622 3.41419C4.19275 3.46753 4.16602 3.52628 4.16602 3.59044V16.4109C4.16602 16.475 4.19275 16.5338 4.24622 16.5871C4.29956 16.6406 4.35831 16.6673 4.42247 16.6673H9.33914C9.50261 16.9152 9.68581 17.1441 9.88872 17.354C10.0918 17.564 10.3118 17.7518 10.5489 17.9173H4.42247ZM13.7493 15.9621C14.37 15.9621 14.8938 15.7487 15.3206 15.3219C15.7474 14.8951 15.9608 14.3713 15.9608 13.7507C15.9608 13.13 15.7474 12.6062 15.3206 12.1794C14.8938 11.7526 14.37 11.5392 13.7493 11.5392C13.1287 11.5392 12.6049 11.7526 12.1781 12.1794C11.7513 12.6062 11.5379 13.13 11.5379 13.7507C11.5379 14.3713 11.7513 14.8951 12.1781 15.3219C12.6049 15.7487 13.1287 15.9621 13.7493 15.9621ZM17.9993 18.8709L15.7173 16.5888C15.4363 16.7939 15.1284 16.9491 14.7935 17.0544C14.4585 17.1595 14.1105 17.2121 13.7493 17.2121C12.7878 17.2121 11.9705 16.8756 11.2975 16.2025C10.6244 15.5295 10.2879 14.7122 10.2879 13.7507C10.2879 12.7891 10.6244 11.9718 11.2975 11.2988C11.9705 10.6257 12.7878 10.2892 13.7493 10.2892C14.7109 10.2892 15.5282 10.6257 16.2012 11.2988C16.8743 11.9718 17.2108 12.7891 17.2108 13.7507C17.2108 14.1118 17.1582 14.4598 17.0531 14.7948C16.9478 15.1297 16.7926 15.4376 16.5875 15.7186L18.8696 18.0007L17.9993 18.8709Z" fill="white"/>
</g>
</svg>
