<svg width="1200" height="198" viewBox="0 0 1200 198" fill="none" xmlns="http://www.w3.org/2000/svg">
<path d="M19.2002 61.7823H6.68093H-6.97656V196.211H1203.99V74.8728L1124.89 35.0978L1079.37 41.6431L1049.77 35.0978L1017.34 41.6431L976.246 8.85366L922.872 41.6431L847.186 49.6988L810.196 35.0978L757.274 46.1744H723.698L670.207 30.0631L638.871 26.2927L620.699 11.4343L601.351 0.357727L552.98 35.0978H530.218L511.439 42.6501H484.124L454.533 54.7336L409.008 49.6988L370.312 57.7544L279.262 42.6501L224.751 11.0894L194.472 39.1257L131.874 54.7336H89.7635L36.8412 64.2997L19.2002 61.7823Z" fill="url(#paint0_linear_1766_588)"/>
<path d="M23.2656 64.0413C19.9096 63.5502 16.5223 63.3037 13.1305 63.3037H5.69531V63.3037C-2.15494 63.3037 -8.81768 69.0606 -9.95676 76.8278L-18.2448 133.343C-24.4411 175.594 8.31108 213.5 51.0144 213.5H1148.64C1194.24 213.5 1227.67 170.59 1216.51 126.372L1211.71 107.354C1206.8 87.8878 1193.77 71.4679 1175.92 62.2667L1144.84 46.2385C1131.83 39.5275 1117.03 37.0667 1102.55 39.2024L1092.2 40.7281C1083.65 41.9887 1074.94 41.6549 1066.51 39.7434L1060 38.2664C1053.17 36.7188 1046.09 36.6519 1039.24 38.0702L1038.15 38.2971C1024.84 41.0506 1011 37.8526 1000.25 29.5426V29.5426C984.665 17.4936 963.182 16.5625 946.614 27.2178L935.553 34.3309C927.061 39.7924 917.415 43.2056 907.378 44.3011L864.413 48.9904C852.912 50.2457 841.278 48.6306 830.554 44.2896L829.803 43.9854C816.815 38.7284 802.549 37.4898 788.849 40.43L764.168 45.7271C759.34 46.7633 754.416 47.2857 749.479 47.2857H733.867C726.864 47.2857 719.9 46.2349 713.21 44.1683L675.142 32.411C671.565 31.3061 667.904 30.49 664.196 29.9706L657.73 29.0647C645.381 27.3348 633.719 22.3379 623.949 14.5906L620.219 11.6328V11.6328C608.471 4.73616 593.744 5.50222 582.775 13.5805L563.886 27.4911C556.453 32.9652 547.464 35.918 538.233 35.918V35.918C532.575 35.918 526.972 37.0281 521.741 39.1853L520.266 39.7934C514.062 42.3521 507.415 43.6688 500.704 43.6688H497.296C488.21 43.6688 479.128 45.5125 470.747 49.0219V49.0219C459.786 53.612 447.716 55.3667 435.908 54.0276L419.693 52.1887C412.183 51.337 404.584 51.7073 397.192 53.2853L382.749 56.3685C374.079 58.2193 365.136 58.4063 356.396 56.9196L290.944 45.7855C282.723 44.387 274.842 41.4427 267.718 37.1084L250.584 26.6845C234.813 17.0892 214.536 19.4493 201.391 32.4107V32.4107C196.315 37.4149 190.002 40.9821 183.096 42.7477L139.524 53.8882C133.858 55.3369 128.033 56.0698 122.184 56.0698H95.2789C90.9995 56.0698 86.7291 56.4622 82.5214 57.2421L47.2907 63.7723C39.7354 65.1727 32.0011 65.3196 24.3981 64.207L23.2656 64.0413Z" stroke="#99E39E" stroke-width="1.5"/>
<defs>
<linearGradient id="paint0_linear_1766_588" x1="598.505" y1="-877.342" x2="598.505" y2="169.099" gradientUnits="userSpaceOnUse">
<stop stop-color="#99E39E"/>
<stop offset="1" stop-color="#99E39E" stop-opacity="0"/>
</linearGradient>
</defs>
</svg>
