<svg width="1200" height="220" viewBox="0 0 1200 220" fill="none" xmlns="http://www.w3.org/2000/svg">
<g clip-path="url(#clip0_2071_1055)">
<path d="M24.0828 85.1746C20.8024 84.7058 17.4928 84.4705 14.1791 84.4705H6.64663V84.4705C-0.890198 84.4705 -7 90.5803 -7 98.1171V151.544C-7 188.736 23.2631 218.828 60.4553 218.616L1140.84 212.46C1183.22 212.218 1215.39 174.213 1208.63 132.373V132.373C1205.09 110.513 1191.29 91.6734 1171.51 81.7127L1143.63 67.6715C1130.83 61.2236 1116.36 58.8616 1102.17 60.9046L1091.12 62.4957C1082.76 63.6995 1074.25 63.3805 1066.01 61.5542L1058.97 59.9967C1052.33 58.5259 1045.46 58.4623 1038.79 59.81L1037.06 60.1607C1024.03 62.7946 1010.5 59.5216 1000.12 51.2226V51.2226C985.313 39.392 964.677 38.1248 948.537 48.0551L935.098 56.3239C926.547 61.5855 916.927 64.8686 906.943 65.9329L863.615 70.5516C852.361 71.7512 840.984 70.2043 830.459 66.0432L829.059 65.4897C816.316 60.4516 802.374 59.2646 788.962 62.076L763.746 67.3618C759.023 68.3519 754.21 68.8509 749.384 68.8509H733.422C726.573 68.8509 719.762 67.8459 713.205 65.8681L675.458 54.4811C671.59 53.3142 667.628 52.4845 663.616 52.0011L656.463 51.1391C644.622 49.7122 633.433 44.941 624.205 37.3844L622.144 35.6965C620.834 34.6239 619.438 33.6616 617.969 32.8196V32.8196C607.54 26.8395 594.577 27.5073 584.817 34.5277L564.04 49.4727C556.544 54.865 547.543 57.766 538.309 57.766V57.766C532.667 57.766 527.078 58.8494 521.845 60.9572L520.385 61.545C514.188 64.041 507.57 65.3239 500.889 65.3239H497.453C488.378 65.3239 479.389 67.091 470.989 70.5264L470.636 70.671C459.813 75.0974 448.053 76.742 436.431 75.4547L419.734 73.6052C412.393 72.7921 404.97 73.1459 397.74 74.6534L382.819 77.7643C374.339 79.5325 365.604 79.7112 357.058 78.2913L291.303 67.3662C283.175 66.0158 275.359 63.2063 268.231 59.0733L251.032 49.0999C235.29 39.9716 215.434 42.187 202.091 54.5605V54.5605C196.972 59.3077 190.736 62.6839 183.963 64.3753L140.092 75.3309C134.545 76.7161 128.849 77.4165 123.132 77.4165H95.9483C91.7666 77.4165 87.5933 77.7912 83.4785 78.5361L47.9361 84.9706C40.5488 86.308 32.9944 86.4482 25.5625 85.3861L24.0828 85.1746Z" fill="url(#paint0_linear_2071_1055)"/>
<path d="M23.2319 86.0093C19.8604 85.5136 16.4572 85.2648 13.0494 85.2648H5.6531V85.2648C-2.18654 85.2648 -8.839 91.0168 -9.97124 98.7742L-18.3076 155.89C-24.4722 198.127 8.27447 236 50.9585 236H1147.24C1192.82 236 1226.24 193.147 1215.14 148.948L1210.21 129.338C1205.33 109.886 1192.33 93.464 1174.52 84.2373L1143.54 68.1869C1130.49 61.4218 1115.63 58.9406 1101.08 61.0955L1090.95 62.5969C1082.36 63.8694 1073.61 63.5324 1065.14 61.6034L1058.71 60.1383C1051.89 58.5849 1044.82 58.5177 1037.97 59.9414L1036.91 60.1627C1023.61 62.9286 1009.76 59.7205 999.036 51.3863V51.3863C983.481 39.3023 961.987 38.3692 945.443 49.0596L934.401 56.1945C925.926 61.6708 916.291 65.095 906.261 66.1949L863.456 70.8891C851.904 72.1559 840.218 70.5267 829.453 66.1485L828.89 65.9194C815.852 60.6171 801.52 59.3678 787.762 62.3347L763.27 67.6163C758.421 68.662 753.474 69.1893 748.514 69.1893H733.024C725.99 69.1893 718.995 68.129 712.277 66.0441L674.335 54.2697C670.744 53.1552 667.069 52.3319 663.345 51.8078L656.999 50.9145C644.612 49.171 632.919 44.1403 623.136 36.3457L619.45 33.4084V33.4084C607.725 26.4925 593.001 27.2598 582.058 35.357L563.162 49.3397C555.754 54.8219 546.781 57.7808 537.564 57.7808V57.7808C531.911 57.7808 526.314 58.8947 521.091 61.0587L519.615 61.6701C513.419 64.2378 506.777 65.5594 500.069 65.5594H496.673C487.598 65.5594 478.525 67.4101 470.161 70.9292V70.9292C459.213 75.5355 447.145 77.2986 435.344 75.9539L419.228 74.1175C411.683 73.2577 404.048 73.6315 396.623 75.2242L382.336 78.2885C373.627 80.1565 364.642 80.3452 355.862 78.8446L290.568 67.6843C282.355 66.2805 274.484 63.3269 267.375 58.981L250.296 48.5408C234.533 38.9049 214.229 41.271 201.104 54.2733V54.2733C196.043 59.2869 189.74 62.8636 182.84 64.6362L139.371 75.8034C133.68 77.2652 127.829 78.0049 121.953 78.0049H95.1686C90.8692 78.0049 86.5789 78.401 82.3522 79.1882L47.2654 85.7227C39.6758 87.1362 31.9046 87.2845 24.2665 86.1615L23.2319 86.0093Z" stroke="#99E39E" stroke-width="1.5"/>
<rect x="190" y="19" width="64" height="64" rx="32" fill="white" fill-opacity="0.1"/>
<mask id="mask0_2071_1055" style="mask-type:alpha" maskUnits="userSpaceOnUse" x="206" y="35" width="32" height="32">
<rect x="206" y="35" width="32" height="32" fill="#D9D9D9"/>
</mask>
<g mask="url(#mask0_2071_1055)">
<path d="M217.538 50.1287H219.128V42.5387H215.538V44.1287H217.538V50.1287ZM222.204 50.1287H226.615C226.95 50.1287 227.23 50.0158 227.456 49.79C227.681 49.5644 227.794 49.2841 227.794 48.949V46.9233C227.794 46.5884 227.681 46.3081 227.456 46.0823C227.23 45.8568 226.95 45.744 226.615 45.744H223.794V44.1287H227.794V42.5387H222.204V46.9233H226.204V48.5387H222.204V50.1287ZM214.204 59.462H215.794V53.462H217.538V57.462H219.128V53.462H220.871V59.462H222.461V53.0003C222.461 52.6739 222.355 52.4042 222.142 52.1913C221.929 51.9784 221.659 51.872 221.333 51.872H215.333C215.006 51.872 214.737 51.9784 214.524 52.1913C214.311 52.4042 214.204 52.6739 214.204 53.0003V59.462ZM224.204 59.462H225.794V57.462H228.666C228.992 57.462 229.262 57.3555 229.475 57.1427C229.688 56.9298 229.794 56.6601 229.794 56.3337V53.0003C229.794 52.6739 229.688 52.4042 229.475 52.1913C229.262 51.9784 228.992 51.872 228.666 51.872H224.204V59.462ZM225.794 55.872V53.462H228.204V55.872H225.794ZM213.076 62.3337C212.403 62.3337 211.833 62.1003 211.366 61.6337C210.899 61.167 210.666 60.5969 210.666 59.9233V42.0773C210.666 41.4038 210.899 40.8337 211.366 40.367C211.833 39.9003 212.403 39.667 213.076 39.667H230.922C231.596 39.667 232.166 39.9003 232.633 40.367C233.099 40.8337 233.333 41.4038 233.333 42.0773V59.9233C233.333 60.5969 233.099 61.167 232.633 61.6337C232.166 62.1003 231.596 62.3337 230.922 62.3337H213.076ZM213.076 60.3337H230.922C231.025 60.3337 231.119 60.2909 231.204 60.2053C231.29 60.12 231.333 60.026 231.333 59.9233V42.0773C231.333 41.9747 231.29 41.8807 231.204 41.7953C231.119 41.7098 231.025 41.667 230.922 41.667H213.076C212.974 41.667 212.88 41.7098 212.794 41.7953C212.709 41.8807 212.666 41.9747 212.666 42.0773V59.9233C212.666 60.026 212.709 60.12 212.794 60.2053C212.88 60.2909 212.974 60.3337 213.076 60.3337Z" fill="#99E39E"/>
</g>
<rect x="568" y="8" width="64" height="64" rx="32" fill="white" fill-opacity="0.1"/>
<mask id="mask1_2071_1055" style="mask-type:alpha" maskUnits="userSpaceOnUse" x="584" y="24" width="32" height="32">
<rect x="584" y="24" width="32" height="32" fill="#D9D9D9"/>
</mask>
<g mask="url(#mask1_2071_1055)">
<path d="M595.538 39.1287H597.128V31.5387H593.538V33.1287H595.538V39.1287ZM600.204 39.1287H604.615C604.95 39.1287 605.23 39.0158 605.456 38.79C605.681 38.5644 605.794 38.2841 605.794 37.949V35.9233C605.794 35.5884 605.681 35.3081 605.456 35.0823C605.23 34.8568 604.95 34.744 604.615 34.744H601.794V33.1287H605.794V31.5387H600.204V35.9233H604.204V37.5387H600.204V39.1287ZM592.204 48.462H593.794V42.462H595.538V46.462H597.128V42.462H598.871V48.462H600.461V42.0003C600.461 41.6739 600.355 41.4042 600.142 41.1913C599.929 40.9784 599.659 40.872 599.333 40.872H593.333C593.006 40.872 592.737 40.9784 592.524 41.1913C592.311 41.4042 592.204 41.6739 592.204 42.0003V48.462ZM602.204 48.462H603.794V46.462H606.666C606.992 46.462 607.262 46.3555 607.475 46.1427C607.688 45.9298 607.794 45.6601 607.794 45.3337V42.0003C607.794 41.6739 607.688 41.4042 607.475 41.1913C607.262 40.9784 606.992 40.872 606.666 40.872H602.204V48.462ZM603.794 44.872V42.462H606.204V44.872H603.794ZM591.076 51.3337C590.403 51.3337 589.833 51.1003 589.366 50.6337C588.899 50.167 588.666 49.5969 588.666 48.9233V31.0773C588.666 30.4038 588.899 29.8337 589.366 29.367C589.833 28.9003 590.403 28.667 591.076 28.667H608.922C609.596 28.667 610.166 28.9003 610.633 29.367C611.099 29.8337 611.333 30.4038 611.333 31.0773V48.9233C611.333 49.5969 611.099 50.167 610.633 50.6337C610.166 51.1003 609.596 51.3337 608.922 51.3337H591.076ZM591.076 49.3337H608.922C609.025 49.3337 609.119 49.2909 609.204 49.2053C609.29 49.12 609.333 49.026 609.333 48.9233V31.0773C609.333 30.9747 609.29 30.8807 609.204 30.7953C609.119 30.7098 609.025 30.667 608.922 30.667H591.076C590.974 30.667 590.88 30.7098 590.794 30.7953C590.709 30.8807 590.666 30.9747 590.666 31.0773V48.9233C590.666 49.026 590.709 49.12 590.794 49.2053C590.88 49.2909 590.974 49.3337 591.076 49.3337Z" fill="#99E39E"/>
</g>
<rect x="946" y="8" width="64" height="64" rx="32" fill="white" fill-opacity="0.1"/>
<mask id="mask2_2071_1055" style="mask-type:alpha" maskUnits="userSpaceOnUse" x="962" y="24" width="32" height="32">
<rect x="962" y="24" width="32" height="32" fill="#D9D9D9"/>
</mask>
<g mask="url(#mask2_2071_1055)">
<path d="M973.538 39.1287H975.128V31.5387H971.538V33.1287H973.538V39.1287ZM978.204 39.1287H982.615C982.95 39.1287 983.23 39.0158 983.456 38.79C983.681 38.5644 983.794 38.2841 983.794 37.949V35.9233C983.794 35.5884 983.681 35.3081 983.456 35.0823C983.23 34.8568 982.95 34.744 982.615 34.744H979.794V33.1287H983.794V31.5387H978.204V35.9233H982.204V37.5387H978.204V39.1287ZM970.204 48.462H971.794V42.462H973.538V46.462H975.128V42.462H976.871V48.462H978.461V42.0003C978.461 41.6739 978.355 41.4042 978.142 41.1913C977.929 40.9784 977.659 40.872 977.333 40.872H971.333C971.006 40.872 970.737 40.9784 970.524 41.1913C970.311 41.4042 970.204 41.6739 970.204 42.0003V48.462ZM980.204 48.462H981.794V46.462H984.666C984.992 46.462 985.262 46.3555 985.475 46.1427C985.688 45.9298 985.794 45.6601 985.794 45.3337V42.0003C985.794 41.6739 985.688 41.4042 985.475 41.1913C985.262 40.9784 984.992 40.872 984.666 40.872H980.204V48.462ZM981.794 44.872V42.462H984.204V44.872H981.794ZM969.076 51.3337C968.403 51.3337 967.833 51.1003 967.366 50.6337C966.899 50.167 966.666 49.5969 966.666 48.9233V31.0773C966.666 30.4038 966.899 29.8337 967.366 29.367C967.833 28.9003 968.403 28.667 969.076 28.667H986.922C987.596 28.667 988.166 28.9003 988.633 29.367C989.099 29.8337 989.333 30.4038 989.333 31.0773V48.9233C989.333 49.5969 989.099 50.167 988.633 50.6337C988.166 51.1003 987.596 51.3337 986.922 51.3337H969.076ZM969.076 49.3337H986.922C987.025 49.3337 987.119 49.2909 987.204 49.2053C987.29 49.12 987.333 49.026 987.333 48.9233V31.0773C987.333 30.9747 987.29 30.8807 987.204 30.7953C987.119 30.7098 987.025 30.667 986.922 30.667H969.076C968.974 30.667 968.88 30.7098 968.794 30.7953C968.709 30.8807 968.666 30.9747 968.666 31.0773V48.9233C968.666 49.026 968.709 49.12 968.794 49.2053C968.88 49.2909 968.974 49.3337 969.076 49.3337Z" fill="#99E39E"/>
</g>
</g>
<defs>
<linearGradient id="paint0_linear_2071_1055" x1="598" y1="-855.355" x2="598" y2="191.868" gradientUnits="userSpaceOnUse">
<stop stop-color="#99E39E"/>
<stop offset="1" stop-color="#99E39E" stop-opacity="0"/>
</linearGradient>
<clipPath id="clip0_2071_1055">
<rect width="1200" height="220" fill="white"/>
</clipPath>
</defs>
</svg>
