<svg width="20" height="20" viewBox="0 0 20 20" fill="none" xmlns="http://www.w3.org/2000/svg">
<mask id="mask0_1902_959" style="mask-type:alpha" maskUnits="userSpaceOnUse" x="0" y="0" width="20" height="20">
<rect width="20" height="20" fill="#D9D9D9"/>
</mask>
<g mask="url(#mask0_1902_959)">
<path d="M6.13727 13.9577H7.38706V9.99935H6.13727V13.9577ZM12.6116 13.9577H13.8614V5.83268H12.6116V13.9577ZM9.37435 13.9577H10.6243V11.666H9.37435V13.9577ZM9.37435 9.99935H10.6243V8.33268H9.37435V9.99935ZM4.42247 17.0827C4.0015 17.0827 3.64518 16.9368 3.35352 16.6452C3.06185 16.3535 2.91602 15.9972 2.91602 15.5762V4.42247C2.91602 4.0015 3.06185 3.64518 3.35352 3.35352C3.64518 3.06185 4.0015 2.91602 4.42247 2.91602H15.5762C15.9972 2.91602 16.3535 3.06185 16.6452 3.35352C16.9368 3.64518 17.0827 4.0015 17.0827 4.42247V15.5762C17.0827 15.9972 16.9368 16.3535 16.6452 16.6452C16.3535 16.9368 15.9972 17.0827 15.5762 17.0827H4.42247ZM4.42247 15.8327H15.5762C15.6404 15.8327 15.6991 15.8059 15.7525 15.7525C15.8059 15.6991 15.8327 15.6404 15.8327 15.5762V4.42247C15.8327 4.35831 15.8059 4.29956 15.7525 4.24622C15.6991 4.19275 15.6404 4.16602 15.5762 4.16602H4.42247C4.35831 4.16602 4.29956 4.19275 4.24622 4.24622C4.19275 4.29956 4.16602 4.35831 4.16602 4.42247V15.5762C4.16602 15.6404 4.19275 15.6991 4.24622 15.7525C4.29956 15.8059 4.35831 15.8327 4.42247 15.8327Z" fill="white"/>
</g>
</svg>
