<svg width="20" height="20" viewBox="0 0 20 20" fill="none" xmlns="http://www.w3.org/2000/svg">
<mask id="mask0_1902_1178" style="mask-type:alpha" maskUnits="userSpaceOnUse" x="0" y="0" width="20" height="20">
<rect width="20" height="20" fill="#D9D9D9"/>
</mask>
<g mask="url(#mask0_1902_1178)">
<path d="M4.42247 17.0827C4.0015 17.0827 3.64518 16.9368 3.35352 16.6452C3.06185 16.3535 2.91602 15.9972 2.91602 15.5762V4.42247C2.91602 4.0015 3.06185 3.64518 3.35352 3.35352C3.64518 3.06185 4.0015 2.91602 4.42247 2.91602H15.5762C15.9972 2.91602 16.3535 3.06185 16.6452 3.35352C16.9368 3.64518 17.0827 4.0015 17.0827 4.42247V4.99935H11.0891C10.2633 4.99935 9.59747 5.25234 9.09164 5.75831C8.58567 6.26414 8.33268 6.92997 8.33268 7.75581V12.2429C8.33268 13.0687 8.58567 13.7346 9.09164 14.2404C9.59747 14.7464 10.2633 14.9993 11.0891 14.9993H17.0827V15.5762C17.0827 15.9972 16.9368 16.3535 16.6452 16.6452C16.3535 16.9368 15.9972 17.0827 15.5762 17.0827H4.42247ZM11.0891 13.7493C10.6682 13.7493 10.3118 13.6035 10.0202 13.3118C9.72852 13.0202 9.58268 12.6639 9.58268 12.2429V7.75581C9.58268 7.33484 9.72852 6.97852 10.0202 6.68685C10.3118 6.39518 10.6682 6.24935 11.0891 6.24935H16.4096C16.8305 6.24935 17.1868 6.39518 17.4785 6.68685C17.7702 6.97852 17.916 7.33484 17.916 7.75581V12.2429C17.916 12.6639 17.7702 13.0202 17.4785 13.3118C17.1868 13.6035 16.8305 13.7493 16.4096 13.7493H11.0891ZM13.3327 11.2493C13.6938 11.2493 13.9924 11.1313 14.2285 10.8952C14.4646 10.6591 14.5827 10.3605 14.5827 9.99935C14.5827 9.63824 14.4646 9.33963 14.2285 9.10352C13.9924 8.8674 13.6938 8.74935 13.3327 8.74935C12.9716 8.74935 12.673 8.8674 12.4368 9.10352C12.2007 9.33963 12.0827 9.63824 12.0827 9.99935C12.0827 10.3605 12.2007 10.6591 12.4368 10.8952C12.673 11.1313 12.9716 11.2493 13.3327 11.2493Z" fill="#9BE4A0"/>
</g>
</svg>
