<svg width="1500" height="372" viewBox="0 0 1500 370" fill="none" xmlns="http://www.w3.org/2000/svg">
<path d="M19.2002 75.7823H6.68093H-6.97656V210.211H1203.99V88.8728L1124.89 49.0978L1079.37 55.6431L1049.77 49.0978L1017.34 55.6431L976.246 22.8537L922.872 55.6431L847.186 63.6988L810.196 49.0978L757.274 60.1744H723.698L670.207 44.0631L638.871 40.2927L620.699 25.4343L601.351 14.3577L552.98 49.0978H530.218L511.439 56.6501H484.124L454.533 68.7336L409.008 63.6988L370.312 71.7544L279.262 56.6501L224.751 25.0894L194.472 53.1257L131.874 68.7336H89.7635L36.8412 78.2997L19.2002 75.7823Z" fill="url(#paint0_linear_1770_589)"/>
<path d="M23.2656 78.0413C19.9096 77.5502 16.5223 77.3037 13.1305 77.3037H5.69531V77.3037C-2.15494 77.3037 -8.81768 83.0606 -9.95676 90.8278L-18.2448 147.343C-24.4411 189.594 8.31108 227.5 51.0144 227.5H1148.64C1194.24 227.5 1227.67 184.59 1216.51 140.372L1211.71 121.354C1206.8 101.888 1193.77 85.4679 1175.92 76.2667L1144.84 60.2385C1131.83 53.5275 1117.03 51.0667 1102.55 53.2024L1092.2 54.7281C1083.65 55.9887 1074.94 55.6549 1066.51 53.7434L1060 52.2664C1053.17 50.7188 1046.09 50.6519 1039.24 52.0702L1038.15 52.2971C1024.84 55.0506 1011 51.8526 1000.25 43.5426V43.5426C984.665 31.4936 963.182 30.5625 946.614 41.2178L935.553 48.3309C927.061 53.7924 917.415 57.2056 907.378 58.3011L864.413 62.9904C852.912 64.2457 841.278 62.6306 830.554 58.2896L829.803 57.9854C816.815 52.7284 802.549 51.4898 788.849 54.43L764.168 59.7271C759.34 60.7633 754.416 61.2857 749.479 61.2857H733.867C726.864 61.2857 719.9 60.2349 713.21 58.1683L675.142 46.411C671.565 45.3061 667.904 44.49 664.196 43.9706L657.73 43.0647C645.381 41.3348 633.719 36.3379 623.949 28.5906L620.219 25.6328V25.6328C608.471 18.7362 593.744 19.5022 582.775 27.5805L563.886 41.4911C556.453 46.9652 547.464 49.918 538.233 49.918V49.918C532.575 49.918 526.972 51.0281 521.741 53.1853L520.266 53.7934C514.062 56.3521 507.415 57.6688 500.704 57.6688H497.296C488.21 57.6688 479.128 59.5125 470.747 63.0219V63.0219C459.786 67.612 447.716 69.3667 435.908 68.0276L419.693 66.1887C412.183 65.337 404.584 65.7073 397.192 67.2853L382.749 70.3685C374.079 72.2193 365.136 72.4063 356.396 70.9196L290.944 59.7855C282.723 58.387 274.842 55.4427 267.718 51.1084L250.584 40.6845C234.813 31.0892 214.536 33.4493 201.391 46.4107V46.4107C196.315 51.4149 190.002 54.9821 183.096 56.7477L139.524 67.8882C133.858 69.3369 128.033 70.0698 122.184 70.0698H95.2789C90.9995 70.0698 86.7291 70.4622 82.5214 71.2421L47.2907 77.7723C39.7354 79.1727 32.0011 79.3196 24.3981 78.207L23.2656 78.0413Z" stroke="#99E39E" stroke-width="1.5"/>
<rect x="190" y="11" width="64" height="64" rx="32" fill="white" fill-opacity="0.1"/>
<mask id="mask0_1770_589" style="mask-type:alpha" maskUnits="userSpaceOnUse" x="206" y="27" width="32" height="32">
<rect x="206" y="27" width="32" height="32" fill="#D9D9D9"/>
</mask>
<g mask="url(#mask0_1770_589)">
<path d="M217.539 42.1283H219.129V34.5383H215.539V36.1283H217.539V42.1283ZM222.205 42.1283H226.616C226.951 42.1283 227.231 42.0154 227.457 41.7896C227.682 41.5641 227.795 41.2837 227.795 40.9486V38.923C227.795 38.5881 227.682 38.3077 227.457 38.082C227.231 37.8564 226.951 37.7436 226.616 37.7436H223.795V36.1283H227.795V34.5383H222.205V38.923H226.205V40.5383H222.205V42.1283ZM214.205 51.4616H215.795V45.4616H217.539V49.4616H219.129V45.4616H220.872V51.4616H222.462V45C222.462 44.6735 222.356 44.4038 222.143 44.191C221.93 43.9781 221.66 43.8716 221.334 43.8716H215.334C215.007 43.8716 214.738 43.9781 214.525 44.191C214.312 44.4038 214.205 44.6735 214.205 45V51.4616ZM224.205 51.4616H225.795V49.4616H228.667C228.993 49.4616 229.263 49.3552 229.476 49.1423C229.689 48.9294 229.795 48.6597 229.795 48.3333V45C229.795 44.6735 229.689 44.4038 229.476 44.191C229.263 43.9781 228.993 43.8716 228.667 43.8716H224.205V51.4616ZM225.795 47.8716V45.4616H228.205V47.8716H225.795ZM213.077 54.3333C212.404 54.3333 211.834 54.1 211.367 53.6333C210.9 53.1666 210.667 52.5965 210.667 51.923V34.077C210.667 33.4034 210.9 32.8333 211.367 32.3666C211.834 31.9 212.404 31.6666 213.077 31.6666H230.923C231.597 31.6666 232.167 31.9 232.634 32.3666C233.1 32.8333 233.334 33.4034 233.334 34.077V51.923C233.334 52.5965 233.1 53.1666 232.634 53.6333C232.167 54.1 231.597 54.3333 230.923 54.3333H213.077ZM213.077 52.3333H230.923C231.026 52.3333 231.12 52.2905 231.205 52.205C231.291 52.1196 231.334 52.0256 231.334 51.923V34.077C231.334 33.9743 231.291 33.8803 231.205 33.795C231.12 33.7094 231.026 33.6666 230.923 33.6666H213.077C212.975 33.6666 212.881 33.7094 212.795 33.795C212.71 33.8803 212.667 33.9743 212.667 34.077V51.923C212.667 52.0256 212.71 52.1196 212.795 52.205C212.881 52.2905 212.975 52.3333 213.077 52.3333Z" fill="#99E39E"/>
</g>
<path d="M201.04 114.24C200.013 114.24 199.113 114.06 198.34 113.7C197.567 113.327 196.967 112.807 196.54 112.14C196.113 111.473 195.9 110.693 195.9 109.8H198C198.013 110.307 198.133 110.773 198.36 111.2C198.6 111.613 198.94 111.947 199.38 112.2C199.833 112.44 200.387 112.56 201.04 112.56C201.6 112.56 202.08 112.467 202.48 112.28C202.893 112.093 203.207 111.84 203.42 111.52C203.633 111.187 203.74 110.807 203.74 110.38C203.74 109.887 203.627 109.48 203.4 109.16C203.173 108.84 202.867 108.58 202.48 108.38C202.107 108.167 201.667 107.98 201.16 107.82C200.667 107.66 200.147 107.487 199.6 107.3C198.493 106.94 197.667 106.473 197.12 105.9C196.587 105.327 196.32 104.58 196.32 103.66C196.32 102.873 196.507 102.193 196.88 101.62C197.253 101.033 197.773 100.58 198.44 100.26C199.12 99.9267 199.92 99.76 200.84 99.76C201.747 99.76 202.54 99.9267 203.22 100.26C203.9 100.593 204.433 101.053 204.82 101.64C205.207 102.227 205.4 102.913 205.4 103.7H203.28C203.28 103.34 203.187 102.987 203 102.64C202.813 102.293 202.533 102.013 202.16 101.8C201.787 101.573 201.327 101.46 200.78 101.46C200.327 101.447 199.92 101.52 199.56 101.68C199.2 101.84 198.92 102.073 198.72 102.38C198.52 102.687 198.42 103.053 198.42 103.48C198.42 103.907 198.507 104.253 198.68 104.52C198.867 104.773 199.133 104.993 199.48 105.18C199.827 105.367 200.227 105.54 200.68 105.7C201.147 105.847 201.66 106.013 202.22 106.2C202.913 106.427 203.527 106.707 204.06 107.04C204.607 107.36 205.033 107.78 205.34 108.3C205.66 108.807 205.82 109.46 205.82 110.26C205.82 110.953 205.64 111.6 205.28 112.2C204.92 112.8 204.387 113.293 203.68 113.68C202.973 114.053 202.093 114.24 201.04 114.24ZM211.858 114C211.218 114 210.665 113.9 210.198 113.7C209.732 113.5 209.372 113.167 209.118 112.7C208.865 112.233 208.738 111.6 208.738 110.8V105.62H206.998V103.92H208.738L208.978 101.4H210.738V103.92H213.598V105.62H210.738V110.82C210.738 111.393 210.858 111.787 211.098 112C211.338 112.2 211.752 112.3 212.338 112.3H213.498V114H211.858ZM219.69 114.24C218.73 114.24 217.877 114.02 217.13 113.58C216.384 113.14 215.797 112.527 215.37 111.74C214.957 110.953 214.75 110.04 214.75 109C214.75 107.933 214.957 107.007 215.37 106.22C215.797 105.42 216.384 104.8 217.13 104.36C217.877 103.907 218.744 103.68 219.73 103.68C220.717 103.68 221.564 103.9 222.27 104.34C222.977 104.78 223.524 105.367 223.91 106.1C224.297 106.82 224.49 107.62 224.49 108.5C224.49 108.633 224.484 108.78 224.47 108.94C224.47 109.087 224.464 109.253 224.45 109.44H216.21V108.02H222.49C222.45 107.18 222.17 106.527 221.65 106.06C221.13 105.58 220.484 105.34 219.71 105.34C219.164 105.34 218.664 105.467 218.21 105.72C217.757 105.96 217.39 106.32 217.11 106.8C216.844 107.267 216.71 107.86 216.71 108.58V109.14C216.71 109.887 216.844 110.52 217.11 111.04C217.39 111.547 217.757 111.933 218.21 112.2C218.664 112.453 219.157 112.58 219.69 112.58C220.33 112.58 220.857 112.44 221.27 112.16C221.684 111.88 221.99 111.5 222.19 111.02H224.19C224.017 111.633 223.724 112.187 223.31 112.68C222.897 113.16 222.384 113.54 221.77 113.82C221.17 114.1 220.477 114.24 219.69 114.24ZM226.312 118.4V103.92H228.112L228.312 105.48C228.526 105.173 228.792 104.887 229.112 104.62C229.432 104.34 229.812 104.113 230.252 103.94C230.706 103.767 231.232 103.68 231.832 103.68C232.792 103.68 233.632 103.913 234.352 104.38C235.086 104.847 235.652 105.48 236.052 106.28C236.466 107.067 236.672 107.967 236.672 108.98C236.672 109.993 236.466 110.9 236.052 111.7C235.639 112.487 235.066 113.107 234.332 113.56C233.612 114.013 232.772 114.24 231.812 114.24C231.026 114.24 230.332 114.087 229.732 113.78C229.132 113.46 228.659 113.02 228.312 112.46V118.4H226.312ZM231.492 112.5C232.106 112.5 232.646 112.353 233.112 112.06C233.592 111.767 233.966 111.353 234.232 110.82C234.512 110.287 234.652 109.667 234.652 108.96C234.652 108.253 234.512 107.64 234.232 107.12C233.966 106.587 233.592 106.173 233.112 105.88C232.646 105.573 232.106 105.42 231.492 105.42C230.866 105.42 230.312 105.573 229.832 105.88C229.366 106.173 228.999 106.587 228.732 107.12C228.466 107.64 228.332 108.253 228.332 108.96C228.332 109.667 228.466 110.287 228.732 110.82C228.999 111.353 229.366 111.767 229.832 112.06C230.312 112.353 230.866 112.5 231.492 112.5ZM245.025 114V102.26L242.585 102.88V101.38L245.765 100H247.065V114H245.025Z" fill="white"/>
<path d="M110.895 142.96V144H103.999V132.512H110.783V133.552H105.199V137.552H110.303V138.592H105.199V142.96H110.895ZM114.164 139.088V144H113.044V135.568H114.084V137.152C114.628 136.112 115.652 135.408 116.868 135.408C118.628 135.408 119.764 136.528 119.764 138.528V144H118.644V138.912C118.644 137.296 117.908 136.384 116.532 136.384C115.22 136.384 114.164 137.52 114.164 139.088ZM126.443 142.928V143.92C126.011 144.096 125.643 144.16 125.227 144.16C123.835 144.16 122.763 143.44 122.763 141.616V136.512H120.779V135.568H122.763V133.072H123.883V135.568H126.523V136.512H123.883V141.376C123.883 142.688 124.523 143.136 125.451 143.136C125.803 143.136 126.091 143.072 126.443 142.928ZM131.262 144.16C128.894 144.16 127.326 142.384 127.326 139.712C127.326 137.248 128.958 135.408 131.198 135.408C133.598 135.408 135.166 137.344 134.974 140.048H128.446C128.542 142.048 129.598 143.28 131.246 143.28C132.654 143.28 133.63 142.496 133.902 141.152H135.006C134.622 143.024 133.198 144.16 131.262 144.16ZM131.182 136.272C129.662 136.272 128.59 137.44 128.446 139.28H133.806C133.71 137.392 132.734 136.272 131.182 136.272ZM137.945 139.488V144H136.825V135.568H137.865V137.488C138.441 136.24 139.689 135.44 141.081 135.44V136.608C139.305 136.544 137.945 137.648 137.945 139.488ZM150.13 142.928V143.92C149.698 144.096 149.33 144.16 148.914 144.16C147.522 144.16 146.45 143.44 146.45 141.616V136.512H144.466V135.568H146.45V133.072H147.57V135.568H150.21V136.512H147.57V141.376C147.57 142.688 148.21 143.136 149.138 143.136C149.49 143.136 149.778 143.072 150.13 142.928ZM153.024 139.088V144H151.904V132.512H153.024V137.12C153.552 136.112 154.512 135.408 155.728 135.408C157.488 135.408 158.624 136.528 158.624 138.528V144H157.504V138.912C157.504 137.296 156.768 136.384 155.391 136.384C154.08 136.384 153.024 137.52 153.024 139.088ZM164.294 144.16C161.926 144.16 160.358 142.384 160.358 139.712C160.358 137.248 161.99 135.408 164.23 135.408C166.63 135.408 168.198 137.344 168.006 140.048H161.478C161.574 142.048 162.63 143.28 164.278 143.28C165.686 143.28 166.662 142.496 166.934 141.152H168.038C167.654 143.024 166.23 144.16 164.294 144.16ZM164.214 136.272C162.694 136.272 161.622 137.44 161.478 139.28H166.838C166.742 137.392 165.766 136.272 164.214 136.272ZM180.224 144L178.016 137.056L175.824 144H174.688L172.224 135.568H173.328L175.28 142.416L177.472 135.568H178.576L180.752 142.432L182.704 135.568H183.824L181.344 144H180.224ZM190.213 144V142.464C189.717 143.52 188.693 144.16 187.381 144.16C185.637 144.16 184.501 143.184 184.501 141.664C184.501 140.016 185.812 139.152 188.373 139.152C188.885 139.152 189.269 139.184 190.101 139.248V138.544C190.101 137.136 189.349 136.304 188.069 136.304C186.693 136.304 185.829 137.152 185.812 138.528H184.789C184.837 136.656 186.133 135.408 188.053 135.408C190.021 135.408 191.173 136.56 191.173 138.512V144H190.213ZM185.573 141.632C185.573 142.656 186.357 143.344 187.541 143.344C189.109 143.344 190.101 142.32 190.101 140.736V139.984C189.381 139.92 188.885 139.904 188.421 139.904C186.501 139.904 185.573 140.464 185.573 141.632ZM194.649 144H193.529V132.512H194.649V144ZM198.195 144H197.075V132.512H198.195V144ZM203.934 144.16C201.566 144.16 199.998 142.384 199.998 139.712C199.998 137.248 201.63 135.408 203.87 135.408C206.27 135.408 207.838 137.344 207.646 140.048H201.118C201.214 142.048 202.27 143.28 203.918 143.28C205.326 143.28 206.302 142.496 206.574 141.152H207.678C207.294 143.024 205.87 144.16 203.934 144.16ZM203.854 136.272C202.334 136.272 201.262 137.44 201.118 139.28H206.478C206.382 137.392 205.406 136.272 203.854 136.272ZM213.818 142.928V143.92C213.386 144.096 213.018 144.16 212.602 144.16C211.21 144.16 210.138 143.44 210.138 141.616V136.512H208.154V135.568H210.138V133.072H211.258V135.568H213.898V136.512H211.258V141.376C211.258 142.688 211.898 143.136 212.826 143.136C213.178 143.136 213.466 143.072 213.818 142.928ZM224.119 144V142.464C223.623 143.52 222.599 144.16 221.287 144.16C219.543 144.16 218.407 143.184 218.407 141.664C218.407 140.016 219.719 139.152 222.279 139.152C222.791 139.152 223.175 139.184 224.007 139.248V138.544C224.007 137.136 223.255 136.304 221.975 136.304C220.599 136.304 219.735 137.152 219.719 138.528H218.695C218.743 136.656 220.039 135.408 221.959 135.408C223.927 135.408 225.079 136.56 225.079 138.512V144H224.119ZM219.479 141.632C219.479 142.656 220.263 143.344 221.447 143.344C223.015 143.344 224.007 142.32 224.007 140.736V139.984C223.287 139.92 222.791 139.904 222.327 139.904C220.407 139.904 219.479 140.464 219.479 141.632ZM226.811 139.776C226.811 137.184 228.251 135.408 230.523 135.408C231.787 135.408 232.859 136.128 233.419 137.328V132.512H234.539V144H233.499V142.224C232.907 143.456 231.819 144.16 230.523 144.16C228.251 144.16 226.811 142.368 226.811 139.776ZM227.947 139.776C227.947 141.92 229.035 143.184 230.683 143.184C232.315 143.184 233.435 141.856 233.435 139.744C233.435 137.616 232.283 136.384 230.683 136.384C229.035 136.384 227.947 137.632 227.947 139.776ZM236.342 139.776C236.342 137.184 237.782 135.408 240.054 135.408C241.318 135.408 242.39 136.128 242.95 137.328V132.512H244.07V144H243.03V142.224C242.438 143.456 241.35 144.16 240.054 144.16C237.782 144.16 236.342 142.368 236.342 139.776ZM237.478 139.776C237.478 141.92 238.566 143.184 240.214 143.184C241.846 143.184 242.966 141.856 242.966 139.744C242.966 137.616 241.814 136.384 240.214 136.384C238.566 136.384 237.478 137.632 237.478 139.776ZM247.617 139.488V144H246.497V135.568H247.537V137.488C248.113 136.24 249.361 135.44 250.753 135.44V136.608C248.977 136.544 247.617 137.648 247.617 139.488ZM255.419 144.16C253.051 144.16 251.483 142.384 251.483 139.712C251.483 137.248 253.115 135.408 255.355 135.408C257.755 135.408 259.323 137.344 259.131 140.048H252.603C252.699 142.048 253.755 143.28 255.403 143.28C256.811 143.28 257.787 142.496 258.059 141.152H259.163C258.779 143.024 257.355 144.16 255.419 144.16ZM255.339 136.272C253.819 136.272 252.747 137.44 252.603 139.28H257.963C257.867 137.392 256.891 136.272 255.339 136.272ZM267.286 141.648C267.286 143.2 266.038 144.16 263.958 144.16C261.862 144.16 260.582 143.104 260.422 141.36H261.494C261.574 142.56 262.518 143.312 263.958 143.312C265.334 143.312 266.166 142.784 266.166 141.824C266.166 140.992 265.686 140.608 264.406 140.352L263.19 140.112C261.59 139.808 260.742 139.024 260.742 137.808C260.742 136.4 261.99 135.408 263.83 135.408C265.766 135.408 267.046 136.448 267.174 138.128H266.118C266.006 136.96 265.158 136.272 263.83 136.272C262.646 136.272 261.83 136.832 261.83 137.712C261.83 138.544 262.342 138.944 263.59 139.184L264.854 139.424C266.534 139.744 267.286 140.448 267.286 141.648ZM275.536 141.648C275.536 143.2 274.288 144.16 272.208 144.16C270.112 144.16 268.832 143.104 268.672 141.36H269.744C269.824 142.56 270.768 143.312 272.208 143.312C273.584 143.312 274.416 142.784 274.416 141.824C274.416 140.992 273.936 140.608 272.656 140.352L271.44 140.112C269.84 139.808 268.992 139.024 268.992 137.808C268.992 136.4 270.24 135.408 272.08 135.408C274.016 135.408 275.296 136.448 275.424 138.128H274.368C274.256 136.96 273.408 136.272 272.08 136.272C270.896 136.272 270.08 136.832 270.08 137.712C270.08 138.544 270.592 138.944 271.84 139.184L273.104 139.424C274.784 139.744 275.536 140.448 275.536 141.648ZM284.201 144.16C281.881 144.16 280.201 142.32 280.201 139.776C280.201 137.248 281.881 135.424 284.201 135.424C286.537 135.424 288.217 137.248 288.217 139.776C288.217 142.32 286.537 144.16 284.201 144.16ZM284.201 143.184C285.849 143.184 287.081 141.872 287.081 139.776C287.081 137.712 285.849 136.4 284.201 136.4C282.569 136.4 281.337 137.712 281.337 139.776C281.337 141.872 282.569 143.184 284.201 143.184ZM291.149 139.488V144H290.029V135.568H291.069V137.488C291.645 136.24 292.893 135.44 294.285 135.44V136.608C292.509 136.544 291.149 137.648 291.149 139.488ZM305.301 141.648C305.301 143.2 304.053 144.16 301.973 144.16C299.877 144.16 298.597 143.104 298.437 141.36H299.509C299.589 142.56 300.533 143.312 301.973 143.312C303.349 143.312 304.181 142.784 304.181 141.824C304.181 140.992 303.701 140.608 302.421 140.352L301.205 140.112C299.605 139.808 298.757 139.024 298.757 137.808C298.757 136.4 300.005 135.408 301.845 135.408C303.781 135.408 305.061 136.448 305.189 138.128H304.133C304.021 136.96 303.173 136.272 301.845 136.272C300.661 136.272 299.845 136.832 299.845 137.712C299.845 138.544 300.357 138.944 301.605 139.184L302.869 139.424C304.549 139.744 305.301 140.448 305.301 141.648ZM308.367 144H307.247V135.568H308.287V137.152C308.847 136.064 309.839 135.408 311.039 135.408C312.351 135.408 313.327 136.128 313.679 137.36C314.207 136.176 315.263 135.408 316.591 135.408C318.335 135.408 319.423 136.56 319.423 138.528V144H318.319V138.896C318.319 137.296 317.583 136.384 316.223 136.384C314.943 136.384 313.903 137.504 313.903 139.056V144H312.783V138.896C312.783 137.296 312.047 136.384 310.687 136.384C309.391 136.384 308.367 137.504 308.367 139.056V144ZM326.963 144V142.464C326.467 143.52 325.443 144.16 324.131 144.16C322.387 144.16 321.251 143.184 321.251 141.664C321.251 140.016 322.562 139.152 325.123 139.152C325.635 139.152 326.019 139.184 326.851 139.248V138.544C326.851 137.136 326.099 136.304 324.819 136.304C323.443 136.304 322.579 137.152 322.562 138.528H321.539C321.587 136.656 322.883 135.408 324.803 135.408C326.771 135.408 327.923 136.56 327.923 138.512V144H326.963ZM322.323 141.632C322.323 142.656 323.107 143.344 324.291 143.344C325.859 143.344 326.851 142.32 326.851 140.736V139.984C326.131 139.92 325.635 139.904 325.171 139.904C323.251 139.904 322.323 140.464 322.323 141.632ZM331.399 139.488V144H330.279V135.568H331.319V137.488C331.895 136.24 333.143 135.44 334.535 135.44V136.608C332.759 136.544 331.399 137.648 331.399 139.488ZM340.74 142.928V143.92C340.308 144.096 339.94 144.16 339.524 144.16C338.132 144.16 337.06 143.44 337.06 141.616V136.512H335.075V135.568H337.06V133.072H338.18V135.568H340.82V136.512H338.18V141.376C338.18 142.688 338.82 143.136 339.748 143.136C340.1 143.136 340.388 143.072 340.74 142.928ZM128.743 166.176C126.519 166.176 124.967 164.368 124.967 161.776C124.967 159.216 126.535 157.408 128.743 157.408C130.711 157.408 132.119 158.72 132.455 160.832H131.319C131.063 159.296 130.103 158.384 128.743 158.384C127.175 158.384 126.103 159.76 126.103 161.776C126.103 163.824 127.175 165.2 128.743 165.2C130.119 165.2 131.063 164.304 131.319 162.736H132.455C132.151 164.88 130.727 166.176 128.743 166.176ZM137.53 166.16C135.21 166.16 133.53 164.32 133.53 161.776C133.53 159.248 135.21 157.424 137.53 157.424C139.866 157.424 141.546 159.248 141.546 161.776C141.546 164.32 139.866 166.16 137.53 166.16ZM137.53 165.184C139.178 165.184 140.41 163.872 140.41 161.776C140.41 159.712 139.178 158.4 137.53 158.4C135.898 158.4 134.666 159.712 134.666 161.776C134.666 163.872 135.898 165.184 137.53 165.184ZM144.477 161.088V166H143.357V157.568H144.397V159.152C144.941 158.112 145.965 157.408 147.181 157.408C148.941 157.408 150.077 158.528 150.077 160.528V166H148.957V160.912C148.957 159.296 148.221 158.384 146.845 158.384C145.533 158.384 144.477 159.52 144.477 161.088ZM156.755 164.928V165.92C156.323 166.096 155.955 166.16 155.539 166.16C154.147 166.16 153.075 165.44 153.075 163.616V158.512H151.091V157.568H153.075V155.072H154.195V157.568H156.835V158.512H154.195V163.376C154.195 164.688 154.835 165.136 155.763 165.136C156.115 165.136 156.403 165.072 156.755 164.928ZM159.649 161.488V166H158.529V157.568H159.569V159.488C160.145 158.24 161.393 157.44 162.785 157.44V158.608C161.009 158.544 159.649 159.648 159.649 161.488ZM169.338 166V164.464C168.842 165.52 167.818 166.16 166.506 166.16C164.762 166.16 163.626 165.184 163.626 163.664C163.626 162.016 164.938 161.152 167.498 161.152C168.01 161.152 168.394 161.184 169.226 161.248V160.544C169.226 159.136 168.474 158.304 167.194 158.304C165.818 158.304 164.954 159.152 164.938 160.528H163.914C163.962 158.656 165.258 157.408 167.178 157.408C169.146 157.408 170.298 158.56 170.298 160.512V166H169.338ZM164.698 163.632C164.698 164.656 165.482 165.344 166.666 165.344C168.234 165.344 169.226 164.32 169.226 162.736V161.984C168.506 161.92 168.01 161.904 167.546 161.904C165.626 161.904 164.698 162.464 164.698 163.632ZM175.806 166.176C173.582 166.176 172.03 164.368 172.03 161.776C172.03 159.216 173.598 157.408 175.806 157.408C177.774 157.408 179.182 158.72 179.517 160.832H178.382C178.126 159.296 177.166 158.384 175.806 158.384C174.238 158.384 173.166 159.76 173.166 161.776C173.166 163.824 174.238 165.2 175.806 165.2C177.182 165.2 178.126 164.304 178.382 162.736H179.517C179.214 164.88 177.79 166.176 175.806 166.176ZM185.661 164.928V165.92C185.229 166.096 184.861 166.16 184.445 166.16C183.053 166.16 181.981 165.44 181.981 163.616V158.512H179.997V157.568H181.981V155.072H183.101V157.568H185.741V158.512H183.101V163.376C183.101 164.688 183.741 165.136 184.669 165.136C185.021 165.136 185.309 165.072 185.661 164.928ZM197.275 157.568L192.955 169.088H191.755L192.987 165.888L189.643 157.568H190.843L193.562 164.544L196.139 157.568H197.275ZM201.701 166.16C199.381 166.16 197.701 164.32 197.701 161.776C197.701 159.248 199.381 157.424 201.701 157.424C204.037 157.424 205.717 159.248 205.717 161.776C205.717 164.32 204.037 166.16 201.701 166.16ZM201.701 165.184C203.349 165.184 204.581 163.872 204.581 161.776C204.581 159.712 203.349 158.4 201.701 158.4C200.069 158.4 198.837 159.712 198.837 161.776C198.837 163.872 200.069 165.184 201.701 165.184ZM212.921 162.592V157.568H214.025V166H212.985V164.48C212.553 165.456 211.529 166.16 210.297 166.16C208.585 166.16 207.449 165.184 207.449 163.056V157.568H208.569V162.816C208.569 164.528 209.417 165.184 210.601 165.184C211.945 165.184 212.921 164.096 212.921 162.592ZM226.818 166L224.61 159.056L222.418 166H221.282L218.818 157.568H219.922L221.874 164.416L224.066 157.568H225.17L227.346 164.432L229.298 157.568H230.418L227.938 166H226.818ZM233.328 155.616C233.328 156.112 232.96 156.464 232.416 156.464C231.888 156.464 231.52 156.112 231.52 155.616C231.52 155.136 231.888 154.784 232.416 154.784C232.96 154.784 233.328 155.136 233.328 155.616ZM232.992 166H231.872V157.568H232.992V166ZM241.723 163.648C241.723 165.2 240.475 166.16 238.395 166.16C236.299 166.16 235.019 165.104 234.859 163.36H235.931C236.011 164.56 236.955 165.312 238.395 165.312C239.771 165.312 240.603 164.784 240.603 163.824C240.603 162.992 240.123 162.608 238.843 162.352L237.627 162.112C236.027 161.808 235.179 161.024 235.179 159.808C235.179 158.4 236.427 157.408 238.267 157.408C240.203 157.408 241.483 158.448 241.611 160.128H240.555C240.443 158.96 239.595 158.272 238.267 158.272C237.083 158.272 236.267 158.832 236.267 159.712C236.267 160.544 236.779 160.944 238.027 161.184L239.291 161.424C240.971 161.744 241.723 162.448 241.723 163.648ZM244.789 161.088V166H243.669V154.512H244.789V159.12C245.317 158.112 246.277 157.408 247.493 157.408C249.253 157.408 250.389 158.528 250.389 160.528V166H249.269V160.912C249.269 159.296 248.533 158.384 247.157 158.384C245.845 158.384 244.789 159.52 244.789 161.088ZM260.427 164.928V165.92C259.995 166.096 259.627 166.16 259.211 166.16C257.819 166.16 256.747 165.44 256.747 163.616V158.512H254.763V157.568H256.747V155.072H257.867V157.568H260.507V158.512H257.867V163.376C257.867 164.688 258.507 165.136 259.435 165.136C259.787 165.136 260.075 165.072 260.427 164.928ZM265.311 166.16C262.991 166.16 261.311 164.32 261.311 161.776C261.311 159.248 262.991 157.424 265.311 157.424C267.647 157.424 269.327 159.248 269.327 161.776C269.327 164.32 267.647 166.16 265.311 166.16ZM265.311 165.184C266.959 165.184 268.191 163.872 268.191 161.776C268.191 159.712 266.959 158.4 265.311 158.4C263.679 158.4 262.447 159.712 262.447 161.776C262.447 163.872 263.679 165.184 265.311 165.184ZM275.602 161.488V166H274.482V157.568H275.522V159.488C276.098 158.24 277.346 157.44 278.738 157.44V158.608C276.962 158.544 275.602 159.648 275.602 161.488ZM283.403 166.16C281.035 166.16 279.467 164.384 279.467 161.712C279.467 159.248 281.099 157.408 283.339 157.408C285.739 157.408 287.307 159.344 287.115 162.048H280.587C280.683 164.048 281.739 165.28 283.387 165.28C284.795 165.28 285.771 164.496 286.043 163.152H287.147C286.763 165.024 285.339 166.16 283.403 166.16ZM283.323 158.272C281.803 158.272 280.731 159.44 280.587 161.28H285.947C285.851 159.392 284.875 158.272 283.323 158.272ZM295.212 157.568L291.964 166H290.796L287.58 157.568H288.78L291.42 164.688L294.06 157.568H295.212ZM297.969 155.616C297.969 156.112 297.601 156.464 297.057 156.464C296.529 156.464 296.161 156.112 296.161 155.616C296.161 155.136 296.529 154.784 297.057 154.784C297.601 154.784 297.969 155.136 297.969 155.616ZM297.633 166H296.513V157.568H297.633V166ZM303.372 166.16C301.004 166.16 299.436 164.384 299.436 161.712C299.436 159.248 301.068 157.408 303.308 157.408C305.708 157.408 307.276 159.344 307.084 162.048H300.556C300.652 164.048 301.708 165.28 303.356 165.28C304.764 165.28 305.74 164.496 306.012 163.152H307.116C306.732 165.024 305.308 166.16 303.372 166.16ZM303.292 158.272C301.772 158.272 300.7 159.44 300.556 161.28H305.916C305.82 159.392 304.844 158.272 303.292 158.272ZM315.787 166L313.579 159.056L311.387 166H310.251L307.787 157.568H308.891L310.843 164.416L313.035 157.568H314.139L316.315 164.432L318.267 157.568H319.387L316.907 166H315.787Z" fill="white" fill-opacity="0.6"/>
<rect x="568" width="64" height="64" rx="32" fill="white" fill-opacity="0.1"/>
<mask id="mask1_1770_589" style="mask-type:alpha" maskUnits="userSpaceOnUse" x="584" y="16" width="32" height="32">
<rect x="584" y="16" width="32" height="32" fill="#D9D9D9"/>
</mask>
<g mask="url(#mask1_1770_589)">
<path d="M595.539 31.1283H597.129V23.5383H593.539V25.1283H595.539V31.1283ZM600.205 31.1283H604.616C604.951 31.1283 605.231 31.0154 605.457 30.7896C605.682 30.5641 605.795 30.2837 605.795 29.9486V27.923C605.795 27.5881 605.682 27.3077 605.457 27.082C605.231 26.8564 604.951 26.7436 604.616 26.7436H601.795V25.1283H605.795V23.5383H600.205V27.923H604.205V29.5383H600.205V31.1283ZM592.205 40.4616H593.795V34.4616H595.539V38.4616H597.129V34.4616H598.872V40.4616H600.462V34C600.462 33.6735 600.356 33.4038 600.143 33.191C599.93 32.9781 599.66 32.8716 599.334 32.8716H593.334C593.007 32.8716 592.738 32.9781 592.525 33.191C592.312 33.4038 592.205 33.6735 592.205 34V40.4616ZM602.205 40.4616H603.795V38.4616H606.667C606.993 38.4616 607.263 38.3552 607.476 38.1423C607.689 37.9294 607.795 37.6597 607.795 37.3333V34C607.795 33.6735 607.689 33.4038 607.476 33.191C607.263 32.9781 606.993 32.8716 606.667 32.8716H602.205V40.4616ZM603.795 36.8716V34.4616H606.205V36.8716H603.795ZM591.077 43.3333C590.404 43.3333 589.834 43.1 589.367 42.6333C588.9 42.1666 588.667 41.5965 588.667 40.923V23.077C588.667 22.4034 588.9 21.8333 589.367 21.3666C589.834 20.9 590.404 20.6666 591.077 20.6666H608.923C609.597 20.6666 610.167 20.9 610.634 21.3666C611.1 21.8333 611.334 22.4034 611.334 23.077V40.923C611.334 41.5965 611.1 42.1666 610.634 42.6333C610.167 43.1 609.597 43.3333 608.923 43.3333H591.077ZM591.077 41.3333H608.923C609.026 41.3333 609.12 41.2905 609.205 41.205C609.291 41.1196 609.334 41.0256 609.334 40.923V23.077C609.334 22.9743 609.291 22.8803 609.205 22.795C609.12 22.7094 609.026 22.6666 608.923 22.6666H591.077C590.975 22.6666 590.881 22.7094 590.795 22.795C590.71 22.8803 590.667 22.9743 590.667 23.077V40.923C590.667 41.0256 590.71 41.1196 590.795 41.205C590.881 41.2905 590.975 41.3333 591.077 41.3333Z" fill="#99E39E"/>
</g>
<path d="M576.54 103.24C575.513 103.24 574.613 103.06 573.84 102.7C573.067 102.327 572.467 101.807 572.04 101.14C571.613 100.473 571.4 99.6933 571.4 98.8H573.5C573.513 99.3067 573.633 99.7733 573.86 100.2C574.1 100.613 574.44 100.947 574.88 101.2C575.333 101.44 575.887 101.56 576.54 101.56C577.1 101.56 577.58 101.467 577.98 101.28C578.393 101.093 578.707 100.84 578.92 100.52C579.133 100.187 579.24 99.8067 579.24 99.38C579.24 98.8867 579.127 98.48 578.9 98.16C578.673 97.84 578.367 97.58 577.98 97.38C577.607 97.1667 577.167 96.98 576.66 96.82C576.167 96.66 575.647 96.4867 575.1 96.3C573.993 95.94 573.167 95.4733 572.62 94.9C572.087 94.3267 571.82 93.58 571.82 92.66C571.82 91.8733 572.007 91.1933 572.38 90.62C572.753 90.0333 573.273 89.58 573.94 89.26C574.62 88.9267 575.42 88.76 576.34 88.76C577.247 88.76 578.04 88.9267 578.72 89.26C579.4 89.5933 579.933 90.0533 580.32 90.64C580.707 91.2267 580.9 91.9133 580.9 92.7H578.78C578.78 92.34 578.687 91.9867 578.5 91.64C578.313 91.2933 578.033 91.0133 577.66 90.8C577.287 90.5733 576.827 90.46 576.28 90.46C575.827 90.4467 575.42 90.52 575.06 90.68C574.7 90.84 574.42 91.0733 574.22 91.38C574.02 91.6867 573.92 92.0533 573.92 92.48C573.92 92.9067 574.007 93.2533 574.18 93.52C574.367 93.7733 574.633 93.9933 574.98 94.18C575.327 94.3667 575.727 94.54 576.18 94.7C576.647 94.8467 577.16 95.0133 577.72 95.2C578.413 95.4267 579.027 95.7067 579.56 96.04C580.107 96.36 580.533 96.78 580.84 97.3C581.16 97.8067 581.32 98.46 581.32 99.26C581.32 99.9533 581.14 100.6 580.78 101.2C580.42 101.8 579.887 102.293 579.18 102.68C578.473 103.053 577.593 103.24 576.54 103.24ZM587.358 103C586.718 103 586.165 102.9 585.698 102.7C585.232 102.5 584.872 102.167 584.618 101.7C584.365 101.233 584.238 100.6 584.238 99.8V94.62H582.498V92.92H584.238L584.478 90.4H586.238V92.92H589.098V94.62H586.238V99.82C586.238 100.393 586.358 100.787 586.598 101C586.838 101.2 587.252 101.3 587.838 101.3H588.998V103H587.358ZM595.19 103.24C594.23 103.24 593.377 103.02 592.63 102.58C591.884 102.14 591.297 101.527 590.87 100.74C590.457 99.9533 590.25 99.04 590.25 98C590.25 96.9333 590.457 96.0067 590.87 95.22C591.297 94.42 591.884 93.8 592.63 93.36C593.377 92.9067 594.244 92.68 595.23 92.68C596.217 92.68 597.064 92.9 597.77 93.34C598.477 93.78 599.024 94.3667 599.41 95.1C599.797 95.82 599.99 96.62 599.99 97.5C599.99 97.6333 599.984 97.78 599.97 97.94C599.97 98.0867 599.964 98.2533 599.95 98.44H591.71V97.02H597.99C597.95 96.18 597.67 95.5267 597.15 95.06C596.63 94.58 595.984 94.34 595.21 94.34C594.664 94.34 594.164 94.4667 593.71 94.72C593.257 94.96 592.89 95.32 592.61 95.8C592.344 96.2667 592.21 96.86 592.21 97.58V98.14C592.21 98.8867 592.344 99.52 592.61 100.04C592.89 100.547 593.257 100.933 593.71 101.2C594.164 101.453 594.657 101.58 595.19 101.58C595.83 101.58 596.357 101.44 596.77 101.16C597.184 100.88 597.49 100.5 597.69 100.02H599.69C599.517 100.633 599.224 101.187 598.81 101.68C598.397 102.16 597.884 102.54 597.27 102.82C596.67 103.1 595.977 103.24 595.19 103.24ZM601.812 107.4V92.92H603.612L603.812 94.48C604.026 94.1733 604.292 93.8867 604.612 93.62C604.932 93.34 605.312 93.1133 605.752 92.94C606.206 92.7667 606.732 92.68 607.332 92.68C608.292 92.68 609.132 92.9133 609.852 93.38C610.586 93.8467 611.152 94.48 611.552 95.28C611.966 96.0667 612.172 96.9667 612.172 97.98C612.172 98.9933 611.966 99.9 611.552 100.7C611.139 101.487 610.566 102.107 609.832 102.56C609.112 103.013 608.272 103.24 607.312 103.24C606.526 103.24 605.832 103.087 605.232 102.78C604.632 102.46 604.159 102.02 603.812 101.46V107.4H601.812ZM606.992 101.5C607.606 101.5 608.146 101.353 608.612 101.06C609.092 100.767 609.466 100.353 609.732 99.82C610.012 99.2867 610.152 98.6667 610.152 97.96C610.152 97.2533 610.012 96.64 609.732 96.12C609.466 95.5867 609.092 95.1733 608.612 94.88C608.146 94.5733 607.606 94.42 606.992 94.42C606.366 94.42 605.812 94.5733 605.332 94.88C604.866 95.1733 604.499 95.5867 604.232 96.12C603.966 96.64 603.832 97.2533 603.832 97.96C603.832 98.6667 603.966 99.2867 604.232 99.82C604.499 100.353 604.866 100.767 605.332 101.06C605.812 101.353 606.366 101.5 606.992 101.5ZM618.645 103V101.56C619.578 100.84 620.465 100.113 621.305 99.38C622.145 98.6467 622.892 97.92 623.545 97.2C624.212 96.4667 624.732 95.7533 625.105 95.06C625.478 94.3533 625.665 93.68 625.665 93.04C625.665 92.5867 625.585 92.1667 625.425 91.78C625.265 91.3933 625.012 91.08 624.665 90.84C624.318 90.5867 623.845 90.46 623.245 90.46C622.672 90.46 622.192 90.5867 621.805 90.84C621.432 91.0933 621.145 91.4333 620.945 91.86C620.758 92.2733 620.665 92.7333 620.665 93.24H618.725C618.738 92.28 618.945 91.4667 619.345 90.8C619.745 90.1333 620.285 89.6267 620.965 89.28C621.658 88.9333 622.432 88.76 623.285 88.76C624.178 88.76 624.952 88.9267 625.605 89.26C626.258 89.58 626.765 90.0533 627.125 90.68C627.485 91.2933 627.665 92.0467 627.665 92.94C627.665 93.58 627.538 94.22 627.285 94.86C627.032 95.4867 626.685 96.1 626.245 96.7C625.818 97.3 625.338 97.88 624.805 98.44C624.272 98.9867 623.718 99.5067 623.145 100C622.585 100.493 622.045 100.94 621.525 101.34H628.105V103H618.645Z" fill="white"/>
<path d="M496.637 133H495.437V121.512H502.029V122.552H496.637V127.032H501.277V128.072H496.637V133ZM504.805 128.488V133H503.685V124.568H504.725V126.488C505.301 125.24 506.549 124.44 507.941 124.44V125.608C506.165 125.544 504.805 126.648 504.805 128.488ZM514.494 133V131.464C513.998 132.52 512.974 133.16 511.662 133.16C509.918 133.16 508.782 132.184 508.782 130.664C508.782 129.016 510.094 128.152 512.654 128.152C513.166 128.152 513.55 128.184 514.382 128.248V127.544C514.382 126.136 513.63 125.304 512.35 125.304C510.974 125.304 510.11 126.152 510.094 127.528H509.07C509.118 125.656 510.414 124.408 512.334 124.408C514.302 124.408 515.454 125.56 515.454 127.512V133H514.494ZM509.854 130.632C509.854 131.656 510.638 132.344 511.822 132.344C513.39 132.344 514.382 131.32 514.382 129.736V128.984C513.662 128.92 513.166 128.904 512.702 128.904C510.782 128.904 509.854 129.464 509.854 130.632ZM517.186 128.776C517.186 126.184 518.626 124.408 520.898 124.408C522.162 124.408 523.234 125.128 523.794 126.328V121.512H524.914V133H523.874V131.224C523.282 132.456 522.194 133.16 520.898 133.16C518.626 133.16 517.186 131.368 517.186 128.776ZM518.322 128.776C518.322 130.92 519.41 132.184 521.058 132.184C522.69 132.184 523.81 130.856 523.81 128.744C523.81 126.616 522.658 125.384 521.058 125.384C519.41 125.384 518.322 126.632 518.322 128.776ZM528.797 122.616C528.797 123.112 528.429 123.464 527.885 123.464C527.357 123.464 526.989 123.112 526.989 122.616C526.989 122.136 527.357 121.784 527.885 121.784C528.429 121.784 528.797 122.136 528.797 122.616ZM528.461 133H527.341V124.568H528.461V133ZM536.28 129.592V124.568H537.384V133H536.344V131.48C535.912 132.456 534.888 133.16 533.656 133.16C531.944 133.16 530.808 132.184 530.808 130.056V124.568H531.928V129.816C531.928 131.528 532.776 132.184 533.96 132.184C535.304 132.184 536.28 131.096 536.28 129.592ZM540.93 133H539.81V124.568H540.85V126.152C541.41 125.064 542.402 124.408 543.602 124.408C544.914 124.408 545.89 125.128 546.242 126.36C546.77 125.176 547.826 124.408 549.154 124.408C550.898 124.408 551.986 125.56 551.986 127.528V133H550.882V127.896C550.882 126.296 550.146 125.384 548.786 125.384C547.506 125.384 546.466 126.504 546.466 128.056V133H545.346V127.896C545.346 126.296 544.61 125.384 543.25 125.384C541.954 125.384 540.93 126.504 540.93 128.056V133ZM560.837 133.176C558.613 133.176 557.061 131.368 557.061 128.776C557.061 126.216 558.629 124.408 560.837 124.408C562.805 124.408 564.213 125.72 564.549 127.832H563.413C563.157 126.296 562.197 125.384 560.837 125.384C559.269 125.384 558.197 126.76 558.197 128.776C558.197 130.824 559.269 132.2 560.837 132.2C562.213 132.2 563.157 131.304 563.413 129.736H564.549C564.245 131.88 562.821 133.176 560.837 133.176ZM567.477 128.088V133H566.357V121.512H567.477V126.12C568.005 125.112 568.965 124.408 570.181 124.408C571.941 124.408 573.077 125.528 573.077 127.528V133H571.957V127.912C571.957 126.296 571.221 125.384 569.845 125.384C568.533 125.384 567.477 126.52 567.477 128.088ZM578.747 133.16C576.379 133.16 574.811 131.384 574.811 128.712C574.811 126.248 576.443 124.408 578.683 124.408C581.083 124.408 582.651 126.344 582.459 129.048H575.931C576.027 131.048 577.083 132.28 578.731 132.28C580.139 132.28 581.115 131.496 581.387 130.152H582.491C582.107 132.024 580.683 133.16 578.747 133.16ZM578.667 125.272C577.147 125.272 576.075 126.44 575.931 128.28H581.291C581.195 126.392 580.219 125.272 578.667 125.272ZM587.306 133.176C585.082 133.176 583.53 131.368 583.53 128.776C583.53 126.216 585.098 124.408 587.306 124.408C589.274 124.408 590.682 125.72 591.017 127.832H589.882C589.626 126.296 588.666 125.384 587.306 125.384C585.738 125.384 584.666 126.76 584.666 128.776C584.666 130.824 585.738 132.2 587.306 132.2C588.682 132.2 589.626 131.304 589.882 129.736H591.017C590.714 131.88 589.29 133.176 587.306 133.176ZM593.945 133H592.825V121.512H593.945V128.488L598.009 124.568H599.337L595.081 128.696L599.689 133H598.233L593.945 128.952V133ZM607.067 130.648C607.067 132.2 605.819 133.16 603.739 133.16C601.643 133.16 600.363 132.104 600.203 130.36H601.275C601.355 131.56 602.299 132.312 603.739 132.312C605.115 132.312 605.947 131.784 605.947 130.824C605.947 129.992 605.467 129.608 604.187 129.352L602.971 129.112C601.371 128.808 600.523 128.024 600.523 126.808C600.523 125.4 601.771 124.408 603.611 124.408C605.547 124.408 606.827 125.448 606.955 127.128H605.899C605.787 125.96 604.939 125.272 603.611 125.272C602.427 125.272 601.611 125.832 601.611 126.712C601.611 127.544 602.123 127.944 603.371 128.184L604.635 128.424C606.315 128.744 607.067 129.448 607.067 130.648ZM617.541 133V131.464C617.045 132.52 616.021 133.16 614.709 133.16C612.965 133.16 611.829 132.184 611.829 130.664C611.829 129.016 613.141 128.152 615.701 128.152C616.213 128.152 616.597 128.184 617.429 128.248V127.544C617.429 126.136 616.677 125.304 615.397 125.304C614.021 125.304 613.157 126.152 613.141 127.528H612.117C612.165 125.656 613.461 124.408 615.381 124.408C617.349 124.408 618.501 125.56 618.501 127.512V133H617.541ZM612.901 130.632C612.901 131.656 613.685 132.344 614.869 132.344C616.437 132.344 617.429 131.32 617.429 129.736V128.984C616.709 128.92 616.213 128.904 615.749 128.904C613.829 128.904 612.901 129.464 612.901 130.632ZM624.041 136.264C621.897 136.264 620.553 135.144 620.457 133.256H621.529C621.625 134.632 622.521 135.368 624.025 135.368C625.689 135.368 626.569 134.488 626.569 132.824V131.064C626.057 132.248 625.033 132.936 623.785 132.936C621.657 132.936 620.233 131.224 620.233 128.664C620.233 126.104 621.641 124.408 623.769 124.408C625.033 124.408 626.089 125.128 626.633 126.36V124.568H627.673V132.808C627.673 134.984 626.345 136.264 624.041 136.264ZM621.353 128.664C621.353 130.728 622.329 131.976 623.945 131.976C625.529 131.976 626.585 130.696 626.585 128.744C626.585 126.68 625.545 125.368 623.945 125.368C622.345 125.368 621.353 126.616 621.353 128.664ZM635.291 133V131.464C634.795 132.52 633.771 133.16 632.459 133.16C630.715 133.16 629.579 132.184 629.579 130.664C629.579 129.016 630.891 128.152 633.451 128.152C633.963 128.152 634.347 128.184 635.179 128.248V127.544C635.179 126.136 634.427 125.304 633.147 125.304C631.771 125.304 630.907 126.152 630.891 127.528H629.867C629.915 125.656 631.211 124.408 633.131 124.408C635.099 124.408 636.251 125.56 636.251 127.512V133H635.291ZM630.651 130.632C630.651 131.656 631.435 132.344 632.619 132.344C634.187 132.344 635.179 131.32 635.179 129.736V128.984C634.459 128.92 633.963 128.904 633.499 128.904C631.579 128.904 630.651 129.464 630.651 130.632ZM640.063 122.616C640.063 123.112 639.695 123.464 639.151 123.464C638.623 123.464 638.255 123.112 638.255 122.616C638.255 122.136 638.623 121.784 639.151 121.784C639.695 121.784 640.063 122.136 640.063 122.616ZM639.727 133H638.607V124.568H639.727V133ZM643.274 128.088V133H642.154V124.568H643.194V126.152C643.738 125.112 644.762 124.408 645.978 124.408C647.738 124.408 648.874 125.528 648.874 127.528V133H647.754V127.912C647.754 126.296 647.018 125.384 645.641 125.384C644.33 125.384 643.274 126.52 643.274 128.088ZM657.536 130.648C657.536 132.2 656.288 133.16 654.208 133.16C652.112 133.16 650.832 132.104 650.672 130.36H651.744C651.824 131.56 652.768 132.312 654.208 132.312C655.584 132.312 656.416 131.784 656.416 130.824C656.416 129.992 655.936 129.608 654.656 129.352L653.44 129.112C651.84 128.808 650.992 128.024 650.992 126.808C650.992 125.4 652.24 124.408 654.08 124.408C656.016 124.408 657.296 125.448 657.424 127.128H656.368C656.256 125.96 655.408 125.272 654.08 125.272C652.896 125.272 652.08 125.832 652.08 126.712C652.08 127.544 652.592 127.944 653.84 128.184L655.104 128.424C656.784 128.744 657.536 129.448 657.536 130.648ZM663.755 131.928V132.92C663.323 133.096 662.955 133.16 662.539 133.16C661.147 133.16 660.075 132.44 660.075 130.616V125.512H658.091V124.568H660.075V122.072H661.195V124.568H663.835V125.512H661.195V130.376C661.195 131.688 661.835 132.136 662.763 132.136C663.115 132.136 663.403 132.072 663.755 131.928ZM670.728 133H669.608V125.512H667.624V124.568H669.608V123.8C669.608 122.248 670.456 121.384 671.928 121.384C672.312 121.384 672.648 121.448 672.936 121.56V122.488C672.664 122.376 672.408 122.36 672.12 122.36C671.224 122.36 670.728 122.808 670.728 123.8V124.568H673.208V125.512H670.728V133ZM675.617 128.488V133H674.497V124.568H675.537V126.488C676.113 125.24 677.361 124.44 678.753 124.44V125.608C676.977 125.544 675.617 126.648 675.617 128.488ZM685.306 133V131.464C684.81 132.52 683.786 133.16 682.474 133.16C680.73 133.16 679.594 132.184 679.594 130.664C679.594 129.016 680.906 128.152 683.466 128.152C683.978 128.152 684.362 128.184 685.194 128.248V127.544C685.194 126.136 684.442 125.304 683.162 125.304C681.786 125.304 680.922 126.152 680.906 127.528H679.882C679.93 125.656 681.226 124.408 683.146 124.408C685.114 124.408 686.266 125.56 686.266 127.512V133H685.306ZM680.666 130.632C680.666 131.656 681.45 132.344 682.634 132.344C684.202 132.344 685.194 131.32 685.194 129.736V128.984C684.474 128.92 683.978 128.904 683.514 128.904C681.594 128.904 680.666 129.464 680.666 130.632ZM694.014 129.592V124.568H695.118V133H694.078V131.48C693.646 132.456 692.622 133.16 691.39 133.16C689.678 133.16 688.542 132.184 688.542 130.056V124.568H689.662V129.816C689.662 131.528 690.51 132.184 691.694 132.184C693.038 132.184 694.014 131.096 694.014 129.592ZM696.92 128.776C696.92 126.184 698.36 124.408 700.632 124.408C701.896 124.408 702.968 125.128 703.528 126.328V121.512H704.648V133H703.608V131.224C703.016 132.456 701.928 133.16 700.632 133.16C698.36 133.16 696.92 131.368 696.92 128.776ZM698.056 128.776C698.056 130.92 699.144 132.184 700.792 132.184C702.424 132.184 703.544 130.856 703.544 128.744C703.544 126.616 702.392 125.384 700.792 125.384C699.144 125.384 698.056 126.632 698.056 128.776ZM497.506 150.776C497.506 148.184 498.946 146.408 501.218 146.408C502.482 146.408 503.554 147.128 504.114 148.328V143.512H505.234V155H504.194V153.224C503.602 154.456 502.514 155.16 501.218 155.16C498.946 155.16 497.506 153.368 497.506 150.776ZM498.642 150.776C498.642 152.92 499.73 154.184 501.378 154.184C503.01 154.184 504.13 152.856 504.13 150.744C504.13 148.616 502.978 147.384 501.378 147.384C499.73 147.384 498.642 148.632 498.642 150.776ZM512.845 155V153.464C512.349 154.52 511.325 155.16 510.013 155.16C508.269 155.16 507.133 154.184 507.133 152.664C507.133 151.016 508.445 150.152 511.005 150.152C511.517 150.152 511.901 150.184 512.733 150.248V149.544C512.733 148.136 511.981 147.304 510.701 147.304C509.325 147.304 508.461 148.152 508.445 149.528H507.421C507.469 147.656 508.765 146.408 510.685 146.408C512.653 146.408 513.805 147.56 513.805 149.512V155H512.845ZM508.205 152.632C508.205 153.656 508.989 154.344 510.173 154.344C511.741 154.344 512.733 153.32 512.733 151.736V150.984C512.013 150.92 511.517 150.904 511.053 150.904C509.133 150.904 508.205 151.464 508.205 152.632ZM520.45 153.928V154.92C520.018 155.096 519.65 155.16 519.234 155.16C517.842 155.16 516.77 154.44 516.77 152.616V147.512H514.786V146.568H516.77V144.072H517.89V146.568H520.53V147.512H517.89V152.376C517.89 153.688 518.53 154.136 519.458 154.136C519.81 154.136 520.098 154.072 520.45 153.928ZM527.408 155V153.464C526.912 154.52 525.888 155.16 524.576 155.16C522.832 155.16 521.696 154.184 521.696 152.664C521.696 151.016 523.008 150.152 525.568 150.152C526.08 150.152 526.464 150.184 527.296 150.248V149.544C527.296 148.136 526.544 147.304 525.264 147.304C523.888 147.304 523.024 148.152 523.008 149.528H521.984C522.032 147.656 523.328 146.408 525.248 146.408C527.216 146.408 528.368 147.56 528.368 149.512V155H527.408ZM522.768 152.632C522.768 153.656 523.552 154.344 524.736 154.344C526.304 154.344 527.296 153.32 527.296 151.736V150.984C526.576 150.92 526.08 150.904 525.616 150.904C523.696 150.904 522.768 151.464 522.768 152.632ZM538.452 150.776C538.452 153.368 536.996 155.16 534.74 155.16C533.444 155.16 532.356 154.456 531.764 153.224V155H530.724V143.512H531.844V148.344C532.388 147.112 533.46 146.408 534.74 146.408C536.996 146.408 538.452 148.184 538.452 150.776ZM537.316 150.776C537.316 148.632 536.212 147.384 534.564 147.384C532.98 147.384 531.828 148.616 531.828 150.744C531.828 152.856 532.948 154.184 534.564 154.184C536.212 154.184 537.316 152.92 537.316 150.776ZM545.439 155V153.464C544.943 154.52 543.919 155.16 542.607 155.16C540.863 155.16 539.727 154.184 539.727 152.664C539.727 151.016 541.039 150.152 543.599 150.152C544.111 150.152 544.495 150.184 545.327 150.248V149.544C545.327 148.136 544.575 147.304 543.295 147.304C541.919 147.304 541.055 148.152 541.039 149.528H540.015C540.063 147.656 541.359 146.408 543.279 146.408C545.247 146.408 546.399 147.56 546.399 149.512V155H545.439ZM540.799 152.632C540.799 153.656 541.583 154.344 542.767 154.344C544.335 154.344 545.327 153.32 545.327 151.736V150.984C544.607 150.92 544.111 150.904 543.647 150.904C541.727 150.904 540.799 151.464 540.799 152.632ZM555.059 152.648C555.059 154.2 553.811 155.16 551.731 155.16C549.635 155.16 548.355 154.104 548.195 152.36H549.267C549.347 153.56 550.291 154.312 551.731 154.312C553.107 154.312 553.939 153.784 553.939 152.824C553.939 151.992 553.459 151.608 552.179 151.352L550.963 151.112C549.363 150.808 548.515 150.024 548.515 148.808C548.515 147.4 549.763 146.408 551.603 146.408C553.539 146.408 554.819 147.448 554.947 149.128H553.891C553.779 147.96 552.931 147.272 551.603 147.272C550.419 147.272 549.603 147.832 549.603 148.712C549.603 149.544 550.115 149.944 551.363 150.184L552.627 150.424C554.307 150.744 555.059 151.448 555.059 152.648ZM560.317 155.16C557.949 155.16 556.381 153.384 556.381 150.712C556.381 148.248 558.013 146.408 560.253 146.408C562.653 146.408 564.221 148.344 564.029 151.048H557.501C557.597 153.048 558.653 154.28 560.301 154.28C561.709 154.28 562.685 153.496 562.957 152.152H564.061C563.677 154.024 562.253 155.16 560.317 155.16ZM560.237 147.272C558.717 147.272 557.645 148.44 557.501 150.28H562.861C562.765 148.392 561.789 147.272 560.237 147.272ZM572.184 152.648C572.184 154.2 570.936 155.16 568.856 155.16C566.76 155.16 565.48 154.104 565.32 152.36H566.392C566.472 153.56 567.416 154.312 568.856 154.312C570.232 154.312 571.064 153.784 571.064 152.824C571.064 151.992 570.584 151.608 569.304 151.352L568.088 151.112C566.488 150.808 565.64 150.024 565.64 148.808C565.64 147.4 566.888 146.408 568.728 146.408C570.664 146.408 571.944 147.448 572.072 149.128H571.016C570.904 147.96 570.056 147.272 568.728 147.272C567.544 147.272 566.728 147.832 566.728 148.712C566.728 149.544 567.24 149.944 568.488 150.184L569.752 150.424C571.432 150.744 572.184 151.448 572.184 152.648ZM582.658 155V153.464C582.162 154.52 581.138 155.16 579.826 155.16C578.082 155.16 576.946 154.184 576.946 152.664C576.946 151.016 578.258 150.152 580.818 150.152C581.33 150.152 581.714 150.184 582.546 150.248V149.544C582.546 148.136 581.794 147.304 580.514 147.304C579.138 147.304 578.274 148.152 578.258 149.528H577.234C577.282 147.656 578.578 146.408 580.498 146.408C582.466 146.408 583.618 147.56 583.618 149.512V155H582.658ZM578.018 152.632C578.018 153.656 578.802 154.344 579.986 154.344C581.554 154.344 582.546 153.32 582.546 151.736V150.984C581.826 150.92 581.33 150.904 580.866 150.904C578.946 150.904 578.018 151.464 578.018 152.632ZM587.094 150.088V155H585.974V146.568H587.014V148.152C587.558 147.112 588.582 146.408 589.798 146.408C591.558 146.408 592.694 147.528 592.694 149.528V155H591.574V149.912C591.574 148.296 590.838 147.384 589.462 147.384C588.15 147.384 587.094 148.52 587.094 150.088ZM594.428 150.776C594.428 148.184 595.868 146.408 598.14 146.408C599.404 146.408 600.476 147.128 601.036 148.328V143.512H602.156V155H601.116V153.224C600.524 154.456 599.436 155.16 598.14 155.16C595.868 155.16 594.428 153.368 594.428 150.776ZM595.564 150.776C595.564 152.92 596.652 154.184 598.3 154.184C599.932 154.184 601.052 152.856 601.052 150.744C601.052 148.616 599.9 147.384 598.3 147.384C596.652 147.384 595.564 148.632 595.564 150.776ZM615.655 150.776C615.655 153.384 614.199 155.16 611.959 155.16C610.695 155.16 609.623 154.472 609.047 153.272V158.088H607.927V146.568H608.967V148.392C609.543 147.144 610.663 146.408 611.959 146.408C614.199 146.408 615.655 148.2 615.655 150.776ZM614.519 150.776C614.519 148.648 613.415 147.384 611.767 147.384C610.199 147.384 609.031 148.632 609.031 150.776C609.031 152.872 610.167 154.184 611.767 154.184C613.415 154.184 614.519 152.936 614.519 150.776ZM620.77 155.16C618.402 155.16 616.834 153.384 616.834 150.712C616.834 148.248 618.466 146.408 620.706 146.408C623.106 146.408 624.674 148.344 624.482 151.048H617.954C618.05 153.048 619.106 154.28 620.754 154.28C622.162 154.28 623.138 153.496 623.41 152.152H624.514C624.13 154.024 622.706 155.16 620.77 155.16ZM620.69 147.272C619.17 147.272 618.098 148.44 617.954 150.28H623.314C623.218 148.392 622.242 147.272 620.69 147.272ZM627.453 150.488V155H626.333V146.568H627.373V148.488C627.949 147.24 629.197 146.44 630.589 146.44V147.608C628.813 147.544 627.453 148.648 627.453 150.488ZM634.299 155H633.179V147.512H631.195V146.568H633.179V145.8C633.179 144.248 634.027 143.384 635.499 143.384C635.883 143.384 636.219 143.448 636.507 143.56V144.488C636.235 144.376 635.979 144.36 635.691 144.36C634.795 144.36 634.299 144.808 634.299 145.8V146.568H636.779V147.512H634.299V155ZM641.209 155.16C638.889 155.16 637.209 153.32 637.209 150.776C637.209 148.248 638.889 146.424 641.209 146.424C643.545 146.424 645.225 148.248 645.225 150.776C645.225 153.32 643.545 155.16 641.209 155.16ZM641.209 154.184C642.857 154.184 644.089 152.872 644.089 150.776C644.089 148.712 642.857 147.4 641.209 147.4C639.577 147.4 638.345 148.712 638.345 150.776C638.345 152.872 639.577 154.184 641.209 154.184ZM648.156 150.488V155H647.036V146.568H648.076V148.488C648.652 147.24 649.9 146.44 651.292 146.44V147.608C649.516 147.544 648.156 148.648 648.156 150.488ZM653.781 155H652.661V146.568H653.701V148.152C654.261 147.064 655.253 146.408 656.453 146.408C657.765 146.408 658.741 147.128 659.093 148.36C659.621 147.176 660.677 146.408 662.005 146.408C663.749 146.408 664.837 147.56 664.837 149.528V155H663.733V149.896C663.733 148.296 662.997 147.384 661.637 147.384C660.357 147.384 659.317 148.504 659.317 150.056V155H658.197V149.896C658.197 148.296 657.461 147.384 656.101 147.384C654.805 147.384 653.781 148.504 653.781 150.056V155ZM673.497 152.648C673.497 154.2 672.249 155.16 670.169 155.16C668.073 155.16 666.793 154.104 666.633 152.36H667.705C667.785 153.56 668.729 154.312 670.169 154.312C671.545 154.312 672.377 153.784 672.377 152.824C672.377 151.992 671.897 151.608 670.617 151.352L669.401 151.112C667.801 150.808 666.953 150.024 666.953 148.808C666.953 147.4 668.201 146.408 670.041 146.408C671.977 146.408 673.257 147.448 673.385 149.128H672.329C672.217 147.96 671.369 147.272 670.041 147.272C668.857 147.272 668.041 147.832 668.041 148.712C668.041 149.544 668.553 149.944 669.801 150.184L671.065 150.424C672.745 150.744 673.497 151.448 673.497 152.648ZM679.906 150.488V155H678.786V146.568H679.826V148.488C680.402 147.24 681.65 146.44 683.042 146.44V147.608C681.266 147.544 679.906 148.648 679.906 150.488ZM685.867 144.616C685.867 145.112 685.499 145.464 684.955 145.464C684.427 145.464 684.059 145.112 684.059 144.616C684.059 144.136 684.427 143.784 684.955 143.784C685.499 143.784 685.867 144.136 685.867 144.616ZM685.531 155H684.411V146.568H685.531V155ZM694.262 152.648C694.262 154.2 693.014 155.16 690.934 155.16C688.838 155.16 687.558 154.104 687.398 152.36H688.47C688.55 153.56 689.494 154.312 690.934 154.312C692.31 154.312 693.142 153.784 693.142 152.824C693.142 151.992 692.662 151.608 691.382 151.352L690.166 151.112C688.566 150.808 687.718 150.024 687.718 148.808C687.718 147.4 688.966 146.408 690.806 146.408C692.742 146.408 694.022 147.448 694.15 149.128H693.094C692.982 147.96 692.134 147.272 690.806 147.272C689.622 147.272 688.806 147.832 688.806 148.712C688.806 149.544 689.318 149.944 690.566 150.184L691.83 150.424C693.51 150.744 694.262 151.448 694.262 152.648ZM697.328 155H696.208V143.512H697.328V150.488L701.392 146.568H702.72L698.464 150.696L703.072 155H701.616L697.328 150.952V155ZM575.689 177V175.464C575.193 176.52 574.169 177.16 572.857 177.16C571.113 177.16 569.977 176.184 569.977 174.664C569.977 173.016 571.289 172.152 573.849 172.152C574.361 172.152 574.745 172.184 575.577 172.248V171.544C575.577 170.136 574.825 169.304 573.545 169.304C572.169 169.304 571.305 170.152 571.289 171.528H570.265C570.313 169.656 571.609 168.408 573.529 168.408C575.497 168.408 576.649 169.56 576.649 171.512V177H575.689ZM571.049 174.632C571.049 175.656 571.833 176.344 573.017 176.344C574.585 176.344 575.577 175.32 575.577 173.736V172.984C574.857 172.92 574.361 172.904 573.897 172.904C571.977 172.904 571.049 173.464 571.049 174.632ZM580.125 172.088V177H579.005V168.568H580.045V170.152C580.589 169.112 581.613 168.408 582.829 168.408C584.589 168.408 585.725 169.528 585.725 171.528V177H584.605V171.912C584.605 170.296 583.869 169.384 582.493 169.384C581.181 169.384 580.125 170.52 580.125 172.088ZM593.267 177V175.464C592.771 176.52 591.747 177.16 590.435 177.16C588.691 177.16 587.555 176.184 587.555 174.664C587.555 173.016 588.867 172.152 591.427 172.152C591.939 172.152 592.323 172.184 593.155 172.248V171.544C593.155 170.136 592.403 169.304 591.123 169.304C589.747 169.304 588.883 170.152 588.867 171.528H587.843C587.891 169.656 589.187 168.408 591.107 168.408C593.075 168.408 594.227 169.56 594.227 171.512V177H593.267ZM588.627 174.632C588.627 175.656 589.411 176.344 590.595 176.344C592.163 176.344 593.155 175.32 593.155 173.736V172.984C592.435 172.92 591.939 172.904 591.475 172.904C589.555 172.904 588.627 173.464 588.627 174.632ZM597.703 177H596.583V165.512H597.703V177ZM606.626 168.568L602.306 180.088H601.106L602.338 176.888L598.994 168.568H600.194L602.914 175.544L605.49 168.568H606.626ZM614.059 174.648C614.059 176.2 612.811 177.16 610.731 177.16C608.635 177.16 607.355 176.104 607.195 174.36H608.267C608.347 175.56 609.291 176.312 610.731 176.312C612.107 176.312 612.939 175.784 612.939 174.824C612.939 173.992 612.459 173.608 611.179 173.352L609.963 173.112C608.363 172.808 607.515 172.024 607.515 170.808C607.515 169.4 608.763 168.408 610.603 168.408C612.539 168.408 613.819 169.448 613.947 171.128H612.891C612.779 169.96 611.931 169.272 610.603 169.272C609.419 169.272 608.603 169.832 608.603 170.712C608.603 171.544 609.115 171.944 610.363 172.184L611.627 172.424C613.307 172.744 614.059 173.448 614.059 174.648ZM617.461 166.616C617.461 167.112 617.093 167.464 616.549 167.464C616.021 167.464 615.653 167.112 615.653 166.616C615.653 166.136 616.021 165.784 616.549 165.784C617.093 165.784 617.461 166.136 617.461 166.616ZM617.125 177H616.005V168.568H617.125V177ZM625.856 174.648C625.856 176.2 624.608 177.16 622.528 177.16C620.432 177.16 619.152 176.104 618.992 174.36H620.064C620.144 175.56 621.088 176.312 622.528 176.312C623.904 176.312 624.736 175.784 624.736 174.824C624.736 173.992 624.256 173.608 622.976 173.352L621.76 173.112C620.16 172.808 619.312 172.024 619.312 170.808C619.312 169.4 620.56 168.408 622.4 168.408C624.336 168.408 625.616 169.448 625.744 171.128H624.688C624.576 169.96 623.728 169.272 622.4 169.272C621.216 169.272 620.4 169.832 620.4 170.712C620.4 171.544 620.912 171.944 622.16 172.184L623.424 172.424C625.104 172.744 625.856 173.448 625.856 174.648ZM629.658 176.072C629.658 176.648 629.242 177.08 628.65 177.08C628.074 177.08 627.642 176.648 627.642 176.072C627.642 175.464 628.074 175.048 628.65 175.048C629.242 175.048 629.658 175.464 629.658 176.072Z" fill="white" fill-opacity="0.6"/>
<rect x="946" width="64" height="64" rx="32" fill="white" fill-opacity="0.1"/>
<mask id="mask2_1770_589" style="mask-type:alpha" maskUnits="userSpaceOnUse" x="962" y="16" width="32" height="32">
<rect x="962" y="16" width="32" height="32" fill="#D9D9D9"/>
</mask>
<g mask="url(#mask2_1770_589)">
<path d="M973.539 31.1283H975.129V23.5383H971.539V25.1283H973.539V31.1283ZM978.205 31.1283H982.616C982.951 31.1283 983.231 31.0154 983.457 30.7896C983.682 30.5641 983.795 30.2837 983.795 29.9486V27.923C983.795 27.5881 983.682 27.3077 983.457 27.082C983.231 26.8564 982.951 26.7436 982.616 26.7436H979.795V25.1283H983.795V23.5383H978.205V27.923H982.205V29.5383H978.205V31.1283ZM970.205 40.4616H971.795V34.4616H973.539V38.4616H975.129V34.4616H976.872V40.4616H978.462V34C978.462 33.6735 978.356 33.4038 978.143 33.191C977.93 32.9781 977.66 32.8716 977.334 32.8716H971.334C971.007 32.8716 970.738 32.9781 970.525 33.191C970.312 33.4038 970.205 33.6735 970.205 34V40.4616ZM980.205 40.4616H981.795V38.4616H984.667C984.993 38.4616 985.263 38.3552 985.476 38.1423C985.689 37.9294 985.795 37.6597 985.795 37.3333V34C985.795 33.6735 985.689 33.4038 985.476 33.191C985.263 32.9781 984.993 32.8716 984.667 32.8716H980.205V40.4616ZM981.795 36.8716V34.4616H984.205V36.8716H981.795ZM969.077 43.3333C968.404 43.3333 967.834 43.1 967.367 42.6333C966.9 42.1666 966.667 41.5965 966.667 40.923V23.077C966.667 22.4034 966.9 21.8333 967.367 21.3666C967.834 20.9 968.404 20.6666 969.077 20.6666H986.923C987.597 20.6666 988.167 20.9 988.634 21.3666C989.1 21.8333 989.334 22.4034 989.334 23.077V40.923C989.334 41.5965 989.1 42.1666 988.634 42.6333C988.167 43.1 987.597 43.3333 986.923 43.3333H969.077ZM969.077 41.3333H986.923C987.026 41.3333 987.12 41.2905 987.205 41.205C987.291 41.1196 987.334 41.0256 987.334 40.923V23.077C987.334 22.9743 987.291 22.8803 987.205 22.795C987.12 22.7094 987.026 22.6666 986.923 22.6666H969.077C968.975 22.6666 968.881 22.7094 968.795 22.795C968.71 22.8803 968.667 22.9743 968.667 23.077V40.923C968.667 41.0256 968.71 41.1196 968.795 41.205C968.881 41.2905 968.975 41.3333 969.077 41.3333Z" fill="#99E39E"/>
</g>
<path d="M954.54 103.24C953.513 103.24 952.613 103.06 951.84 102.7C951.067 102.327 950.467 101.807 950.04 101.14C949.613 100.473 949.4 99.6933 949.4 98.8H951.5C951.513 99.3067 951.633 99.7733 951.86 100.2C952.1 100.613 952.44 100.947 952.88 101.2C953.333 101.44 953.887 101.56 954.54 101.56C955.1 101.56 955.58 101.467 955.98 101.28C956.393 101.093 956.707 100.84 956.92 100.52C957.133 100.187 957.24 99.8067 957.24 99.38C957.24 98.8867 957.127 98.48 956.9 98.16C956.673 97.84 956.367 97.58 955.98 97.38C955.607 97.1667 955.167 96.98 954.66 96.82C954.167 96.66 953.647 96.4867 953.1 96.3C951.993 95.94 951.167 95.4733 950.62 94.9C950.087 94.3267 949.82 93.58 949.82 92.66C949.82 91.8733 950.007 91.1933 950.38 90.62C950.753 90.0333 951.273 89.58 951.94 89.26C952.62 88.9267 953.42 88.76 954.34 88.76C955.247 88.76 956.04 88.9267 956.72 89.26C957.4 89.5933 957.933 90.0533 958.32 90.64C958.707 91.2267 958.9 91.9133 958.9 92.7H956.78C956.78 92.34 956.687 91.9867 956.5 91.64C956.313 91.2933 956.033 91.0133 955.66 90.8C955.287 90.5733 954.827 90.46 954.28 90.46C953.827 90.4467 953.42 90.52 953.06 90.68C952.7 90.84 952.42 91.0733 952.22 91.38C952.02 91.6867 951.92 92.0533 951.92 92.48C951.92 92.9067 952.007 93.2533 952.18 93.52C952.367 93.7733 952.633 93.9933 952.98 94.18C953.327 94.3667 953.727 94.54 954.18 94.7C954.647 94.8467 955.16 95.0133 955.72 95.2C956.413 95.4267 957.027 95.7067 957.56 96.04C958.107 96.36 958.533 96.78 958.84 97.3C959.16 97.8067 959.32 98.46 959.32 99.26C959.32 99.9533 959.14 100.6 958.78 101.2C958.42 101.8 957.887 102.293 957.18 102.68C956.473 103.053 955.593 103.24 954.54 103.24ZM965.358 103C964.718 103 964.165 102.9 963.698 102.7C963.232 102.5 962.872 102.167 962.618 101.7C962.365 101.233 962.238 100.6 962.238 99.8V94.62H960.498V92.92H962.238L962.478 90.4H964.238V92.92H967.098V94.62H964.238V99.82C964.238 100.393 964.358 100.787 964.598 101C964.838 101.2 965.252 101.3 965.838 101.3H966.998V103H965.358ZM973.19 103.24C972.23 103.24 971.377 103.02 970.63 102.58C969.884 102.14 969.297 101.527 968.87 100.74C968.457 99.9533 968.25 99.04 968.25 98C968.25 96.9333 968.457 96.0067 968.87 95.22C969.297 94.42 969.884 93.8 970.63 93.36C971.377 92.9067 972.244 92.68 973.23 92.68C974.217 92.68 975.064 92.9 975.77 93.34C976.477 93.78 977.024 94.3667 977.41 95.1C977.797 95.82 977.99 96.62 977.99 97.5C977.99 97.6333 977.984 97.78 977.97 97.94C977.97 98.0867 977.964 98.2533 977.95 98.44H969.71V97.02H975.99C975.95 96.18 975.67 95.5267 975.15 95.06C974.63 94.58 973.984 94.34 973.21 94.34C972.664 94.34 972.164 94.4667 971.71 94.72C971.257 94.96 970.89 95.32 970.61 95.8C970.344 96.2667 970.21 96.86 970.21 97.58V98.14C970.21 98.8867 970.344 99.52 970.61 100.04C970.89 100.547 971.257 100.933 971.71 101.2C972.164 101.453 972.657 101.58 973.19 101.58C973.83 101.58 974.357 101.44 974.77 101.16C975.184 100.88 975.49 100.5 975.69 100.02H977.69C977.517 100.633 977.224 101.187 976.81 101.68C976.397 102.16 975.884 102.54 975.27 102.82C974.67 103.1 973.977 103.24 973.19 103.24ZM979.812 107.4V92.92H981.612L981.812 94.48C982.026 94.1733 982.292 93.8867 982.612 93.62C982.932 93.34 983.312 93.1133 983.752 92.94C984.206 92.7667 984.732 92.68 985.332 92.68C986.292 92.68 987.132 92.9133 987.852 93.38C988.586 93.8467 989.152 94.48 989.552 95.28C989.966 96.0667 990.172 96.9667 990.172 97.98C990.172 98.9933 989.966 99.9 989.552 100.7C989.139 101.487 988.566 102.107 987.832 102.56C987.112 103.013 986.272 103.24 985.312 103.24C984.526 103.24 983.832 103.087 983.232 102.78C982.632 102.46 982.159 102.02 981.812 101.46V107.4H979.812ZM984.992 101.5C985.606 101.5 986.146 101.353 986.612 101.06C987.092 100.767 987.466 100.353 987.732 99.82C988.012 99.2867 988.152 98.6667 988.152 97.96C988.152 97.2533 988.012 96.64 987.732 96.12C987.466 95.5867 987.092 95.1733 986.612 94.88C986.146 94.5733 985.606 94.42 984.992 94.42C984.366 94.42 983.812 94.5733 983.332 94.88C982.866 95.1733 982.499 95.5867 982.232 96.12C981.966 96.64 981.832 97.2533 981.832 97.96C981.832 98.6667 981.966 99.2867 982.232 99.82C982.499 100.353 982.866 100.767 983.332 101.06C983.812 101.353 984.366 101.5 984.992 101.5ZM1001.36 103.24C1000.47 103.24 999.652 103.08 998.905 102.76C998.172 102.427 997.585 101.933 997.145 101.28C996.718 100.613 996.492 99.78 996.465 98.78H998.465C998.478 99.2867 998.598 99.7467 998.825 100.16C999.052 100.573 999.378 100.907 999.805 101.16C1000.24 101.4 1000.76 101.52 1001.36 101.52C1001.96 101.52 1002.46 101.407 1002.86 101.18C1003.28 100.953 1003.58 100.647 1003.78 100.26C1004 99.8733 1004.1 99.44 1004.1 98.96C1004.1 98.36 1003.96 97.8733 1003.66 97.5C1003.38 97.1267 1003 96.8467 1002.5 96.66C1002.02 96.4733 1001.48 96.38 1000.88 96.38H999.845V94.7H1000.88C1001.72 94.7 1002.39 94.5067 1002.88 94.12C1003.39 93.7333 1003.64 93.1867 1003.64 92.48C1003.64 91.8933 1003.45 91.4133 1003.06 91.04C1002.68 90.6667 1002.11 90.48 1001.36 90.48C1000.62 90.48 1000.02 90.6933 999.585 91.12C999.158 91.5467 998.918 92.0867 998.865 92.74H996.885C996.925 91.9533 997.132 91.26 997.505 90.66C997.892 90.0467 998.412 89.58 999.065 89.26C999.732 88.9267 1000.5 88.76 1001.36 88.76C1002.3 88.76 1003.08 88.9267 1003.7 89.26C1004.34 89.58 1004.82 90.0133 1005.14 90.56C1005.48 91.1067 1005.64 91.7067 1005.64 92.36C1005.64 92.8533 1005.55 93.3133 1005.36 93.74C1005.18 94.1533 1004.91 94.5133 1004.56 94.82C1004.22 95.1267 1003.8 95.3467 1003.3 95.48C1003.84 95.5867 1004.32 95.7933 1004.74 96.1C1005.17 96.4067 1005.5 96.8067 1005.74 97.3C1005.98 97.78 1006.1 98.34 1006.1 98.98C1006.1 99.74 1005.92 100.447 1005.56 101.1C1005.2 101.74 1004.67 102.26 1003.96 102.66C1003.27 103.047 1002.4 103.24 1001.36 103.24Z" fill="white"/>
<path d="M913.089 133.24C909.793 133.24 907.281 130.712 907.281 127.256C907.281 123.864 909.681 121.272 913.009 121.272C916.001 121.272 917.953 123.144 918.609 125.448H917.249C916.753 123.704 915.297 122.344 912.977 122.344C910.337 122.344 908.513 124.376 908.513 127.272C908.513 130.104 910.353 132.2 913.121 132.2C915.617 132.2 917.201 130.648 917.505 128.232H912.993V127.256H918.753C918.721 130.888 916.481 133.24 913.089 133.24ZM923.919 133.16C921.551 133.16 919.983 131.384 919.983 128.712C919.983 126.248 921.615 124.408 923.855 124.408C926.255 124.408 927.823 126.344 927.631 129.048H921.103C921.199 131.048 922.255 132.28 923.903 132.28C925.311 132.28 926.287 131.496 926.559 130.152H927.663C927.279 132.024 925.855 133.16 923.919 133.16ZM923.839 125.272C922.319 125.272 921.247 126.44 921.103 128.28H926.463C926.367 126.392 925.391 125.272 923.839 125.272ZM933.802 131.928V132.92C933.37 133.096 933.002 133.16 932.586 133.16C931.194 133.16 930.122 132.44 930.122 130.616V125.512H928.138V124.568H930.122V122.072H931.242V124.568H933.882V125.512H931.242V130.376C931.242 131.688 931.882 132.136 932.81 132.136C933.162 132.136 933.45 132.072 933.802 131.928ZM944.103 133V131.464C943.607 132.52 942.583 133.16 941.271 133.16C939.527 133.16 938.391 132.184 938.391 130.664C938.391 129.016 939.703 128.152 942.263 128.152C942.775 128.152 943.159 128.184 943.991 128.248V127.544C943.991 126.136 943.239 125.304 941.959 125.304C940.583 125.304 939.719 126.152 939.703 127.528H938.679C938.727 125.656 940.023 124.408 941.943 124.408C943.911 124.408 945.063 125.56 945.063 127.512V133H944.103ZM939.463 130.632C939.463 131.656 940.247 132.344 941.431 132.344C942.999 132.344 943.991 131.32 943.991 129.736V128.984C943.271 128.92 942.775 128.904 942.311 128.904C940.391 128.904 939.463 129.464 939.463 130.632ZM951.883 128.488V133H950.763V124.568H951.803V126.488C952.379 125.24 953.627 124.44 955.019 124.44V125.608C953.243 125.544 951.883 126.648 951.883 128.488ZM957.844 122.616C957.844 123.112 957.476 123.464 956.932 123.464C956.404 123.464 956.036 123.112 956.036 122.616C956.036 122.136 956.404 121.784 956.932 121.784C957.476 121.784 957.844 122.136 957.844 122.616ZM957.508 133H956.388V124.568H957.508V133ZM966.239 130.648C966.239 132.2 964.991 133.16 962.911 133.16C960.815 133.16 959.535 132.104 959.375 130.36H960.447C960.527 131.56 961.471 132.312 962.911 132.312C964.287 132.312 965.119 131.784 965.119 130.824C965.119 129.992 964.639 129.608 963.359 129.352L962.143 129.112C960.543 128.808 959.695 128.024 959.695 126.808C959.695 125.4 960.943 124.408 962.783 124.408C964.719 124.408 965.999 125.448 966.127 127.128H965.071C964.959 125.96 964.111 125.272 962.783 125.272C961.599 125.272 960.783 125.832 960.783 126.712C960.783 127.544 961.295 127.944 962.543 128.184L963.807 128.424C965.487 128.744 966.239 129.448 966.239 130.648ZM969.305 133H968.185V121.512H969.305V128.488L973.369 124.568H974.697L970.441 128.696L975.049 133H973.593L969.305 128.952V133ZM985.926 130.648C985.926 132.2 984.678 133.16 982.598 133.16C980.502 133.16 979.222 132.104 979.062 130.36H980.134C980.214 131.56 981.158 132.312 982.598 132.312C983.974 132.312 984.806 131.784 984.806 130.824C984.806 129.992 984.326 129.608 983.046 129.352L981.83 129.112C980.23 128.808 979.382 128.024 979.382 126.808C979.382 125.4 980.63 124.408 982.47 124.408C984.406 124.408 985.686 125.448 985.814 127.128H984.758C984.646 125.96 983.798 125.272 982.47 125.272C981.286 125.272 980.47 125.832 980.47 126.712C980.47 127.544 980.982 127.944 982.23 128.184L983.494 128.424C985.174 128.744 985.926 129.448 985.926 130.648ZM991.024 133.176C988.8 133.176 987.248 131.368 987.248 128.776C987.248 126.216 988.816 124.408 991.024 124.408C992.992 124.408 994.4 125.72 994.736 127.832H993.6C993.344 126.296 992.384 125.384 991.024 125.384C989.456 125.384 988.384 126.76 988.384 128.776C988.384 130.824 989.456 132.2 991.024 132.2C992.4 132.2 993.344 131.304 993.6 129.736H994.736C994.432 131.88 993.008 133.176 991.024 133.176ZM999.811 133.16C997.491 133.16 995.811 131.32 995.811 128.776C995.811 126.248 997.491 124.424 999.811 124.424C1002.15 124.424 1003.83 126.248 1003.83 128.776C1003.83 131.32 1002.15 133.16 999.811 133.16ZM999.811 132.184C1001.46 132.184 1002.69 130.872 1002.69 128.776C1002.69 126.712 1001.46 125.4 999.811 125.4C998.179 125.4 996.947 126.712 996.947 128.776C996.947 130.872 998.179 132.184 999.811 132.184ZM1006.76 128.488V133H1005.64V124.568H1006.68V126.488C1007.25 125.24 1008.5 124.44 1009.89 124.44V125.608C1008.12 125.544 1006.76 126.648 1006.76 128.488ZM1014.56 133.16C1012.19 133.16 1010.62 131.384 1010.62 128.712C1010.62 126.248 1012.26 124.408 1014.5 124.408C1016.9 124.408 1018.46 126.344 1018.27 129.048H1011.74C1011.84 131.048 1012.9 132.28 1014.54 132.28C1015.95 132.28 1016.93 131.496 1017.2 130.152H1018.3C1017.92 132.024 1016.5 133.16 1014.56 133.16ZM1014.48 125.272C1012.96 125.272 1011.89 126.44 1011.74 128.28H1017.1C1017.01 126.392 1016.03 125.272 1014.48 125.272ZM1028.65 133V131.464C1028.15 132.52 1027.13 133.16 1025.82 133.16C1024.07 133.16 1022.94 132.184 1022.94 130.664C1022.94 129.016 1024.25 128.152 1026.81 128.152C1027.32 128.152 1027.71 128.184 1028.54 128.248V127.544C1028.54 126.136 1027.79 125.304 1026.51 125.304C1025.13 125.304 1024.27 126.152 1024.25 127.528H1023.23C1023.27 125.656 1024.57 124.408 1026.49 124.408C1028.46 124.408 1029.61 125.56 1029.61 127.512V133H1028.65ZM1024.01 130.632C1024.01 131.656 1024.79 132.344 1025.98 132.344C1027.55 132.344 1028.54 131.32 1028.54 129.736V128.984C1027.82 128.92 1027.32 128.904 1026.86 128.904C1024.94 128.904 1024.01 129.464 1024.01 130.632ZM1033.09 128.088V133H1031.97V124.568H1033.01V126.152C1033.55 125.112 1034.57 124.408 1035.79 124.408C1037.55 124.408 1038.69 125.528 1038.69 127.528V133H1037.57V127.912C1037.57 126.296 1036.83 125.384 1035.45 125.384C1034.14 125.384 1033.09 126.52 1033.09 128.088ZM1040.42 128.776C1040.42 126.184 1041.86 124.408 1044.13 124.408C1045.4 124.408 1046.47 125.128 1047.03 126.328V121.512H1048.15V133H1047.11V131.224C1046.52 132.456 1045.43 133.16 1044.13 133.16C1041.86 133.16 1040.42 131.368 1040.42 128.776ZM1041.56 128.776C1041.56 130.92 1042.64 132.184 1044.29 132.184C1045.92 132.184 1047.04 130.856 1047.04 128.744C1047.04 126.616 1045.89 125.384 1044.29 125.384C1042.64 125.384 1041.56 126.632 1041.56 128.776ZM878.306 155V153.464C877.81 154.52 876.786 155.16 875.474 155.16C873.73 155.16 872.594 154.184 872.594 152.664C872.594 151.016 873.906 150.152 876.466 150.152C876.978 150.152 877.362 150.184 878.194 150.248V149.544C878.194 148.136 877.442 147.304 876.162 147.304C874.786 147.304 873.922 148.152 873.906 149.528H872.882C872.93 147.656 874.226 146.408 876.146 146.408C878.114 146.408 879.266 147.56 879.266 149.512V155H878.306ZM873.666 152.632C873.666 153.656 874.45 154.344 875.634 154.344C877.202 154.344 878.194 153.32 878.194 151.736V150.984C877.474 150.92 876.978 150.904 876.514 150.904C874.594 150.904 873.666 151.464 873.666 152.632ZM884.774 155.176C882.55 155.176 880.998 153.368 880.998 150.776C880.998 148.216 882.566 146.408 884.774 146.408C886.742 146.408 888.15 147.72 888.486 149.832H887.35C887.094 148.296 886.134 147.384 884.774 147.384C883.206 147.384 882.134 148.76 882.134 150.776C882.134 152.824 883.206 154.2 884.774 154.2C886.15 154.2 887.094 153.304 887.35 151.736H888.486C888.182 153.88 886.758 155.176 884.774 155.176ZM894.63 153.928V154.92C894.198 155.096 893.83 155.16 893.414 155.16C892.022 155.16 890.95 154.44 890.95 152.616V147.512H888.966V146.568H890.95V144.072H892.07V146.568H894.71V147.512H892.07V152.376C892.07 153.688 892.71 154.136 893.638 154.136C893.99 154.136 894.278 154.072 894.63 153.928ZM897.86 144.616C897.86 145.112 897.492 145.464 896.948 145.464C896.42 145.464 896.052 145.112 896.052 144.616C896.052 144.136 896.42 143.784 896.948 143.784C897.492 143.784 897.86 144.136 897.86 144.616ZM897.524 155H896.404V146.568H897.524V155ZM903.326 155.16C901.006 155.16 899.326 153.32 899.326 150.776C899.326 148.248 901.006 146.424 903.326 146.424C905.662 146.424 907.342 148.248 907.342 150.776C907.342 153.32 905.662 155.16 903.326 155.16ZM903.326 154.184C904.974 154.184 906.206 152.872 906.206 150.776C906.206 148.712 904.974 147.4 903.326 147.4C901.694 147.4 900.462 148.712 900.462 150.776C900.462 152.872 901.694 154.184 903.326 154.184ZM910.274 150.088V155H909.154V146.568H910.194V148.152C910.738 147.112 911.762 146.408 912.978 146.408C914.738 146.408 915.874 147.528 915.874 149.528V155H914.754V149.912C914.754 148.296 914.018 147.384 912.641 147.384C911.33 147.384 910.274 148.52 910.274 150.088ZM923.416 155V153.464C922.92 154.52 921.896 155.16 920.584 155.16C918.84 155.16 917.704 154.184 917.704 152.664C917.704 151.016 919.016 150.152 921.576 150.152C922.088 150.152 922.472 150.184 923.304 150.248V149.544C923.304 148.136 922.552 147.304 921.272 147.304C919.896 147.304 919.032 148.152 919.016 149.528H917.992C918.04 147.656 919.336 146.408 921.256 146.408C923.224 146.408 924.376 147.56 924.376 149.512V155H923.416ZM918.776 152.632C918.776 153.656 919.56 154.344 920.744 154.344C922.312 154.344 923.304 153.32 923.304 151.736V150.984C922.584 150.92 922.088 150.904 921.624 150.904C919.704 150.904 918.776 151.464 918.776 152.632ZM934.46 150.776C934.46 153.368 933.004 155.16 930.748 155.16C929.452 155.16 928.364 154.456 927.772 153.224V155H926.732V143.512H927.852V148.344C928.396 147.112 929.468 146.408 930.748 146.408C933.004 146.408 934.46 148.184 934.46 150.776ZM933.324 150.776C933.324 148.632 932.22 147.384 930.572 147.384C928.988 147.384 927.836 148.616 927.836 150.744C927.836 152.856 928.956 154.184 930.572 154.184C932.22 154.184 933.324 152.92 933.324 150.776ZM937.383 155H936.263V143.512H937.383V155ZM943.122 155.16C940.754 155.16 939.186 153.384 939.186 150.712C939.186 148.248 940.818 146.408 943.058 146.408C945.458 146.408 947.026 148.344 946.834 151.048H940.306C940.402 153.048 941.458 154.28 943.106 154.28C944.514 154.28 945.49 153.496 945.762 152.152H946.866C946.482 154.024 945.058 155.16 943.122 155.16ZM943.042 147.272C941.522 147.272 940.45 148.44 940.306 150.28H945.666C945.57 148.392 944.594 147.272 943.042 147.272ZM953.149 150.488V155H952.029V146.568H953.069V148.488C953.645 147.24 954.893 146.44 956.285 146.44V147.608C954.509 147.544 953.149 148.648 953.149 150.488ZM960.95 155.16C958.582 155.16 957.014 153.384 957.014 150.712C957.014 148.248 958.646 146.408 960.886 146.408C963.286 146.408 964.854 148.344 964.662 151.048H958.134C958.23 153.048 959.286 154.28 960.934 154.28C962.342 154.28 963.318 153.496 963.59 152.152H964.694C964.31 154.024 962.886 155.16 960.95 155.16ZM960.87 147.272C959.35 147.272 958.278 148.44 958.134 150.28H963.494C963.398 148.392 962.422 147.272 960.87 147.272ZM969.509 155.176C967.285 155.176 965.733 153.368 965.733 150.776C965.733 148.216 967.301 146.408 969.509 146.408C971.477 146.408 972.885 147.72 973.221 149.832H972.085C971.829 148.296 970.869 147.384 969.509 147.384C967.941 147.384 966.869 148.76 966.869 150.776C966.869 152.824 967.941 154.2 969.509 154.2C970.885 154.2 971.829 153.304 972.085 151.736H973.221C972.917 153.88 971.493 155.176 969.509 155.176ZM978.295 155.16C975.975 155.16 974.295 153.32 974.295 150.776C974.295 148.248 975.975 146.424 978.295 146.424C980.631 146.424 982.311 148.248 982.311 150.776C982.311 153.32 980.631 155.16 978.295 155.16ZM978.295 154.184C979.943 154.184 981.175 152.872 981.175 150.776C981.175 148.712 979.943 147.4 978.295 147.4C976.663 147.4 975.431 148.712 975.431 150.776C975.431 152.872 976.663 154.184 978.295 154.184ZM985.242 155H984.122V146.568H985.162V148.152C985.722 147.064 986.714 146.408 987.914 146.408C989.226 146.408 990.202 147.128 990.554 148.36C991.082 147.176 992.138 146.408 993.466 146.408C995.21 146.408 996.298 147.56 996.298 149.528V155H995.194V149.896C995.194 148.296 994.458 147.384 993.098 147.384C991.818 147.384 990.778 148.504 990.778 150.056V155H989.658V149.896C989.658 148.296 988.922 147.384 987.562 147.384C986.266 147.384 985.242 148.504 985.242 150.056V155ZM999.774 155H998.654V146.568H999.694V148.152C1000.25 147.064 1001.25 146.408 1002.45 146.408C1003.76 146.408 1004.73 147.128 1005.09 148.36C1005.61 147.176 1006.67 146.408 1008 146.408C1009.74 146.408 1010.83 147.56 1010.83 149.528V155H1009.73V149.896C1009.73 148.296 1008.99 147.384 1007.63 147.384C1006.35 147.384 1005.31 148.504 1005.31 150.056V155H1004.19V149.896C1004.19 148.296 1003.45 147.384 1002.09 147.384C1000.8 147.384 999.774 148.504 999.774 150.056V155ZM1016.5 155.16C1014.13 155.16 1012.56 153.384 1012.56 150.712C1012.56 148.248 1014.19 146.408 1016.43 146.408C1018.83 146.408 1020.4 148.344 1020.21 151.048H1013.68C1013.78 153.048 1014.83 154.28 1016.48 154.28C1017.89 154.28 1018.86 153.496 1019.14 152.152H1020.24C1019.86 154.024 1018.43 155.16 1016.5 155.16ZM1016.42 147.272C1014.9 147.272 1013.82 148.44 1013.68 150.28H1019.04C1018.94 148.392 1017.97 147.272 1016.42 147.272ZM1023.18 150.088V155H1022.06V146.568H1023.1V148.152C1023.64 147.112 1024.67 146.408 1025.88 146.408C1027.64 146.408 1028.78 147.528 1028.78 149.528V155H1027.66V149.912C1027.66 148.296 1026.92 147.384 1025.55 147.384C1024.24 147.384 1023.18 148.52 1023.18 150.088ZM1030.51 150.776C1030.51 148.184 1031.95 146.408 1034.23 146.408C1035.49 146.408 1036.56 147.128 1037.12 148.328V143.512H1038.24V155H1037.2V153.224C1036.61 154.456 1035.52 155.16 1034.23 155.16C1031.95 155.16 1030.51 153.368 1030.51 150.776ZM1031.65 150.776C1031.65 152.92 1032.74 154.184 1034.39 154.184C1036.02 154.184 1037.14 152.856 1037.14 150.744C1037.14 148.616 1035.99 147.384 1034.39 147.384C1032.74 147.384 1031.65 148.632 1031.65 150.776ZM1045.85 155V153.464C1045.36 154.52 1044.33 155.16 1043.02 155.16C1041.28 155.16 1040.14 154.184 1040.14 152.664C1040.14 151.016 1041.45 150.152 1044.01 150.152C1044.53 150.152 1044.91 150.184 1045.74 150.248V149.544C1045.74 148.136 1044.99 147.304 1043.71 147.304C1042.33 147.304 1041.47 148.152 1041.45 149.528H1040.43C1040.48 147.656 1041.77 146.408 1043.69 146.408C1045.66 146.408 1046.81 147.56 1046.81 149.512V155H1045.85ZM1041.21 152.632C1041.21 153.656 1042 154.344 1043.18 154.344C1044.75 154.344 1045.74 153.32 1045.74 151.736V150.984C1045.02 150.92 1044.53 150.904 1044.06 150.904C1042.14 150.904 1041.21 151.464 1041.21 152.632ZM1053.46 153.928V154.92C1053.03 155.096 1052.66 155.16 1052.24 155.16C1050.85 155.16 1049.78 154.44 1049.78 152.616V147.512H1047.79V146.568H1049.78V144.072H1050.9V146.568H1053.54V147.512H1050.9V152.376C1050.9 153.688 1051.54 154.136 1052.47 154.136C1052.82 154.136 1053.11 154.072 1053.46 153.928ZM1056.69 144.616C1056.69 145.112 1056.32 145.464 1055.78 145.464C1055.25 145.464 1054.88 145.112 1054.88 144.616C1054.88 144.136 1055.25 143.784 1055.78 143.784C1056.32 143.784 1056.69 144.136 1056.69 144.616ZM1056.35 155H1055.23V146.568H1056.35V155ZM1062.15 155.16C1059.83 155.16 1058.15 153.32 1058.15 150.776C1058.15 148.248 1059.83 146.424 1062.15 146.424C1064.49 146.424 1066.17 148.248 1066.17 150.776C1066.17 153.32 1064.49 155.16 1062.15 155.16ZM1062.15 154.184C1063.8 154.184 1065.03 152.872 1065.03 150.776C1065.03 148.712 1063.8 147.4 1062.15 147.4C1060.52 147.4 1059.29 148.712 1059.29 150.776C1059.29 152.872 1060.52 154.184 1062.15 154.184ZM1069.1 150.088V155H1067.98V146.568H1069.02V148.152C1069.57 147.112 1070.59 146.408 1071.81 146.408C1073.57 146.408 1074.7 147.528 1074.7 149.528V155H1073.58V149.912C1073.58 148.296 1072.85 147.384 1071.47 147.384C1070.16 147.384 1069.1 148.52 1069.1 150.088ZM1083.36 152.648C1083.36 154.2 1082.12 155.16 1080.04 155.16C1077.94 155.16 1076.66 154.104 1076.5 152.36H1077.57C1077.65 153.56 1078.6 154.312 1080.04 154.312C1081.41 154.312 1082.24 153.784 1082.24 152.824C1082.24 151.992 1081.76 151.608 1080.48 151.352L1079.27 151.112C1077.67 150.808 1076.82 150.024 1076.82 148.808C1076.82 147.4 1078.07 146.408 1079.91 146.408C1081.84 146.408 1083.12 147.448 1083.25 149.128H1082.2C1082.08 147.96 1081.24 147.272 1079.91 147.272C1078.72 147.272 1077.91 147.832 1077.91 148.712C1077.91 149.544 1078.42 149.944 1079.67 150.184L1080.93 150.424C1082.61 150.744 1083.36 151.448 1083.36 152.648ZM948.149 166.616C948.149 167.112 947.781 167.464 947.237 167.464C946.709 167.464 946.341 167.112 946.341 166.616C946.341 166.136 946.709 165.784 947.237 165.784C947.781 165.784 948.149 166.136 948.149 166.616ZM947.813 177H946.693V168.568H947.813V177ZM951.359 172.088V177H950.239V168.568H951.279V170.152C951.823 169.112 952.847 168.408 954.063 168.408C955.823 168.408 956.959 169.528 956.959 171.528V177H955.839V171.912C955.839 170.296 955.103 169.384 953.727 169.384C952.415 169.384 951.359 170.52 951.359 172.088ZM965.622 174.648C965.622 176.2 964.374 177.16 962.294 177.16C960.198 177.16 958.918 176.104 958.758 174.36H959.83C959.91 175.56 960.854 176.312 962.294 176.312C963.67 176.312 964.502 175.784 964.502 174.824C964.502 173.992 964.022 173.608 962.742 173.352L961.526 173.112C959.926 172.808 959.078 172.024 959.078 170.808C959.078 169.4 960.326 168.408 962.166 168.408C964.102 168.408 965.382 169.448 965.51 171.128H964.454C964.342 169.96 963.494 169.272 962.166 169.272C960.982 169.272 960.166 169.832 960.166 170.712C960.166 171.544 960.678 171.944 961.926 172.184L963.19 172.424C964.87 172.744 965.622 173.448 965.622 174.648ZM971.841 175.928V176.92C971.409 177.096 971.041 177.16 970.625 177.16C969.233 177.16 968.161 176.44 968.161 174.616V169.512H966.177V168.568H968.161V166.072H969.281V168.568H971.921V169.512H969.281V174.376C969.281 175.688 969.921 176.136 970.849 176.136C971.201 176.136 971.489 176.072 971.841 175.928ZM978.798 177V175.464C978.302 176.52 977.278 177.16 975.966 177.16C974.222 177.16 973.086 176.184 973.086 174.664C973.086 173.016 974.398 172.152 976.958 172.152C977.47 172.152 977.854 172.184 978.686 172.248V171.544C978.686 170.136 977.934 169.304 976.654 169.304C975.278 169.304 974.414 170.152 974.398 171.528H973.374C973.422 169.656 974.718 168.408 976.638 168.408C978.606 168.408 979.758 169.56 979.758 171.512V177H978.798ZM974.158 174.632C974.158 175.656 974.942 176.344 976.126 176.344C977.694 176.344 978.686 175.32 978.686 173.736V172.984C977.966 172.92 977.47 172.904 977.006 172.904C975.086 172.904 974.158 173.464 974.158 174.632ZM983.234 172.088V177H982.114V168.568H983.154V170.152C983.698 169.112 984.722 168.408 985.938 168.408C987.698 168.408 988.834 169.528 988.834 171.528V177H987.714V171.912C987.714 170.296 986.978 169.384 985.602 169.384C984.29 169.384 983.234 170.52 983.234 172.088ZM995.513 175.928V176.92C995.081 177.096 994.713 177.16 994.297 177.16C992.905 177.16 991.833 176.44 991.833 174.616V169.512H989.849V168.568H991.833V166.072H992.953V168.568H995.593V169.512H992.953V174.376C992.953 175.688 993.593 176.136 994.521 176.136C994.873 176.136 995.161 176.072 995.513 175.928ZM998.406 177H997.286V165.512H998.406V177ZM1007.33 168.568L1003.01 180.088H1001.81L1003.04 176.888L999.697 168.568H1000.9L1003.62 175.544L1006.19 168.568H1007.33ZM1009.47 176.072C1009.47 176.648 1009.05 177.08 1008.46 177.08C1007.89 177.08 1007.45 176.648 1007.45 176.072C1007.45 175.464 1007.89 175.048 1008.46 175.048C1009.05 175.048 1009.47 175.464 1009.47 176.072Z" fill="white" fill-opacity="0.6"/>
<defs>
<linearGradient id="paint0_linear_1770_589" x1="598.505" y1="-863.342" x2="598.505" y2="183.099" gradientUnits="userSpaceOnUse">
<stop stop-color="#99E39E"/>
<stop offset="1" stop-color="#99E39E" stop-opacity="0"/>
</linearGradient>
</defs>
</svg>
