<svg width="1500" height="382" viewBox="0 0 1500 382" fill="none" xmlns="http://www.w3.org/2000/svg">
<path d="M58.1787 133.25H43.3746H27.2246V351.882H1459.19V154.54L1365.66 89.8513L1311.82 100.496L1276.82 89.8513L1238.48 100.496L1189.88 47.1686L1126.77 100.496L1037.27 113.598L993.531 89.8513L930.95 107.866H891.247L827.993 81.663L790.938 75.531L769.45 51.3657L746.571 33.351L689.373 89.8513H662.457L640.251 102.134H607.95L572.959 121.786L519.126 113.598L473.367 126.699L365.701 102.134L301.242 50.8048L265.437 96.4022L191.415 121.786H141.62L79.0391 137.344L58.1787 133.25Z" fill="url(#paint0_linear_1770_589)"/>
<path d="M63.3759 137.003C59.153 136.153 54.8562 135.725 50.5487 135.725H42.2097V135.725C33.0184 135.725 25.3072 142.657 24.3327 151.797L13.4262 254.083C6.25328 321.354 58.9787 380 126.631 380H1363.36C1434.47 380 1488.17 315.544 1475.34 245.608L1467.54 203.109C1462.19 173.913 1445.64 147.964 1421.43 130.793L1393.73 111.151C1375.77 98.4115 1353.34 93.6677 1331.76 98.0439L1328.33 98.7377C1317.42 100.95 1306.13 100.372 1295.5 97.0575L1289.2 95.0926C1281.03 92.5433 1272.29 92.434 1264.05 94.7782V94.7782C1248.23 99.282 1231.22 94.5848 1219.95 82.6011L1218.72 81.2978C1201.34 62.8168 1172.42 61.487 1153.42 78.2949L1140.76 89.4948C1131.45 97.7287 1119.96 103.092 1107.67 104.937L1059.12 112.224C1044.73 114.384 1030.03 111.716 1017.31 104.636V104.636C1001.86 96.0329 983.59 94.0067 966.626 99.0143L946.294 105.016C935.829 108.105 924.931 109.673 914.02 109.673V109.673C898.725 109.673 883.524 106.591 869.447 100.611L835.795 86.3164C830.263 83.9667 824.499 82.2086 818.597 81.0715L817.065 80.7763C800.099 77.5073 784.634 68.8666 772.957 56.1313L770.403 53.346C769.391 52.2425 768.298 51.2162 767.133 50.2757V50.2757C755.127 40.5821 737.73 41.5623 726.889 52.5432L700.341 79.4339C692.918 86.953 682.792 91.1854 672.226 91.1854V91.1854C665.393 91.1854 658.677 92.9574 652.734 96.3283L650.689 97.4882C643.406 101.619 635.175 103.791 626.802 103.791H623.521C612.861 103.791 602.388 106.591 593.151 111.911L592.137 112.495C579.254 119.915 564.222 122.711 549.532 120.419L539.285 118.821C525.5 116.671 511.411 117.594 498.024 121.524L497.324 121.73C481.089 126.496 463.897 126.976 447.423 123.121L379.824 107.306C369.947 104.995 360.749 100.4 352.97 93.8903L335.748 79.4792C316.404 63.2933 287.419 66.7682 272.449 87.0675V87.0675C267.24 94.1312 260.027 99.4652 251.748 102.377L208.706 117.513C196.571 121.78 183.801 123.96 170.939 123.96H154.819C145.334 123.96 135.886 125.145 126.695 127.488L92.2633 136.266C82.8113 138.675 72.9384 138.927 63.3759 137.003V137.003Z" stroke="#99E39E" stroke-width="2.43956"/>
<rect x="265.121" y="31.6868" width="104.088" height="104.088" rx="52.044" fill="white" fill-opacity="0.1"/>
<mask id="mask0_1770_589" style="mask-type:alpha" maskUnits="userSpaceOnUse" x="291" y="57" width="53" height="53">
<rect x="291.144" y="57.7088" width="52.044" height="52.044" fill="#D9D9D9"/>
</mask>
<g mask="url(#mask0_1770_589)">
<path d="M309.909 82.313H312.495V69.9689H306.657V72.5548H309.909V82.313ZM317.499 82.313H324.672C325.217 82.313 325.673 82.1294 326.04 81.7622C326.407 81.3954 326.59 80.9395 326.59 80.3945V77.1C326.59 76.5553 326.407 76.0994 326.04 75.7322C325.673 75.3654 325.217 75.1819 324.672 75.1819H320.085V72.5548H326.59V69.9689H317.499V77.1H324.005V79.7271H317.499V82.313ZM304.488 97.4925H307.074V87.7343H309.909V94.2398H312.495V87.7343H315.331V97.4925H317.916V86.9834C317.916 86.4525 317.743 86.0139 317.397 85.6677C317.051 85.3215 316.612 85.1484 316.081 85.1484H306.323C305.792 85.1484 305.354 85.3215 305.007 85.6677C304.661 86.0139 304.488 86.4525 304.488 86.9834V97.4925ZM320.752 97.4925H323.338V94.2398H328.008C328.539 94.2398 328.978 94.0667 329.324 93.7204C329.67 93.3742 329.843 92.9356 329.843 92.4047V86.9834C329.843 86.4525 329.67 86.0139 329.324 85.6677C328.978 85.3215 328.539 85.1484 328.008 85.1484H320.752V97.4925ZM323.338 91.6538V87.7343H327.257V91.6538H323.338ZM302.654 102.163C301.558 102.163 300.631 101.783 299.872 101.024C299.113 100.265 298.733 99.3383 298.733 98.2428V69.2186C298.733 68.1231 299.113 67.1959 299.872 66.4369C300.631 65.6779 301.558 65.2985 302.654 65.2985H331.678C332.773 65.2985 333.7 65.6779 334.459 66.4369C335.218 67.1959 335.598 68.1231 335.598 69.2186V98.2428C335.598 99.3383 335.218 100.265 334.459 101.024C333.7 101.783 332.773 102.163 331.678 102.163H302.654ZM302.654 98.9102H331.678C331.845 98.9102 331.998 98.8406 332.136 98.7015C332.276 98.5627 332.345 98.4098 332.345 98.2428V69.2186C332.345 69.0516 332.276 68.8987 332.136 68.7599C331.998 68.6208 331.845 68.5512 331.678 68.5512H302.654C302.487 68.5512 302.334 68.6208 302.195 68.7599C302.056 68.8987 301.986 69.0516 301.986 69.2186V98.2428C301.986 98.4098 302.056 98.5627 302.195 98.7015C302.334 98.8406 302.487 98.9102 302.654 98.9102Z" fill="#99E39E"/>
</g>
<path d="M282.988 199.693C281.319 199.693 279.855 199.4 278.597 198.814C277.339 198.207 276.364 197.361 275.67 196.277C274.976 195.193 274.629 193.924 274.629 192.471H278.044C278.066 193.295 278.261 194.054 278.63 194.748C279.02 195.421 279.573 195.963 280.289 196.375C281.026 196.765 281.926 196.96 282.988 196.96C283.899 196.96 284.68 196.808 285.33 196.505C286.003 196.201 286.512 195.789 286.859 195.269C287.206 194.727 287.38 194.109 287.38 193.415C287.38 192.612 287.195 191.951 286.827 191.431C286.458 190.91 285.959 190.487 285.33 190.162C284.723 189.815 284.008 189.511 283.184 189.251C282.381 188.991 281.535 188.709 280.646 188.406C278.847 187.82 277.502 187.061 276.613 186.129C275.746 185.196 275.312 183.982 275.312 182.486C275.312 181.206 275.615 180.1 276.223 179.168C276.83 178.214 277.676 177.476 278.76 176.956C279.866 176.414 281.167 176.143 282.663 176.143C284.138 176.143 285.428 176.414 286.534 176.956C287.64 177.498 288.507 178.246 289.136 179.2C289.765 180.154 290.079 181.271 290.079 182.551H286.631C286.631 181.965 286.48 181.39 286.176 180.827C285.872 180.263 285.417 179.807 284.81 179.46C284.203 179.092 283.455 178.907 282.565 178.907C281.828 178.886 281.167 179.005 280.581 179.265C279.996 179.526 279.54 179.905 279.215 180.404C278.89 180.903 278.727 181.499 278.727 182.193C278.727 182.887 278.868 183.45 279.15 183.884C279.454 184.296 279.887 184.654 280.451 184.958C281.015 185.261 281.666 185.543 282.403 185.803C283.162 186.042 283.997 186.313 284.907 186.617C286.035 186.985 287.033 187.441 287.9 187.983C288.789 188.503 289.483 189.186 289.982 190.032C290.502 190.856 290.762 191.918 290.762 193.22C290.762 194.347 290.47 195.399 289.884 196.375C289.299 197.351 288.431 198.153 287.282 198.782C286.133 199.389 284.701 199.693 282.988 199.693ZM300.583 199.302C299.542 199.302 298.642 199.14 297.883 198.814C297.124 198.489 296.539 197.947 296.127 197.188C295.715 196.429 295.509 195.399 295.509 194.098V185.673H292.679V182.908H295.509L295.899 178.81H298.761V182.908H303.413V185.673H298.761V194.13C298.761 195.063 298.957 195.703 299.347 196.049C299.737 196.375 300.409 196.537 301.364 196.537H303.25V199.302H300.583ZM313.321 199.693C311.759 199.693 310.372 199.335 309.157 198.619C307.943 197.904 306.989 196.906 306.295 195.627C305.623 194.347 305.286 192.862 305.286 191.17C305.286 189.436 305.623 187.928 306.295 186.649C306.989 185.348 307.943 184.34 309.157 183.624C310.372 182.887 311.781 182.518 313.386 182.518C314.99 182.518 316.367 182.876 317.517 183.591C318.666 184.307 319.555 185.261 320.184 186.454C320.813 187.625 321.127 188.926 321.127 190.357C321.127 190.574 321.116 190.813 321.095 191.073C321.095 191.311 321.084 191.582 321.062 191.886H307.661V189.577H317.875C317.81 188.21 317.354 187.148 316.508 186.389C315.663 185.608 314.611 185.218 313.353 185.218C312.464 185.218 311.651 185.424 310.914 185.836C310.176 186.226 309.58 186.812 309.125 187.592C308.691 188.351 308.474 189.316 308.474 190.487V191.398C308.474 192.612 308.691 193.642 309.125 194.488C309.58 195.312 310.176 195.941 310.914 196.375C311.651 196.787 312.453 196.993 313.321 196.993C314.362 196.993 315.218 196.765 315.89 196.31C316.563 195.854 317.061 195.236 317.387 194.456H320.639C320.357 195.453 319.88 196.353 319.208 197.155C318.536 197.936 317.701 198.554 316.704 199.009C315.728 199.465 314.6 199.693 313.321 199.693ZM324.091 206.458V182.908H327.018L327.343 185.446C327.69 184.947 328.124 184.481 328.644 184.047C329.165 183.591 329.783 183.223 330.499 182.941C331.236 182.659 332.092 182.518 333.068 182.518C334.63 182.518 335.996 182.898 337.167 183.656C338.359 184.415 339.281 185.446 339.931 186.747C340.604 188.026 340.94 189.49 340.94 191.138C340.94 192.786 340.604 194.26 339.931 195.562C339.259 196.841 338.327 197.849 337.134 198.587C335.963 199.324 334.597 199.693 333.036 199.693C331.756 199.693 330.629 199.443 329.653 198.944C328.677 198.424 327.907 197.708 327.343 196.798V206.458H324.091ZM332.515 196.863C333.513 196.863 334.391 196.624 335.15 196.147C335.931 195.67 336.538 194.998 336.971 194.13C337.427 193.263 337.655 192.255 337.655 191.105C337.655 189.956 337.427 188.958 336.971 188.113C336.538 187.245 335.931 186.573 335.15 186.096C334.391 185.597 333.513 185.348 332.515 185.348C331.496 185.348 330.596 185.597 329.815 186.096C329.056 186.573 328.46 187.245 328.026 188.113C327.593 188.958 327.376 189.956 327.376 191.105C327.376 192.255 327.593 193.263 328.026 194.13C328.46 194.998 329.056 195.67 329.815 196.147C330.596 196.624 331.496 196.863 332.515 196.863ZM354.524 199.302V180.209L350.556 181.217V178.777L355.728 176.533H357.842V199.302H354.524Z" fill="white"/>
<path d="M136.467 246.622V248.313H125.251V229.629H136.285V231.321H127.203V237.826H135.504V239.518H127.203V246.622H136.467ZM141.783 240.324V248.313H139.962V234.6H141.653V237.176C142.538 235.484 144.203 234.339 146.181 234.339C149.044 234.339 150.891 236.161 150.891 239.414V248.313H149.07V240.038C149.07 237.41 147.873 235.927 145.635 235.927C143.501 235.927 141.783 237.774 141.783 240.324ZM161.753 246.57V248.183C161.05 248.469 160.452 248.573 159.775 248.573C157.511 248.573 155.768 247.402 155.768 244.436V236.135H152.541V234.6H155.768V230.54H157.589V234.6H161.883V236.135H157.589V244.046C157.589 246.179 158.63 246.908 160.139 246.908C160.712 246.908 161.18 246.804 161.753 246.57ZM169.592 248.573C165.74 248.573 163.19 245.685 163.19 241.339C163.19 237.332 165.844 234.339 169.487 234.339C173.391 234.339 175.941 237.488 175.629 241.886H165.012C165.168 245.139 166.885 247.142 169.566 247.142C171.855 247.142 173.443 245.867 173.885 243.681H175.681C175.056 246.726 172.74 248.573 169.592 248.573ZM169.461 235.745C166.989 235.745 165.246 237.644 165.012 240.637H173.729C173.573 237.566 171.986 235.745 169.461 235.745ZM180.461 240.975V248.313H178.639V234.6H180.331V237.722C181.267 235.693 183.297 234.391 185.561 234.391V236.291C182.672 236.187 180.461 237.982 180.461 240.975ZM200.278 246.57V248.183C199.575 248.469 198.976 248.573 198.3 248.573C196.036 248.573 194.293 247.402 194.293 244.436V236.135H191.066V234.6H194.293V230.54H196.114V234.6H200.408V236.135H196.114V244.046C196.114 246.179 197.155 246.908 198.664 246.908C199.237 246.908 199.705 246.804 200.278 246.57ZM204.983 240.324V248.313H203.162V229.629H204.983V237.124C205.842 235.484 207.403 234.339 209.381 234.339C212.243 234.339 214.091 236.161 214.091 239.414V248.313H212.269V240.038C212.269 237.41 211.072 235.927 208.835 235.927C206.701 235.927 204.983 237.774 204.983 240.324ZM223.313 248.573C219.461 248.573 216.911 245.685 216.911 241.339C216.911 237.332 219.566 234.339 223.209 234.339C227.112 234.339 229.662 237.488 229.35 241.886H218.733C218.889 245.139 220.606 247.142 223.287 247.142C225.577 247.142 227.164 245.867 227.606 243.681H229.402C228.777 246.726 226.461 248.573 223.313 248.573ZM223.183 235.745C220.711 235.745 218.967 237.644 218.733 240.637H227.45C227.294 237.566 225.707 235.745 223.183 235.745ZM249.222 248.313L245.631 237.02L242.066 248.313H240.218L236.211 234.6H238.007L241.181 245.737L244.746 234.6H246.542L250.081 245.763L253.255 234.6H255.077L251.044 248.313H249.222ZM265.466 248.313V245.815C264.66 247.533 262.994 248.573 260.861 248.573C258.024 248.573 256.177 246.986 256.177 244.514C256.177 241.834 258.31 240.429 262.474 240.429C263.307 240.429 263.931 240.481 265.284 240.585V239.44C265.284 237.15 264.061 235.797 261.98 235.797C259.742 235.797 258.336 237.176 258.31 239.414H256.645C256.723 236.369 258.831 234.339 261.954 234.339C265.154 234.339 267.028 236.213 267.028 239.388V248.313H265.466ZM257.92 244.462C257.92 246.127 259.195 247.246 261.121 247.246C263.671 247.246 265.284 245.581 265.284 243.005V241.782C264.113 241.678 263.307 241.652 262.552 241.652C259.429 241.652 257.92 242.562 257.92 244.462ZM272.681 248.313H270.86V229.629H272.681V248.313ZM278.45 248.313H276.628V229.629H278.45V248.313ZM287.783 248.573C283.932 248.573 281.382 245.685 281.382 241.339C281.382 237.332 284.036 234.339 287.679 234.339C291.582 234.339 294.133 237.488 293.82 241.886H283.203C283.359 245.139 285.077 247.142 287.757 247.142C290.047 247.142 291.634 245.867 292.077 243.681H293.872C293.248 246.726 290.932 248.573 287.783 248.573ZM287.653 235.745C285.181 235.745 283.438 237.644 283.203 240.637H291.921C291.765 237.566 290.177 235.745 287.653 235.745ZM303.857 246.57V248.183C303.155 248.469 302.556 248.573 301.88 248.573C299.616 248.573 297.872 247.402 297.872 244.436V236.135H294.645V234.6H297.872V230.54H299.694V234.6H303.987V236.135H299.694V244.046C299.694 246.179 300.735 246.908 302.244 246.908C302.816 246.908 303.285 246.804 303.857 246.57ZM320.611 248.313V245.815C319.804 247.533 318.139 248.573 316.005 248.573C313.168 248.573 311.321 246.986 311.321 244.514C311.321 241.834 313.455 240.429 317.618 240.429C318.451 240.429 319.075 240.481 320.429 240.585V239.44C320.429 237.15 319.206 235.797 317.124 235.797C314.886 235.797 313.481 237.176 313.455 239.414H311.789C311.867 236.369 313.975 234.339 317.098 234.339C320.298 234.339 322.172 236.213 322.172 239.388V248.313H320.611ZM313.064 244.462C313.064 246.127 314.339 247.246 316.265 247.246C318.815 247.246 320.429 245.581 320.429 243.005V241.782C319.258 241.678 318.451 241.652 317.696 241.652C314.574 241.652 313.064 242.562 313.064 244.462ZM324.989 241.443C324.989 237.228 327.331 234.339 331.026 234.339C333.082 234.339 334.825 235.51 335.736 237.462V229.629H337.558V248.313H335.866V245.425C334.903 247.428 333.134 248.573 331.026 248.573C327.331 248.573 324.989 245.659 324.989 241.443ZM326.836 241.443C326.836 244.93 328.606 246.986 331.286 246.986C333.94 246.986 335.762 244.826 335.762 241.391C335.762 237.93 333.888 235.927 331.286 235.927C328.606 235.927 326.836 237.956 326.836 241.443ZM340.49 241.443C340.49 237.228 342.832 234.339 346.527 234.339C348.583 234.339 350.327 235.51 351.237 237.462V229.629H353.059V248.313H351.367V245.425C350.405 247.428 348.635 248.573 346.527 248.573C342.832 248.573 340.49 245.659 340.49 241.443ZM342.338 241.443C342.338 244.93 344.107 246.986 346.788 246.986C349.442 246.986 351.263 244.826 351.263 241.391C351.263 237.93 349.39 235.927 346.788 235.927C344.107 235.927 342.338 237.956 342.338 241.443ZM358.828 240.975V248.313H357.007V234.6H358.698V237.722C359.635 235.693 361.664 234.391 363.928 234.391V236.291C361.04 236.187 358.828 237.982 358.828 240.975ZM371.516 248.573C367.665 248.573 365.115 245.685 365.115 241.339C365.115 237.332 367.769 234.339 371.412 234.339C375.315 234.339 377.865 237.488 377.553 241.886H366.936C367.092 245.139 368.81 247.142 371.49 247.142C373.78 247.142 375.367 245.867 375.81 243.681H377.605C376.981 246.726 374.665 248.573 371.516 248.573ZM371.386 235.745C368.914 235.745 367.17 237.644 366.936 240.637H375.654C375.497 237.566 373.91 235.745 371.386 235.745ZM390.816 244.488C390.816 247.012 388.786 248.573 385.404 248.573C381.995 248.573 379.913 246.856 379.653 244.02H381.396C381.526 245.971 383.062 247.194 385.404 247.194C387.641 247.194 388.995 246.336 388.995 244.774C388.995 243.421 388.214 242.797 386.132 242.38L384.155 241.99C381.552 241.495 380.173 240.22 380.173 238.243C380.173 235.953 382.203 234.339 385.195 234.339C388.344 234.339 390.426 236.031 390.634 238.763H388.917C388.734 236.864 387.355 235.745 385.195 235.745C383.27 235.745 381.943 236.655 381.943 238.087C381.943 239.44 382.775 240.09 384.805 240.481L386.861 240.871C389.593 241.391 390.816 242.536 390.816 244.488ZM404.234 244.488C404.234 247.012 402.204 248.573 398.821 248.573C395.412 248.573 393.331 246.856 393.07 244.02H394.814C394.944 245.971 396.479 247.194 398.821 247.194C401.059 247.194 402.412 246.336 402.412 244.774C402.412 243.421 401.632 242.797 399.55 242.38L397.572 241.99C394.97 241.495 393.591 240.22 393.591 238.243C393.591 235.953 395.621 234.339 398.613 234.339C401.762 234.339 403.843 236.031 404.052 238.763H402.334C402.152 236.864 400.773 235.745 398.613 235.745C396.687 235.745 395.36 236.655 395.36 238.087C395.36 239.44 396.193 240.09 398.223 240.481L400.278 240.871C403.011 241.391 404.234 242.536 404.234 244.488ZM418.328 248.573C414.554 248.573 411.822 245.581 411.822 241.443C411.822 237.332 414.554 234.365 418.328 234.365C422.127 234.365 424.859 237.332 424.859 241.443C424.859 245.581 422.127 248.573 418.328 248.573ZM418.328 246.986C421.008 246.986 423.011 244.852 423.011 241.443C423.011 238.087 421.008 235.953 418.328 235.953C415.673 235.953 413.67 238.087 413.67 241.443C413.67 244.852 415.673 246.986 418.328 246.986ZM429.626 240.975V248.313H427.805V234.6H429.496V237.722C430.433 235.693 432.463 234.391 434.726 234.391V236.291C431.838 236.187 429.626 237.982 429.626 240.975ZM452.644 244.488C452.644 247.012 450.614 248.573 447.231 248.573C443.822 248.573 441.741 246.856 441.48 244.02H443.224C443.354 245.971 444.889 247.194 447.231 247.194C449.469 247.194 450.822 246.336 450.822 244.774C450.822 243.421 450.042 242.797 447.96 242.38L445.982 241.99C443.38 241.495 442.001 240.22 442.001 238.243C442.001 235.953 444.031 234.339 447.023 234.339C450.172 234.339 452.253 236.031 452.462 238.763H450.744C450.562 236.864 449.183 235.745 447.023 235.745C445.097 235.745 443.77 236.655 443.77 238.087C443.77 239.44 444.603 240.09 446.633 240.481L448.688 240.871C451.421 241.391 452.644 242.536 452.644 244.488ZM457.63 248.313H455.809V234.6H457.5V237.176C458.411 235.406 460.024 234.339 461.976 234.339C464.11 234.339 465.697 235.51 466.27 237.514C467.128 235.588 468.846 234.339 471.006 234.339C473.842 234.339 475.611 236.213 475.611 239.414V248.313H473.816V240.012C473.816 237.41 472.619 235.927 470.407 235.927C468.325 235.927 466.634 237.748 466.634 240.272V248.313H464.812V240.012C464.812 237.41 463.615 235.927 461.403 235.927C459.296 235.927 457.63 237.748 457.63 240.272V248.313ZM487.873 248.313V245.815C487.066 247.533 485.401 248.573 483.267 248.573C480.431 248.573 478.583 246.986 478.583 244.514C478.583 241.834 480.717 240.429 484.881 240.429C485.713 240.429 486.338 240.481 487.691 240.585V239.44C487.691 237.15 486.468 235.797 484.386 235.797C482.148 235.797 480.743 237.176 480.717 239.414H479.052C479.13 236.369 481.237 234.339 484.36 234.339C487.561 234.339 489.434 236.213 489.434 239.388V248.313H487.873ZM480.327 244.462C480.327 246.127 481.602 247.246 483.527 247.246C486.078 247.246 487.691 245.581 487.691 243.005V241.782C486.52 241.678 485.713 241.652 484.959 241.652C481.836 241.652 480.327 242.562 480.327 244.462ZM495.088 240.975V248.313H493.266V234.6H494.958V237.722C495.894 235.693 497.924 234.391 500.188 234.391V236.291C497.3 236.187 495.088 237.982 495.088 240.975ZM510.28 246.57V248.183C509.577 248.469 508.979 248.573 508.302 248.573C506.038 248.573 504.295 247.402 504.295 244.436V236.135H501.068V234.6H504.295V230.54H506.116V234.6H510.41V236.135H506.116V244.046C506.116 246.179 507.157 246.908 508.666 246.908C509.239 246.908 509.707 246.804 510.28 246.57ZM165.494 284.599C161.877 284.599 159.353 281.659 159.353 277.443C159.353 273.28 161.903 270.339 165.494 270.339C168.695 270.339 170.985 272.473 171.531 275.908H169.684C169.267 273.41 167.706 271.927 165.494 271.927C162.944 271.927 161.2 274.165 161.2 277.443C161.2 280.774 162.944 283.012 165.494 283.012C167.732 283.012 169.267 281.555 169.684 279.005H171.531C171.037 282.492 168.721 284.599 165.494 284.599ZM179.784 284.573C176.011 284.573 173.279 281.581 173.279 277.443C173.279 273.332 176.011 270.365 179.784 270.365C183.583 270.365 186.316 273.332 186.316 277.443C186.316 281.581 183.583 284.573 179.784 284.573ZM179.784 282.986C182.465 282.986 184.468 280.852 184.468 277.443C184.468 274.087 182.465 271.953 179.784 271.953C177.13 271.953 175.126 274.087 175.126 277.443C175.126 280.852 177.13 282.986 179.784 282.986ZM191.083 276.324V284.313H189.261V270.6H190.953V273.176C191.837 271.484 193.503 270.339 195.481 270.339C198.343 270.339 200.191 272.161 200.191 275.414V284.313H198.369V276.038C198.369 273.41 197.172 271.927 194.934 271.927C192.8 271.927 191.083 273.774 191.083 276.324ZM211.052 282.57V284.183C210.35 284.469 209.751 284.573 209.075 284.573C206.811 284.573 205.067 283.402 205.067 280.436V272.135H201.841V270.6H205.067V266.54H206.889V270.6H211.182V272.135H206.889V280.046C206.889 282.179 207.93 282.908 209.439 282.908C210.011 282.908 210.48 282.804 211.052 282.57ZM215.758 276.975V284.313H213.936V270.6H215.628V273.722C216.565 271.693 218.594 270.391 220.858 270.391V272.291C217.97 272.187 215.758 273.982 215.758 276.975ZM231.516 284.313V281.815C230.709 283.533 229.044 284.573 226.91 284.573C224.074 284.573 222.226 282.986 222.226 280.514C222.226 277.834 224.36 276.429 228.523 276.429C229.356 276.429 229.981 276.481 231.334 276.585V275.44C231.334 273.15 230.111 271.797 228.029 271.797C225.791 271.797 224.386 273.176 224.36 275.414H222.694C222.773 272.369 224.88 270.339 228.003 270.339C231.204 270.339 233.077 272.213 233.077 275.388V284.313H231.516ZM223.97 280.462C223.97 282.127 225.245 283.246 227.17 283.246C229.72 283.246 231.334 281.581 231.334 279.005V277.782C230.163 277.678 229.356 277.652 228.601 277.652C225.479 277.652 223.97 278.562 223.97 280.462ZM242.035 284.599C238.418 284.599 235.894 281.659 235.894 277.443C235.894 273.28 238.444 270.339 242.035 270.339C245.236 270.339 247.526 272.473 248.072 275.908H246.225C245.809 273.41 244.247 271.927 242.035 271.927C239.485 271.927 237.742 274.165 237.742 277.443C237.742 280.774 239.485 283.012 242.035 283.012C244.273 283.012 245.809 281.555 246.225 279.005H248.072C247.578 282.492 245.262 284.599 242.035 284.599ZM258.065 282.57V284.183C257.362 284.469 256.764 284.573 256.087 284.573C253.823 284.573 252.08 283.402 252.08 280.436V272.135H248.853V270.6H252.08V266.54H253.901V270.6H258.195V272.135H253.901V280.046C253.901 282.179 254.942 282.908 256.451 282.908C257.024 282.908 257.492 282.804 258.065 282.57ZM276.952 270.6L269.926 289.335H267.974L269.978 284.131L264.539 270.6H266.491L270.915 281.945L275.104 270.6H276.952ZM284.152 284.573C280.379 284.573 277.646 281.581 277.646 277.443C277.646 273.332 280.379 270.365 284.152 270.365C287.951 270.365 290.683 273.332 290.683 277.443C290.683 281.581 287.951 284.573 284.152 284.573ZM284.152 282.986C286.832 282.986 288.836 280.852 288.836 277.443C288.836 274.087 286.832 271.953 284.152 271.953C281.497 271.953 279.494 274.087 279.494 277.443C279.494 280.852 281.497 282.986 284.152 282.986ZM302.398 278.771V270.6H304.194V284.313H302.502V281.841C301.8 283.428 300.134 284.573 298.131 284.573C295.346 284.573 293.499 282.986 293.499 279.525V270.6H295.32V279.135C295.32 281.919 296.699 282.986 298.625 282.986C300.811 282.986 302.398 281.217 302.398 278.771ZM325.001 284.313L321.41 273.02L317.845 284.313H315.997L311.99 270.6H313.785L316.96 281.737L320.525 270.6H322.321L325.86 281.763L329.034 270.6H330.856L326.822 284.313H325.001ZM335.589 267.425C335.589 268.232 334.99 268.804 334.106 268.804C333.247 268.804 332.648 268.232 332.648 267.425C332.648 266.644 333.247 266.072 334.106 266.072C334.99 266.072 335.589 266.644 335.589 267.425ZM335.042 284.313H333.221V270.6H335.042V284.313ZM349.242 280.488C349.242 283.012 347.212 284.573 343.829 284.573C340.421 284.573 338.339 282.856 338.079 280.02H339.822C339.952 281.971 341.487 283.194 343.829 283.194C346.067 283.194 347.42 282.336 347.42 280.774C347.42 279.421 346.64 278.797 344.558 278.38L342.58 277.99C339.978 277.495 338.599 276.22 338.599 274.243C338.599 271.953 340.629 270.339 343.621 270.339C346.77 270.339 348.852 272.031 349.06 274.763H347.342C347.16 272.864 345.781 271.745 343.621 271.745C341.696 271.745 340.369 272.655 340.369 274.087C340.369 275.44 341.201 276.09 343.231 276.481L345.287 276.871C348.019 277.391 349.242 278.536 349.242 280.488ZM354.228 276.324V284.313H352.407V265.629H354.228V273.124C355.087 271.484 356.649 270.339 358.626 270.339C361.489 270.339 363.336 272.161 363.336 275.414V284.313H361.515V276.038C361.515 273.41 360.318 271.927 358.08 271.927C355.946 271.927 354.228 273.774 354.228 276.324ZM379.661 282.57V284.183C378.959 284.469 378.36 284.573 377.684 284.573C375.42 284.573 373.676 283.402 373.676 280.436V272.135H370.45V270.6H373.676V266.54H375.498V270.6H379.792V272.135H375.498V280.046C375.498 282.179 376.539 282.908 378.048 282.908C378.621 282.908 379.089 282.804 379.661 282.57ZM387.604 284.573C383.831 284.573 381.099 281.581 381.099 277.443C381.099 273.332 383.831 270.365 387.604 270.365C391.404 270.365 394.136 273.332 394.136 277.443C394.136 281.581 391.404 284.573 387.604 284.573ZM387.604 282.986C390.285 282.986 392.288 280.852 392.288 277.443C392.288 274.087 390.285 271.953 387.604 271.953C384.95 271.953 382.946 274.087 382.946 277.443C382.946 280.852 384.95 282.986 387.604 282.986ZM404.341 276.975V284.313H402.52V270.6H404.211V273.722C405.148 271.693 407.178 270.391 409.441 270.391V272.291C406.553 272.187 404.341 273.982 404.341 276.975ZM417.029 284.573C413.178 284.573 410.628 281.685 410.628 277.339C410.628 273.332 413.282 270.339 416.925 270.339C420.828 270.339 423.378 273.488 423.066 277.886H412.449C412.605 281.139 414.323 283.142 417.003 283.142C419.293 283.142 420.88 281.867 421.323 279.681H423.118C422.494 282.726 420.178 284.573 417.029 284.573ZM416.899 271.745C414.427 271.745 412.683 273.644 412.449 276.637H421.167C421.01 273.566 419.423 271.745 416.899 271.745ZM436.235 270.6L430.952 284.313H429.053L423.822 270.6H425.774L430.068 282.179L434.361 270.6H436.235ZM440.719 267.425C440.719 268.232 440.12 268.804 439.235 268.804C438.377 268.804 437.778 268.232 437.778 267.425C437.778 266.644 438.377 266.072 439.235 266.072C440.12 266.072 440.719 266.644 440.719 267.425ZM440.172 284.313H438.351V270.6H440.172V284.313ZM449.506 284.573C445.654 284.573 443.104 281.685 443.104 277.339C443.104 273.332 445.759 270.339 449.402 270.339C453.305 270.339 455.855 273.488 455.543 277.886H444.926C445.082 281.139 446.799 283.142 449.48 283.142C451.77 283.142 453.357 281.867 453.799 279.681H455.595C454.97 282.726 452.654 284.573 449.506 284.573ZM449.376 271.745C446.904 271.745 445.16 273.644 444.926 276.637H453.643C453.487 273.566 451.9 271.745 449.376 271.745ZM469.697 284.313L466.106 273.02L462.541 284.313H460.694L456.686 270.6H458.482L461.657 281.737L465.222 270.6H467.017L470.556 281.763L473.731 270.6H475.552L471.519 284.313H469.697Z" fill="white" fill-opacity="0.6"/>
<rect x="697.456" y="20.6868" width="104.088" height="104.088" rx="52.044" fill="white" fill-opacity="0.1"/>
<mask id="mask1_1770_589" style="mask-type:alpha" maskUnits="userSpaceOnUse" x="723" y="46" width="53" height="53">
<rect x="723.479" y="46.7088" width="52.044" height="52.044" fill="#D9D9D9"/>
</mask>
<g mask="url(#mask1_1770_589)">
<path d="M742.244 71.3131H744.83V58.9689H738.992V61.5548H742.244V71.3131ZM749.834 71.3131H757.007C757.552 71.3131 758.008 71.1295 758.375 70.7623C758.742 70.3954 758.925 69.9395 758.925 69.3945V66.1C758.925 65.5553 758.742 65.0994 758.375 64.7322C758.008 64.3654 757.552 64.182 757.007 64.182H752.42V61.5548H758.925V58.9689H749.834V66.1H756.339V68.7271H749.834V71.3131ZM736.823 86.4926H739.409V76.7343H742.244V83.2398H744.83V76.7343H747.666V86.4926H750.251V75.9835C750.251 75.4526 750.078 75.014 749.732 74.6677C749.386 74.3215 748.947 74.1484 748.416 74.1484H738.658C738.127 74.1484 737.689 74.3215 737.342 74.6677C736.996 75.014 736.823 75.4526 736.823 75.9835V86.4926ZM753.087 86.4926H755.673V83.2398H760.343C760.874 83.2398 761.313 83.0667 761.659 82.7205C762.005 82.3742 762.178 81.9356 762.178 81.4047V75.9835C762.178 75.4526 762.005 75.014 761.659 74.6677C761.313 74.3215 760.874 74.1484 760.343 74.1484H753.087V86.4926ZM755.673 80.6539V76.7343H759.592V80.6539H755.673ZM734.988 91.163C733.893 91.163 732.966 90.7835 732.207 90.0245C731.448 89.2655 731.068 88.3383 731.068 87.2429V58.2186C731.068 57.1231 731.448 56.1959 732.207 55.437C732.966 54.678 733.893 54.2985 734.988 54.2985H764.013C765.108 54.2985 766.035 54.678 766.794 55.437C767.553 56.1959 767.933 57.1231 767.933 58.2186V87.2429C767.933 88.3383 767.553 89.2655 766.794 90.0245C766.035 90.7835 765.108 91.163 764.013 91.163H734.988ZM734.988 87.9102H764.013C764.18 87.9102 764.333 87.8406 764.471 87.7015C764.611 87.5627 764.68 87.4098 764.68 87.2429V58.2186C764.68 58.0516 764.611 57.8987 764.471 57.76C764.333 57.6208 764.18 57.5512 764.013 57.5512H734.988C734.821 57.5512 734.669 57.6208 734.53 57.76C734.391 57.8987 734.321 58.0516 734.321 58.2186V87.2429C734.321 87.4098 734.391 87.5627 734.53 87.7015C734.669 87.8406 734.821 87.9102 734.988 87.9102Z" fill="#99E39E"/>
</g>
<path d="M711.323 188.693C709.654 188.693 708.19 188.4 706.932 187.814C705.674 187.207 704.699 186.361 704.005 185.277C703.311 184.193 702.964 182.924 702.964 181.471H706.379C706.401 182.295 706.596 183.054 706.965 183.748C707.355 184.421 707.908 184.963 708.624 185.375C709.361 185.765 710.261 185.96 711.323 185.96C712.234 185.96 713.015 185.808 713.665 185.505C714.338 185.201 714.847 184.789 715.194 184.269C715.541 183.727 715.715 183.109 715.715 182.415C715.715 181.612 715.53 180.951 715.162 180.431C714.793 179.91 714.294 179.487 713.665 179.162C713.058 178.815 712.342 178.511 711.518 178.251C710.716 177.991 709.87 177.709 708.981 177.406C707.181 176.82 705.837 176.061 704.948 175.129C704.081 174.196 703.647 172.982 703.647 171.486C703.647 170.206 703.95 169.1 704.558 168.168C705.165 167.214 706.01 166.476 707.095 165.956C708.201 165.414 709.502 165.143 710.998 165.143C712.473 165.143 713.763 165.414 714.869 165.956C715.975 166.498 716.842 167.246 717.471 168.2C718.1 169.154 718.414 170.271 718.414 171.551H714.966C714.966 170.965 714.815 170.39 714.511 169.827C714.207 169.263 713.752 168.807 713.145 168.46C712.538 168.092 711.79 167.907 710.9 167.907C710.163 167.886 709.502 168.005 708.916 168.265C708.331 168.526 707.875 168.905 707.55 169.404C707.225 169.903 707.062 170.499 707.062 171.193C707.062 171.887 707.203 172.45 707.485 172.884C707.789 173.296 708.222 173.654 708.786 173.958C709.35 174.261 710.001 174.543 710.738 174.803C711.497 175.042 712.332 175.313 713.242 175.617C714.37 175.985 715.368 176.441 716.235 176.983C717.124 177.503 717.818 178.186 718.317 179.032C718.837 179.856 719.097 180.918 719.097 182.22C719.097 183.347 718.805 184.399 718.219 185.375C717.634 186.351 716.766 187.153 715.617 187.782C714.468 188.389 713.036 188.693 711.323 188.693ZM728.918 188.302C727.877 188.302 726.977 188.14 726.218 187.814C725.459 187.489 724.874 186.947 724.462 186.188C724.05 185.429 723.844 184.399 723.844 183.098V174.673H721.014V171.908H723.844L724.234 167.81H727.096V171.908H731.748V174.673H727.096V183.13C727.096 184.063 727.291 184.703 727.682 185.049C728.072 185.375 728.744 185.537 729.699 185.537H731.585V188.302H728.918ZM741.656 188.693C740.094 188.693 738.707 188.335 737.492 187.619C736.278 186.904 735.324 185.906 734.63 184.627C733.958 183.347 733.621 181.862 733.621 180.17C733.621 178.436 733.958 176.928 734.63 175.649C735.324 174.348 736.278 173.34 737.492 172.624C738.707 171.887 740.116 171.518 741.721 171.518C743.325 171.518 744.702 171.876 745.852 172.591C747.001 173.307 747.89 174.261 748.519 175.454C749.148 176.625 749.462 177.926 749.462 179.357C749.462 179.574 749.451 179.813 749.43 180.073C749.43 180.311 749.419 180.582 749.397 180.886H735.996V178.577H746.21C746.144 177.21 745.689 176.148 744.843 175.389C743.998 174.608 742.946 174.218 741.688 174.218C740.799 174.218 739.986 174.424 739.249 174.836C738.511 175.226 737.915 175.812 737.46 176.592C737.026 177.351 736.809 178.316 736.809 179.487V180.398C736.809 181.612 737.026 182.642 737.46 183.488C737.915 184.312 738.511 184.941 739.249 185.375C739.986 185.787 740.788 185.993 741.656 185.993C742.697 185.993 743.553 185.765 744.225 185.31C744.898 184.854 745.396 184.236 745.722 183.456H748.974C748.692 184.453 748.215 185.353 747.543 186.155C746.871 186.936 746.036 187.554 745.039 188.009C744.063 188.465 742.935 188.693 741.656 188.693ZM752.426 195.458V171.908H755.353L755.678 174.446C756.025 173.947 756.459 173.481 756.979 173.047C757.5 172.591 758.118 172.223 758.833 171.941C759.571 171.659 760.427 171.518 761.403 171.518C762.964 171.518 764.331 171.898 765.502 172.656C766.694 173.415 767.616 174.446 768.266 175.747C768.939 177.026 769.275 178.49 769.275 180.138C769.275 181.786 768.939 183.26 768.266 184.562C767.594 185.841 766.662 186.849 765.469 187.587C764.298 188.324 762.932 188.693 761.371 188.693C760.091 188.693 758.964 188.443 757.988 187.944C757.012 187.424 756.242 186.708 755.678 185.798V195.458H752.426ZM760.85 185.863C761.848 185.863 762.726 185.624 763.485 185.147C764.266 184.67 764.873 183.998 765.306 183.13C765.762 182.263 765.99 181.255 765.99 180.105C765.99 178.956 765.762 177.958 765.306 177.113C764.873 176.245 764.266 175.573 763.485 175.096C762.726 174.597 761.848 174.348 760.85 174.348C759.831 174.348 758.931 174.597 758.15 175.096C757.391 175.573 756.795 176.245 756.361 177.113C755.928 177.958 755.711 178.956 755.711 180.105C755.711 181.255 755.928 182.263 756.361 183.13C756.795 183.998 757.391 184.67 758.15 185.147C758.931 185.624 759.831 185.863 760.85 185.863ZM779.802 188.302V185.96C781.319 184.789 782.762 183.607 784.128 182.415C785.494 181.222 786.708 180.04 787.771 178.869C788.855 177.677 789.701 176.516 790.308 175.389C790.915 174.24 791.219 173.144 791.219 172.104C791.219 171.366 791.089 170.683 790.828 170.054C790.568 169.425 790.156 168.916 789.592 168.526C789.028 168.113 788.259 167.907 787.283 167.907C786.35 167.907 785.57 168.113 784.941 168.526C784.334 168.938 783.867 169.49 783.542 170.184C783.239 170.857 783.087 171.605 783.087 172.429H779.932C779.953 170.867 780.289 169.545 780.94 168.46C781.591 167.376 782.469 166.552 783.575 165.988C784.702 165.425 785.96 165.143 787.348 165.143C788.801 165.143 790.059 165.414 791.121 165.956C792.184 166.476 793.008 167.246 793.593 168.265C794.179 169.263 794.471 170.488 794.471 171.941C794.471 172.982 794.265 174.023 793.853 175.064C793.441 176.083 792.878 177.08 792.162 178.056C791.468 179.032 790.687 179.975 789.82 180.886C788.953 181.775 788.053 182.621 787.12 183.423C786.209 184.225 785.331 184.952 784.485 185.602H795.187V188.302H779.802Z" fill="white"/>
<path d="M581.392 237.313H579.441V218.629H590.162V220.321H581.392V227.607H588.939V229.298H581.392V237.313ZM594.677 229.975V237.313H592.855V223.6H594.547V226.722C595.483 224.693 597.513 223.391 599.777 223.391V225.291C596.889 225.187 594.677 226.982 594.677 229.975ZM610.435 237.313V234.815C609.628 236.533 607.963 237.573 605.829 237.573C602.992 237.573 601.145 235.986 601.145 233.514C601.145 230.834 603.279 229.429 607.442 229.429C608.275 229.429 608.899 229.481 610.253 229.585V228.44C610.253 226.15 609.029 224.797 606.948 224.797C604.71 224.797 603.305 226.176 603.279 228.414H601.613C601.691 225.369 603.799 223.339 606.922 223.339C610.122 223.339 611.996 225.213 611.996 228.388V237.313H610.435ZM602.888 233.462C602.888 235.127 604.163 236.246 606.089 236.246C608.639 236.246 610.253 234.581 610.253 232.005V230.782C609.082 230.678 608.275 230.652 607.52 230.652C604.398 230.652 602.888 231.562 602.888 233.462ZM614.813 230.443C614.813 226.228 617.155 223.339 620.85 223.339C622.906 223.339 624.649 224.51 625.56 226.462V218.629H627.382V237.313H625.69V234.425C624.727 236.428 622.958 237.573 620.85 237.573C617.155 237.573 614.813 234.659 614.813 230.443ZM616.66 230.443C616.66 233.93 618.43 235.986 621.11 235.986C623.764 235.986 625.586 233.826 625.586 230.391C625.586 226.93 623.712 224.927 621.11 224.927C618.43 224.927 616.66 226.956 616.66 230.443ZM633.697 220.425C633.697 221.232 633.099 221.804 632.214 221.804C631.355 221.804 630.757 221.232 630.757 220.425C630.757 219.644 631.355 219.072 632.214 219.072C633.099 219.072 633.697 219.644 633.697 220.425ZM633.151 237.313H631.329V223.6H633.151V237.313ZM645.867 231.771V223.6H647.663V237.313H645.971V234.841C645.269 236.428 643.603 237.573 641.599 237.573C638.815 237.573 636.968 235.986 636.968 232.525V223.6H638.789V232.135C638.789 234.919 640.168 235.986 642.094 235.986C644.28 235.986 645.867 234.217 645.867 231.771ZM653.43 237.313H651.608V223.6H653.299V226.176C654.21 224.406 655.824 223.339 657.775 223.339C659.909 223.339 661.496 224.51 662.069 226.514C662.928 224.588 664.645 223.339 666.805 223.339C669.641 223.339 671.411 225.213 671.411 228.414V237.313H669.615V229.012C669.615 226.41 668.418 224.927 666.206 224.927C664.125 224.927 662.433 226.748 662.433 229.272V237.313H660.612V229.012C660.612 226.41 659.415 224.927 657.203 224.927C655.095 224.927 653.43 226.748 653.43 229.272V237.313ZM685.806 237.599C682.189 237.599 679.665 234.659 679.665 230.443C679.665 226.28 682.215 223.339 685.806 223.339C689.006 223.339 691.296 225.473 691.843 228.908H689.995C689.579 226.41 688.018 224.927 685.806 224.927C683.256 224.927 681.512 227.165 681.512 230.443C681.512 233.774 683.256 236.012 685.806 236.012C688.044 236.012 689.579 234.555 689.995 232.005H691.843C691.348 235.492 689.032 237.599 685.806 237.599ZM696.605 229.324V237.313H694.783V218.629H696.605V226.124C697.463 224.484 699.025 223.339 701.002 223.339C703.865 223.339 705.712 225.161 705.712 228.414V237.313H703.891V229.038C703.891 226.41 702.694 224.927 700.456 224.927C698.322 224.927 696.605 226.774 696.605 229.324ZM714.934 237.573C711.083 237.573 708.533 234.685 708.533 230.339C708.533 226.332 711.187 223.339 714.83 223.339C718.733 223.339 721.283 226.488 720.971 230.886H710.354C710.51 234.139 712.228 236.142 714.908 236.142C717.198 236.142 718.785 234.867 719.228 232.681H721.023C720.399 235.726 718.083 237.573 714.934 237.573ZM714.804 224.745C712.332 224.745 710.588 226.644 710.354 229.637H719.072C718.915 226.566 717.328 224.745 714.804 224.745ZM728.854 237.599C725.237 237.599 722.713 234.659 722.713 230.443C722.713 226.28 725.263 223.339 728.854 223.339C732.055 223.339 734.344 225.473 734.891 228.908H733.043C732.627 226.41 731.066 224.927 728.854 224.927C726.304 224.927 724.56 227.165 724.56 230.443C724.56 233.774 726.304 236.012 728.854 236.012C731.092 236.012 732.627 234.555 733.043 232.005H734.891C734.396 235.492 732.081 237.599 728.854 237.599ZM739.653 237.313H737.831V218.629H739.653V229.975L746.262 223.6H748.422L741.5 230.313L748.995 237.313H746.627L739.653 230.73V237.313ZM760.993 233.488C760.993 236.012 758.963 237.573 755.581 237.573C752.172 237.573 750.09 235.856 749.83 233.02H751.573C751.703 234.971 753.239 236.194 755.581 236.194C757.818 236.194 759.172 235.336 759.172 233.774C759.172 232.421 758.391 231.797 756.309 231.38L754.332 230.99C751.729 230.495 750.35 229.22 750.35 227.243C750.35 224.953 752.38 223.339 755.372 223.339C758.521 223.339 760.603 225.031 760.811 227.763H759.094C758.911 225.864 757.532 224.745 755.372 224.745C753.447 224.745 752.12 225.655 752.12 227.087C752.12 228.44 752.952 229.09 754.982 229.481L757.038 229.871C759.77 230.391 760.993 231.536 760.993 233.488ZM778.027 237.313V234.815C777.221 236.533 775.555 237.573 773.422 237.573C770.585 237.573 768.738 235.986 768.738 233.514C768.738 230.834 770.871 229.429 775.035 229.429C775.868 229.429 776.492 229.481 777.845 229.585V228.44C777.845 226.15 776.622 224.797 774.54 224.797C772.303 224.797 770.897 226.176 770.871 228.414H769.206C769.284 225.369 771.392 223.339 774.514 223.339C777.715 223.339 779.589 225.213 779.589 228.388V237.313H778.027ZM770.481 233.462C770.481 235.127 771.756 236.246 773.682 236.246C776.232 236.246 777.845 234.581 777.845 232.005V230.782C776.674 230.678 775.868 230.652 775.113 230.652C771.99 230.652 770.481 231.562 770.481 233.462ZM788.599 242.622C785.112 242.622 782.926 240.8 782.77 237.73H784.513C784.67 239.967 786.127 241.164 788.573 241.164C791.279 241.164 792.71 239.733 792.71 237.027V234.165C791.878 236.09 790.212 237.209 788.182 237.209C784.722 237.209 782.406 234.425 782.406 230.261C782.406 226.098 784.696 223.339 788.156 223.339C790.212 223.339 791.93 224.51 792.814 226.514V223.6H794.506V237.001C794.506 240.54 792.346 242.622 788.599 242.622ZM784.227 230.261C784.227 233.618 785.814 235.648 788.443 235.648C791.019 235.648 792.736 233.566 792.736 230.391C792.736 227.035 791.045 224.901 788.443 224.901C785.841 224.901 784.227 226.93 784.227 230.261ZM806.896 237.313V234.815C806.089 236.533 804.423 237.573 802.29 237.573C799.453 237.573 797.606 235.986 797.606 233.514C797.606 230.834 799.74 229.429 803.903 229.429C804.736 229.429 805.36 229.481 806.713 229.585V228.44C806.713 226.15 805.49 224.797 803.409 224.797C801.171 224.797 799.766 226.176 799.74 228.414H798.074C798.152 225.369 800.26 223.339 803.383 223.339C806.583 223.339 808.457 225.213 808.457 228.388V237.313H806.896ZM799.349 233.462C799.349 235.127 800.624 236.246 802.55 236.246C805.1 236.246 806.713 234.581 806.713 232.005V230.782C805.542 230.678 804.736 230.652 803.981 230.652C800.858 230.652 799.349 231.562 799.349 233.462ZM814.657 220.425C814.657 221.232 814.058 221.804 813.173 221.804C812.315 221.804 811.716 221.232 811.716 220.425C811.716 219.644 812.315 219.072 813.173 219.072C814.058 219.072 814.657 219.644 814.657 220.425ZM814.11 237.313H812.289V223.6H814.11V237.313ZM819.879 229.324V237.313H818.057V223.6H819.749V226.176C820.633 224.484 822.299 223.339 824.276 223.339C827.139 223.339 828.986 225.161 828.986 228.414V237.313H827.165V229.038C827.165 226.41 825.968 224.927 823.73 224.927C821.596 224.927 819.879 226.774 819.879 229.324ZM843.074 233.488C843.074 236.012 841.045 237.573 837.662 237.573C834.253 237.573 832.171 235.856 831.911 233.02H833.654C833.784 234.971 835.32 236.194 837.662 236.194C839.9 236.194 841.253 235.336 841.253 233.774C841.253 232.421 840.472 231.797 838.39 231.38L836.413 230.99C833.81 230.495 832.431 229.22 832.431 227.243C832.431 224.953 834.461 223.339 837.453 223.339C840.602 223.339 842.684 225.031 842.892 227.763H841.175C840.992 225.864 839.613 224.745 837.453 224.745C835.528 224.745 834.201 225.655 834.201 227.087C834.201 228.44 835.033 229.09 837.063 229.481L839.119 229.871C841.851 230.391 843.074 231.536 843.074 233.488ZM853.189 235.57V237.183C852.487 237.469 851.888 237.573 851.212 237.573C848.948 237.573 847.204 236.402 847.204 233.436V225.135H843.978V223.6H847.204V219.54H849.026V223.6H853.32V225.135H849.026V233.046C849.026 235.179 850.067 235.908 851.576 235.908C852.149 235.908 852.617 235.804 853.189 235.57ZM864.53 237.313H862.709V225.135H859.482V223.6H862.709V222.351C862.709 219.826 864.088 218.421 866.482 218.421C867.107 218.421 867.653 218.525 868.121 218.707V220.217C867.679 220.035 867.263 220.009 866.794 220.009C865.337 220.009 864.53 220.737 864.53 222.351V223.6H868.564V225.135H864.53V237.313ZM872.482 229.975V237.313H870.66V223.6H872.352V226.722C873.288 224.693 875.318 223.391 877.582 223.391V225.291C874.694 225.187 872.482 226.982 872.482 229.975ZM888.24 237.313V234.815C887.433 236.533 885.768 237.573 883.634 237.573C880.797 237.573 878.95 235.986 878.95 233.514C878.95 230.834 881.084 229.429 885.247 229.429C886.08 229.429 886.704 229.481 888.057 229.585V228.44C888.057 226.15 886.834 224.797 884.753 224.797C882.515 224.797 881.11 226.176 881.084 228.414H879.418C879.496 225.369 881.604 223.339 884.727 223.339C887.927 223.339 889.801 225.213 889.801 228.388V237.313H888.24ZM880.693 233.462C880.693 235.127 881.968 236.246 883.894 236.246C886.444 236.246 888.057 234.581 888.057 232.005V230.782C886.886 230.678 886.08 230.652 885.325 230.652C882.203 230.652 880.693 231.562 880.693 233.462ZM902.402 231.771V223.6H904.198V237.313H902.506V234.841C901.804 236.428 900.138 237.573 898.135 237.573C895.35 237.573 893.503 235.986 893.503 232.525V223.6H895.324V232.135C895.324 234.919 896.703 235.986 898.629 235.986C900.815 235.986 902.402 234.217 902.402 231.771ZM907.128 230.443C907.128 226.228 909.47 223.339 913.165 223.339C915.221 223.339 916.964 224.51 917.875 226.462V218.629H919.697V237.313H918.005V234.425C917.043 236.428 915.273 237.573 913.165 237.573C909.47 237.573 907.128 234.659 907.128 230.443ZM908.976 230.443C908.976 233.93 910.745 235.986 913.425 235.986C916.08 235.986 917.901 233.826 917.901 230.391C917.901 226.93 916.028 224.927 913.425 224.927C910.745 224.927 908.976 226.956 908.976 230.443ZM582.806 266.443C582.806 262.228 585.148 259.339 588.843 259.339C590.899 259.339 592.643 260.51 593.553 262.462V254.629H595.375V273.313H593.684V270.425C592.721 272.428 590.951 273.573 588.843 273.573C585.148 273.573 582.806 270.659 582.806 266.443ZM584.654 266.443C584.654 269.93 586.423 271.986 589.104 271.986C591.758 271.986 593.579 269.826 593.579 266.391C593.579 262.93 591.706 260.927 589.104 260.927C586.423 260.927 584.654 262.956 584.654 266.443ZM607.754 273.313V270.815C606.947 272.533 605.282 273.573 603.148 273.573C600.311 273.573 598.464 271.986 598.464 269.514C598.464 266.834 600.598 265.429 604.761 265.429C605.594 265.429 606.218 265.481 607.572 265.585V264.44C607.572 262.15 606.349 260.797 604.267 260.797C602.029 260.797 600.624 262.176 600.598 264.414H598.932C599.01 261.369 601.118 259.339 604.241 259.339C607.441 259.339 609.315 261.213 609.315 264.388V273.313H607.754ZM600.207 269.462C600.207 271.127 601.482 272.246 603.408 272.246C605.958 272.246 607.572 270.581 607.572 268.005V266.782C606.401 266.678 605.594 266.652 604.839 266.652C601.717 266.652 600.207 267.562 600.207 269.462ZM620.122 271.57V273.183C619.42 273.469 618.821 273.573 618.145 273.573C615.881 273.573 614.137 272.402 614.137 269.436V261.135H610.911V259.6H614.137V255.54H615.959V259.6H620.253V261.135H615.959V269.046C615.959 271.179 617 271.908 618.509 271.908C619.082 271.908 619.55 271.804 620.122 271.57ZM631.438 273.313V270.815C630.631 272.533 628.966 273.573 626.832 273.573C623.995 273.573 622.148 271.986 622.148 269.514C622.148 266.834 624.282 265.429 628.445 265.429C629.278 265.429 629.902 265.481 631.256 265.585V264.44C631.256 262.15 630.033 260.797 627.951 260.797C625.713 260.797 624.308 262.176 624.282 264.414H622.616C622.694 261.369 624.802 259.339 627.925 259.339C631.126 259.339 632.999 261.213 632.999 264.388V273.313H631.438ZM623.891 269.462C623.891 271.127 625.166 272.246 627.092 272.246C629.642 272.246 631.256 270.581 631.256 268.005V266.782C630.085 266.678 629.278 266.652 628.523 266.652C625.401 266.652 623.891 267.562 623.891 269.462ZM649.399 266.443C649.399 270.659 647.031 273.573 643.362 273.573C641.255 273.573 639.485 272.428 638.522 270.425V273.313H636.831V254.629H638.652V262.488C639.537 260.484 641.281 259.339 643.362 259.339C647.031 259.339 649.399 262.228 649.399 266.443ZM647.552 266.443C647.552 262.956 645.756 260.927 643.076 260.927C640.5 260.927 638.626 262.93 638.626 266.391C638.626 269.826 640.448 271.986 643.076 271.986C645.756 271.986 647.552 269.93 647.552 266.443ZM660.763 273.313V270.815C659.957 272.533 658.291 273.573 656.157 273.573C653.321 273.573 651.473 271.986 651.473 269.514C651.473 266.834 653.607 265.429 657.771 265.429C658.604 265.429 659.228 265.481 660.581 265.585V264.44C660.581 262.15 659.358 260.797 657.276 260.797C655.038 260.797 653.633 262.176 653.607 264.414H651.942C652.02 261.369 654.128 259.339 657.25 259.339C660.451 259.339 662.325 261.213 662.325 264.388V273.313H660.763ZM653.217 269.462C653.217 271.127 654.492 272.246 656.418 272.246C658.968 272.246 660.581 270.581 660.581 268.005V266.782C659.41 266.678 658.604 266.652 657.849 266.652C654.726 266.652 653.217 267.562 653.217 269.462ZM676.409 269.488C676.409 272.012 674.379 273.573 670.996 273.573C667.588 273.573 665.506 271.856 665.246 269.02H666.989C667.119 270.971 668.654 272.194 670.996 272.194C673.234 272.194 674.588 271.336 674.588 269.774C674.588 268.421 673.807 267.797 671.725 267.38L669.747 266.99C667.145 266.495 665.766 265.22 665.766 263.243C665.766 260.953 667.796 259.339 670.788 259.339C673.937 259.339 676.019 261.031 676.227 263.763H674.509C674.327 261.864 672.948 260.745 670.788 260.745C668.863 260.745 667.536 261.655 667.536 263.087C667.536 264.44 668.368 265.09 670.398 265.481L672.454 265.871C675.186 266.391 676.409 267.536 676.409 269.488ZM684.961 273.573C681.109 273.573 678.559 270.685 678.559 266.339C678.559 262.332 681.213 259.339 684.856 259.339C688.76 259.339 691.31 262.488 690.998 266.886H680.381C680.537 270.139 682.254 272.142 684.934 272.142C687.224 272.142 688.812 270.867 689.254 268.681H691.05C690.425 271.726 688.109 273.573 684.961 273.573ZM684.83 260.745C682.358 260.745 680.615 262.644 680.381 265.637H689.098C688.942 262.566 687.355 260.745 684.83 260.745ZM704.261 269.488C704.261 272.012 702.231 273.573 698.848 273.573C695.439 273.573 693.357 271.856 693.097 269.02H694.841C694.971 270.971 696.506 272.194 698.848 272.194C701.086 272.194 702.439 271.336 702.439 269.774C702.439 268.421 701.658 267.797 699.577 267.38L697.599 266.99C694.997 266.495 693.618 265.22 693.618 263.243C693.618 260.953 695.647 259.339 698.64 259.339C701.789 259.339 703.87 261.031 704.079 263.763H702.361C702.179 261.864 700.8 260.745 698.64 260.745C696.714 260.745 695.387 261.655 695.387 263.087C695.387 264.44 696.22 265.09 698.25 265.481L700.305 265.871C703.038 266.391 704.261 267.536 704.261 269.488ZM721.295 273.313V270.815C720.488 272.533 718.823 273.573 716.689 273.573C713.853 273.573 712.005 271.986 712.005 269.514C712.005 266.834 714.139 265.429 718.302 265.429C719.135 265.429 719.76 265.481 721.113 265.585V264.44C721.113 262.15 719.89 260.797 717.808 260.797C715.57 260.797 714.165 262.176 714.139 264.414H712.473C712.552 261.369 714.659 259.339 717.782 259.339C720.983 259.339 722.856 261.213 722.856 264.388V273.313H721.295ZM713.749 269.462C713.749 271.127 715.024 272.246 716.949 272.246C719.499 272.246 721.113 270.581 721.113 268.005V266.782C719.942 266.678 719.135 266.652 718.38 266.652C715.258 266.652 713.749 267.562 713.749 269.462ZM728.51 265.324V273.313H726.688V259.6H728.379V262.176C729.264 260.484 730.93 259.339 732.907 259.339C735.77 259.339 737.617 261.161 737.617 264.414V273.313H735.796V265.038C735.796 262.41 734.599 260.927 732.361 260.927C730.227 260.927 728.51 262.774 728.51 265.324ZM740.438 266.443C740.438 262.228 742.78 259.339 746.475 259.339C748.53 259.339 750.274 260.51 751.185 262.462V254.629H753.006V273.313H751.315V270.425C750.352 272.428 748.582 273.573 746.475 273.573C742.78 273.573 740.438 270.659 740.438 266.443ZM742.285 266.443C742.285 269.93 744.055 271.986 746.735 271.986C749.389 271.986 751.211 269.826 751.211 266.391C751.211 262.93 749.337 260.927 746.735 260.927C744.055 260.927 742.285 262.956 742.285 266.443ZM774.961 266.443C774.961 270.685 772.593 273.573 768.95 273.573C766.894 273.573 765.15 272.454 764.214 270.503V278.335H762.392V259.6H764.083V262.566C765.02 260.536 766.842 259.339 768.95 259.339C772.593 259.339 774.961 262.254 774.961 266.443ZM773.113 266.443C773.113 262.982 771.318 260.927 768.637 260.927C766.087 260.927 764.187 262.956 764.187 266.443C764.187 269.852 766.035 271.986 768.637 271.986C771.318 271.986 773.113 269.956 773.113 266.443ZM783.28 273.573C779.429 273.573 776.878 270.685 776.878 266.339C776.878 262.332 779.533 259.339 783.176 259.339C787.079 259.339 789.629 262.488 789.317 266.886H778.7C778.856 270.139 780.574 272.142 783.254 272.142C785.544 272.142 787.131 270.867 787.574 268.681H789.369C788.745 271.726 786.429 273.573 783.28 273.573ZM783.15 260.745C780.678 260.745 778.934 262.644 778.7 265.637H787.417C787.261 262.566 785.674 260.745 783.15 260.745ZM794.149 265.975V273.313H792.327V259.6H794.019V262.722C794.956 260.693 796.985 259.391 799.249 259.391V261.291C796.361 261.187 794.149 262.982 794.149 265.975ZM805.282 273.313H803.461V261.135H800.234V259.6H803.461V258.351C803.461 255.826 804.84 254.421 807.234 254.421C807.858 254.421 808.405 254.525 808.873 254.707V256.217C808.431 256.035 808.014 256.009 807.546 256.009C806.089 256.009 805.282 256.737 805.282 258.351V259.6H809.315V261.135H805.282V273.313ZM816.521 273.573C812.748 273.573 810.016 270.581 810.016 266.443C810.016 262.332 812.748 259.365 816.521 259.365C820.321 259.365 823.053 262.332 823.053 266.443C823.053 270.581 820.321 273.573 816.521 273.573ZM816.521 271.986C819.202 271.986 821.205 269.852 821.205 266.443C821.205 263.087 819.202 260.953 816.521 260.953C813.867 260.953 811.863 263.087 811.863 266.443C811.863 269.852 813.867 271.986 816.521 271.986ZM827.82 265.975V273.313H825.998V259.6H827.69V262.722C828.627 260.693 830.656 259.391 832.92 259.391V261.291C830.032 261.187 827.82 262.982 827.82 265.975ZM836.968 273.313H835.147V259.6H836.838V262.176C837.749 260.406 839.362 259.339 841.314 259.339C843.448 259.339 845.035 260.51 845.608 262.514C846.466 260.588 848.184 259.339 850.344 259.339C853.18 259.339 854.949 261.213 854.949 264.414V273.313H853.154V265.012C853.154 262.41 851.957 260.927 849.745 260.927C847.663 260.927 845.972 262.748 845.972 265.272V273.313H844.15V265.012C844.15 262.41 842.953 260.927 840.741 260.927C838.634 260.927 836.968 262.748 836.968 265.272V273.313ZM869.033 269.488C869.033 272.012 867.003 273.573 863.62 273.573C860.211 273.573 858.129 271.856 857.869 269.02H859.613C859.743 270.971 861.278 272.194 863.62 272.194C865.858 272.194 867.211 271.336 867.211 269.774C867.211 268.421 866.43 267.797 864.349 267.38L862.371 266.99C859.769 266.495 858.39 265.22 858.39 263.243C858.39 260.953 860.419 259.339 863.412 259.339C866.561 259.339 868.642 261.031 868.851 263.763H867.133C866.951 261.864 865.572 260.745 863.412 260.745C861.486 260.745 860.159 261.655 860.159 263.087C860.159 264.44 860.992 265.09 863.022 265.481L865.077 265.871C867.81 266.391 869.033 267.536 869.033 269.488ZM879.457 265.975V273.313H877.636V259.6H879.327V262.722C880.264 260.693 882.294 259.391 884.558 259.391V261.291C881.669 261.187 879.457 262.982 879.457 265.975ZM889.152 256.425C889.152 257.232 888.554 257.804 887.669 257.804C886.81 257.804 886.212 257.232 886.212 256.425C886.212 255.644 886.81 255.072 887.669 255.072C888.554 255.072 889.152 255.644 889.152 256.425ZM888.606 273.313H886.784V259.6H888.606V273.313ZM902.805 269.488C902.805 272.012 900.776 273.573 897.393 273.573C893.984 273.573 891.902 271.856 891.642 269.02H893.385C893.515 270.971 895.051 272.194 897.393 272.194C899.631 272.194 900.984 271.336 900.984 269.774C900.984 268.421 900.203 267.797 898.121 267.38L896.144 266.99C893.542 266.495 892.162 265.22 892.162 263.243C892.162 260.953 894.192 259.339 897.185 259.339C900.333 259.339 902.415 261.031 902.623 263.763H900.906C900.724 261.864 899.344 260.745 897.185 260.745C895.259 260.745 893.932 261.655 893.932 263.087C893.932 264.44 894.765 265.09 896.794 265.481L898.85 265.871C901.582 266.391 902.805 267.536 902.805 269.488ZM907.792 273.313H905.97V254.629H907.792V265.975L914.401 259.6H916.561L909.639 266.313L917.134 273.313H914.766L907.792 266.73V273.313ZM709.961 308.313V305.815C709.154 307.533 707.489 308.573 705.355 308.573C702.519 308.573 700.671 306.986 700.671 304.514C700.671 301.834 702.805 300.429 706.969 300.429C707.801 300.429 708.426 300.481 709.779 300.585V299.44C709.779 297.15 708.556 295.797 706.474 295.797C704.236 295.797 702.831 297.176 702.805 299.414H701.14C701.218 296.369 703.326 294.339 706.448 294.339C709.649 294.339 711.522 296.213 711.522 299.388V308.313H709.961ZM702.415 304.462C702.415 306.127 703.69 307.246 705.615 307.246C708.166 307.246 709.779 305.581 709.779 303.005V301.782C708.608 301.678 707.801 301.652 707.047 301.652C703.924 301.652 702.415 302.562 702.415 304.462ZM717.176 300.324V308.313H715.354V294.6H717.046V297.176C717.93 295.484 719.596 294.339 721.573 294.339C724.436 294.339 726.283 296.161 726.283 299.414V308.313H724.462V300.038C724.462 297.41 723.265 295.927 721.027 295.927C718.893 295.927 717.176 297.774 717.176 300.324ZM738.55 308.313V305.815C737.743 307.533 736.078 308.573 733.944 308.573C731.107 308.573 729.26 306.986 729.26 304.514C729.26 301.834 731.394 300.429 735.557 300.429C736.39 300.429 737.014 300.481 738.368 300.585V299.44C738.368 297.15 737.145 295.797 735.063 295.797C732.825 295.797 731.42 297.176 731.394 299.414H729.728C729.806 296.369 731.914 294.339 735.037 294.339C738.237 294.339 740.111 296.213 740.111 299.388V308.313H738.55ZM731.003 304.462C731.003 306.127 732.278 307.246 734.204 307.246C736.754 307.246 738.368 305.581 738.368 303.005V301.782C737.197 301.678 736.39 301.652 735.635 301.652C732.513 301.652 731.003 302.562 731.003 304.462ZM745.764 308.313H743.943V289.629H745.764V308.313ZM760.276 294.6L753.25 313.335H751.299L753.302 308.131L747.864 294.6H749.815L754.239 305.945L758.429 294.6H760.276ZM772.365 304.488C772.365 307.012 770.335 308.573 766.953 308.573C763.544 308.573 761.462 306.856 761.202 304.02H762.945C763.075 305.971 764.611 307.194 766.953 307.194C769.19 307.194 770.544 306.336 770.544 304.774C770.544 303.421 769.763 302.797 767.681 302.38L765.703 301.99C763.101 301.495 761.722 300.22 761.722 298.243C761.722 295.953 763.752 294.339 766.744 294.339C769.893 294.339 771.975 296.031 772.183 298.763H770.465C770.283 296.864 768.904 295.745 766.744 295.745C764.819 295.745 763.492 296.655 763.492 298.087C763.492 299.44 764.324 300.09 766.354 300.481L768.41 300.871C771.142 301.391 772.365 302.536 772.365 304.488ZM777.898 291.425C777.898 292.232 777.3 292.804 776.415 292.804C775.556 292.804 774.958 292.232 774.958 291.425C774.958 290.644 775.556 290.072 776.415 290.072C777.3 290.072 777.898 290.644 777.898 291.425ZM777.352 308.313H775.53V294.6H777.352V308.313ZM791.551 304.488C791.551 307.012 789.521 308.573 786.139 308.573C782.73 308.573 780.648 306.856 780.388 304.02H782.131C782.261 305.971 783.797 307.194 786.139 307.194C788.377 307.194 789.73 306.336 789.73 304.774C789.73 303.421 788.949 302.797 786.867 302.38L784.89 301.99C782.287 301.495 780.908 300.22 780.908 298.243C780.908 295.953 782.938 294.339 785.93 294.339C789.079 294.339 791.161 296.031 791.369 298.763H789.652C789.469 296.864 788.09 295.745 785.93 295.745C784.005 295.745 782.678 296.655 782.678 298.087C782.678 299.44 783.51 300.09 785.54 300.481L787.596 300.871C790.328 301.391 791.551 302.536 791.551 304.488ZM797.735 306.804C797.735 307.741 797.058 308.443 796.095 308.443C795.159 308.443 794.456 307.741 794.456 306.804C794.456 305.815 795.159 305.139 796.095 305.139C797.058 305.139 797.735 305.815 797.735 306.804Z" fill="white" fill-opacity="0.6"/>
<rect x="1129.79" y="20.6868" width="104.088" height="104.088" rx="52.044" fill="white" fill-opacity="0.1"/>
<mask id="mask2_1770_589" style="mask-type:alpha" maskUnits="userSpaceOnUse" x="1155" y="46" width="53" height="53">
<rect x="1155.81" y="46.7088" width="52.044" height="52.044" fill="#D9D9D9"/>
</mask>
<g mask="url(#mask2_1770_589)">
<path d="M1174.58 71.3131H1177.17V58.9689H1171.33V61.5548H1174.58V71.3131ZM1182.17 71.3131H1189.34C1189.89 71.3131 1190.34 71.1295 1190.71 70.7623C1191.08 70.3954 1191.26 69.9395 1191.26 69.3945V66.1C1191.26 65.5553 1191.08 65.0994 1190.71 64.7322C1190.34 64.3654 1189.89 64.182 1189.34 64.182H1184.76V61.5548H1191.26V58.9689H1182.17V66.1H1188.68V68.7271H1182.17V71.3131ZM1169.16 86.4926H1171.74V76.7343H1174.58V83.2398H1177.17V76.7343H1180V86.4926H1182.59V75.9835C1182.59 75.4526 1182.41 75.014 1182.07 74.6677C1181.72 74.3215 1181.28 74.1484 1180.75 74.1484H1170.99C1170.46 74.1484 1170.02 74.3215 1169.68 74.6677C1169.33 75.014 1169.16 75.4526 1169.16 75.9835V86.4926ZM1185.42 86.4926H1188.01V83.2398H1192.68C1193.21 83.2398 1193.65 83.0667 1193.99 82.7205C1194.34 82.3742 1194.51 81.9356 1194.51 81.4047V75.9835C1194.51 75.4526 1194.34 75.014 1193.99 74.6677C1193.65 74.3215 1193.21 74.1484 1192.68 74.1484H1185.42V86.4926ZM1188.01 80.6539V76.7343H1191.93V80.6539H1188.01ZM1167.32 91.163C1166.23 91.163 1165.3 90.7835 1164.54 90.0245C1163.78 89.2655 1163.4 88.3383 1163.4 87.2429V58.2186C1163.4 57.1231 1163.78 56.1959 1164.54 55.437C1165.3 54.678 1166.23 54.2985 1167.32 54.2985H1196.35C1197.44 54.2985 1198.37 54.678 1199.13 55.437C1199.89 56.1959 1200.27 57.1231 1200.27 58.2186V87.2429C1200.27 88.3383 1199.89 89.2655 1199.13 90.0245C1198.37 90.7835 1197.44 91.163 1196.35 91.163H1167.32ZM1167.32 87.9102H1196.35C1196.52 87.9102 1196.67 87.8406 1196.81 87.7015C1196.95 87.5627 1197.02 87.4098 1197.02 87.2429V58.2186C1197.02 58.0516 1196.95 57.8987 1196.81 57.76C1196.67 57.6208 1196.52 57.5512 1196.35 57.5512H1167.32C1167.16 57.5512 1167 57.6208 1166.87 57.76C1166.73 57.8987 1166.66 58.0516 1166.66 58.2186V87.2429C1166.66 87.4098 1166.73 87.5627 1166.87 87.7015C1167 87.8406 1167.16 87.9102 1167.32 87.9102Z" fill="#99E39E"/>
</g>
<path d="M1143.66 188.693C1141.99 188.693 1140.52 188.4 1139.27 187.814C1138.01 187.207 1137.03 186.361 1136.34 185.277C1135.65 184.193 1135.3 182.924 1135.3 181.471H1138.71C1138.74 182.295 1138.93 183.054 1139.3 183.748C1139.69 184.421 1140.24 184.963 1140.96 185.375C1141.7 185.765 1142.6 185.96 1143.66 185.96C1144.57 185.96 1145.35 185.808 1146 185.505C1146.67 185.201 1147.18 184.789 1147.53 184.269C1147.88 183.727 1148.05 183.109 1148.05 182.415C1148.05 181.612 1147.87 180.951 1147.5 180.431C1147.13 179.91 1146.63 179.487 1146 179.162C1145.39 178.815 1144.68 178.511 1143.85 178.251C1143.05 177.991 1142.21 177.709 1141.32 177.406C1139.52 176.82 1138.17 176.061 1137.28 175.129C1136.42 174.196 1135.98 172.982 1135.98 171.486C1135.98 170.206 1136.29 169.1 1136.89 168.168C1137.5 167.214 1138.35 166.476 1139.43 165.956C1140.54 165.414 1141.84 165.143 1143.33 165.143C1144.81 165.143 1146.1 165.414 1147.2 165.956C1148.31 166.498 1149.18 167.246 1149.81 168.2C1150.43 169.154 1150.75 170.271 1150.75 171.551H1147.3C1147.3 170.965 1147.15 170.39 1146.85 169.827C1146.54 169.263 1146.09 168.807 1145.48 168.46C1144.87 168.092 1144.12 167.907 1143.24 167.907C1142.5 167.886 1141.84 168.005 1141.25 168.265C1140.67 168.526 1140.21 168.905 1139.89 169.404C1139.56 169.903 1139.4 170.499 1139.4 171.193C1139.4 171.887 1139.54 172.45 1139.82 172.884C1140.12 173.296 1140.56 173.654 1141.12 173.958C1141.68 174.261 1142.34 174.543 1143.07 174.803C1143.83 175.042 1144.67 175.313 1145.58 175.617C1146.7 175.985 1147.7 176.441 1148.57 176.983C1149.46 177.503 1150.15 178.186 1150.65 179.032C1151.17 179.856 1151.43 180.918 1151.43 182.22C1151.43 183.347 1151.14 184.399 1150.55 185.375C1149.97 186.351 1149.1 187.153 1147.95 187.782C1146.8 188.389 1145.37 188.693 1143.66 188.693ZM1161.25 188.302C1160.21 188.302 1159.31 188.14 1158.55 187.814C1157.79 187.489 1157.21 186.947 1156.8 186.188C1156.38 185.429 1156.18 184.399 1156.18 183.098V174.673H1153.35V171.908H1156.18L1156.57 167.81H1159.43V171.908H1164.08V174.673H1159.43V183.13C1159.43 184.063 1159.63 184.703 1160.02 185.049C1160.41 185.375 1161.08 185.537 1162.03 185.537H1163.92V188.302H1161.25ZM1173.99 188.693C1172.43 188.693 1171.04 188.335 1169.83 187.619C1168.61 186.904 1167.66 185.906 1166.96 184.627C1166.29 183.347 1165.96 181.862 1165.96 180.17C1165.96 178.436 1166.29 176.928 1166.96 175.649C1167.66 174.348 1168.61 173.34 1169.83 172.624C1171.04 171.887 1172.45 171.518 1174.06 171.518C1175.66 171.518 1177.04 171.876 1178.19 172.591C1179.34 173.307 1180.23 174.261 1180.85 175.454C1181.48 176.625 1181.8 177.926 1181.8 179.357C1181.8 179.574 1181.79 179.813 1181.76 180.073C1181.76 180.311 1181.75 180.582 1181.73 180.886H1168.33V178.577H1178.54C1178.48 177.21 1178.02 176.148 1177.18 175.389C1176.33 174.608 1175.28 174.218 1174.02 174.218C1173.13 174.218 1172.32 174.424 1171.58 174.836C1170.85 175.226 1170.25 175.812 1169.79 176.592C1169.36 177.351 1169.14 178.316 1169.14 179.487V180.398C1169.14 181.612 1169.36 182.642 1169.79 183.488C1170.25 184.312 1170.85 184.941 1171.58 185.375C1172.32 185.787 1173.12 185.993 1173.99 185.993C1175.03 185.993 1175.89 185.765 1176.56 185.31C1177.23 184.854 1177.73 184.236 1178.06 183.456H1181.31C1181.03 184.453 1180.55 185.353 1179.88 186.155C1179.21 186.936 1178.37 187.554 1177.37 188.009C1176.4 188.465 1175.27 188.693 1173.99 188.693ZM1184.76 195.458V171.908H1187.69L1188.01 174.446C1188.36 173.947 1188.79 173.481 1189.31 173.047C1189.83 172.591 1190.45 172.223 1191.17 171.941C1191.91 171.659 1192.76 171.518 1193.74 171.518C1195.3 171.518 1196.67 171.898 1197.84 172.656C1199.03 173.415 1199.95 174.446 1200.6 175.747C1201.27 177.026 1201.61 178.49 1201.61 180.138C1201.61 181.786 1201.27 183.26 1200.6 184.562C1199.93 185.841 1199 186.849 1197.8 187.587C1196.63 188.324 1195.27 188.693 1193.71 188.693C1192.43 188.693 1191.3 188.443 1190.32 187.944C1189.35 187.424 1188.58 186.708 1188.01 185.798V195.458H1184.76ZM1193.19 185.863C1194.18 185.863 1195.06 185.624 1195.82 185.147C1196.6 184.67 1197.21 183.998 1197.64 183.13C1198.1 182.263 1198.32 181.255 1198.32 180.105C1198.32 178.956 1198.1 177.958 1197.64 177.113C1197.21 176.245 1196.6 175.573 1195.82 175.096C1195.06 174.597 1194.18 174.348 1193.19 174.348C1192.17 174.348 1191.27 174.597 1190.49 175.096C1189.73 175.573 1189.13 176.245 1188.7 177.113C1188.26 177.958 1188.05 178.956 1188.05 180.105C1188.05 181.255 1188.26 182.263 1188.7 183.13C1189.13 183.998 1189.73 184.67 1190.49 185.147C1191.27 185.624 1192.17 185.863 1193.19 185.863ZM1219.81 188.693C1218.36 188.693 1217.03 188.432 1215.81 187.912C1214.62 187.37 1213.67 186.567 1212.95 185.505C1212.26 184.421 1211.89 183.065 1211.84 181.439H1215.1C1215.12 182.263 1215.31 183.011 1215.68 183.683C1216.05 184.356 1216.58 184.898 1217.28 185.31C1217.99 185.7 1218.84 185.895 1219.81 185.895C1220.79 185.895 1221.6 185.711 1222.25 185.342C1222.92 184.974 1223.42 184.475 1223.75 183.846C1224.1 183.217 1224.27 182.512 1224.27 181.732C1224.27 180.756 1224.03 179.964 1223.55 179.357C1223.1 178.75 1222.47 178.295 1221.67 177.991C1220.89 177.687 1220.01 177.536 1219.03 177.536H1217.34V174.803H1219.03C1220.4 174.803 1221.48 174.489 1222.29 173.86C1223.11 173.231 1223.52 172.342 1223.52 171.193C1223.52 170.239 1223.21 169.458 1222.58 168.851C1221.95 168.244 1221.03 167.94 1219.81 167.94C1218.6 167.94 1217.63 168.287 1216.92 168.981C1216.22 169.675 1215.83 170.553 1215.75 171.616H1212.53C1212.59 170.336 1212.93 169.209 1213.54 168.233C1214.16 167.235 1215.01 166.476 1216.07 165.956C1217.16 165.414 1218.4 165.143 1219.81 165.143C1221.33 165.143 1222.6 165.414 1223.62 165.956C1224.66 166.476 1225.44 167.181 1225.96 168.07C1226.5 168.959 1226.77 169.935 1226.77 170.998C1226.77 171.8 1226.62 172.548 1226.32 173.242C1226.01 173.914 1225.58 174.5 1225.02 174.998C1224.45 175.497 1223.77 175.855 1222.97 176.072C1223.84 176.245 1224.62 176.581 1225.31 177.08C1226 177.579 1226.55 178.23 1226.94 179.032C1227.33 179.813 1227.52 180.723 1227.52 181.764C1227.52 183 1227.23 184.15 1226.64 185.212C1226.06 186.253 1225.19 187.099 1224.04 187.749C1222.91 188.378 1221.5 188.693 1219.81 188.693Z" fill="white"/>
<path d="M1076.26 237.704C1070.9 237.704 1066.82 233.592 1066.82 227.971C1066.82 222.455 1070.72 218.239 1076.13 218.239C1081 218.239 1084.18 221.284 1085.24 225.031H1083.03C1082.22 222.194 1079.86 219.983 1076.08 219.983C1071.79 219.983 1068.82 223.287 1068.82 227.997C1068.82 232.603 1071.81 236.012 1076.32 236.012C1080.38 236.012 1082.95 233.488 1083.45 229.559H1076.11V227.971H1085.48C1085.42 233.878 1081.78 237.704 1076.26 237.704ZM1093.88 237.573C1090.03 237.573 1087.48 234.685 1087.48 230.339C1087.48 226.332 1090.13 223.339 1093.77 223.339C1097.68 223.339 1100.23 226.488 1099.92 230.886H1089.3C1089.45 234.139 1091.17 236.142 1093.85 236.142C1096.14 236.142 1097.73 234.867 1098.17 232.681H1099.97C1099.34 235.726 1097.03 237.573 1093.88 237.573ZM1093.75 224.745C1091.28 224.745 1089.53 226.644 1089.3 229.637H1098.02C1097.86 226.566 1096.27 224.745 1093.75 224.745ZM1109.95 235.57V237.183C1109.25 237.469 1108.65 237.573 1107.97 237.573C1105.71 237.573 1103.97 236.402 1103.97 233.436V225.135H1100.74V223.6H1103.97V219.54H1105.79V223.6H1110.08V225.135H1105.79V233.046C1105.79 235.179 1106.83 235.908 1108.34 235.908C1108.91 235.908 1109.38 235.804 1109.95 235.57ZM1126.71 237.313V234.815C1125.9 236.533 1124.23 237.573 1122.1 237.573C1119.26 237.573 1117.42 235.986 1117.42 233.514C1117.42 230.834 1119.55 229.429 1123.71 229.429C1124.55 229.429 1125.17 229.481 1126.52 229.585V228.44C1126.52 226.15 1125.3 224.797 1123.22 224.797C1120.98 224.797 1119.58 226.176 1119.55 228.414H1117.88C1117.96 225.369 1120.07 223.339 1123.19 223.339C1126.39 223.339 1128.27 225.213 1128.27 228.388V237.313H1126.71ZM1119.16 233.462C1119.16 235.127 1120.43 236.246 1122.36 236.246C1124.91 236.246 1126.52 234.581 1126.52 232.005V230.782C1125.35 230.678 1124.55 230.652 1123.79 230.652C1120.67 230.652 1119.16 231.562 1119.16 233.462ZM1139.36 229.975V237.313H1137.54V223.6H1139.23V226.722C1140.17 224.693 1142.19 223.391 1144.46 223.391V225.291C1141.57 225.187 1139.36 226.982 1139.36 229.975ZM1149.05 220.425C1149.05 221.232 1148.45 221.804 1147.57 221.804C1146.71 221.804 1146.11 221.232 1146.11 220.425C1146.11 219.644 1146.71 219.072 1147.57 219.072C1148.45 219.072 1149.05 219.644 1149.05 220.425ZM1148.51 237.313H1146.69V223.6H1148.51V237.313ZM1162.71 233.488C1162.71 236.012 1160.68 237.573 1157.29 237.573C1153.89 237.573 1151.8 235.856 1151.54 233.02H1153.29C1153.42 234.971 1154.95 236.194 1157.29 236.194C1159.53 236.194 1160.89 235.336 1160.89 233.774C1160.89 232.421 1160.1 231.797 1158.02 231.38L1156.04 230.99C1153.44 230.495 1152.06 229.22 1152.06 227.243C1152.06 224.953 1154.09 223.339 1157.09 223.339C1160.23 223.339 1162.32 225.031 1162.52 227.763H1160.81C1160.62 225.864 1159.25 224.745 1157.09 224.745C1155.16 224.745 1153.83 225.655 1153.83 227.087C1153.83 228.44 1154.67 229.09 1156.7 229.481L1158.75 229.871C1161.48 230.391 1162.71 231.536 1162.71 233.488ZM1167.69 237.313H1165.87V218.629H1167.69V229.975L1174.3 223.6H1176.46L1169.54 230.313L1177.03 237.313H1174.67L1167.69 230.73V237.313ZM1194.73 233.488C1194.73 236.012 1192.7 237.573 1189.31 237.573C1185.9 237.573 1183.82 235.856 1183.56 233.02H1185.31C1185.44 234.971 1186.97 236.194 1189.31 236.194C1191.55 236.194 1192.9 235.336 1192.9 233.774C1192.9 232.421 1192.12 231.797 1190.04 231.38L1188.06 230.99C1185.46 230.495 1184.08 229.22 1184.08 227.243C1184.08 224.953 1186.11 223.339 1189.11 223.339C1192.25 223.339 1194.34 225.031 1194.54 227.763H1192.83C1192.64 225.864 1191.26 224.745 1189.11 224.745C1187.18 224.745 1185.85 225.655 1185.85 227.087C1185.85 228.44 1186.69 229.09 1188.71 229.481L1190.77 229.871C1193.5 230.391 1194.73 231.536 1194.73 233.488ZM1203.02 237.599C1199.4 237.599 1196.88 234.659 1196.88 230.443C1196.88 226.28 1199.43 223.339 1203.02 223.339C1206.22 223.339 1208.51 225.473 1209.05 228.908H1207.21C1206.79 226.41 1205.23 224.927 1203.02 224.927C1200.47 224.927 1198.72 227.165 1198.72 230.443C1198.72 233.774 1200.47 236.012 1203.02 236.012C1205.25 236.012 1206.79 234.555 1207.21 232.005H1209.05C1208.56 235.492 1206.24 237.599 1203.02 237.599ZM1217.31 237.573C1213.53 237.573 1210.8 234.581 1210.8 230.443C1210.8 226.332 1213.53 223.365 1217.31 223.365C1221.11 223.365 1223.84 226.332 1223.84 230.443C1223.84 234.581 1221.11 237.573 1217.31 237.573ZM1217.31 235.986C1219.99 235.986 1221.99 233.852 1221.99 230.443C1221.99 227.087 1219.99 224.953 1217.31 224.953C1214.65 224.953 1212.65 227.087 1212.65 230.443C1212.65 233.852 1214.65 235.986 1217.31 235.986ZM1228.61 229.975V237.313H1226.78V223.6H1228.48V226.722C1229.41 224.693 1231.44 223.391 1233.71 223.391V225.291C1230.82 225.187 1228.61 226.982 1228.61 229.975ZM1241.29 237.573C1237.44 237.573 1234.89 234.685 1234.89 230.339C1234.89 226.332 1237.55 223.339 1241.19 223.339C1245.09 223.339 1247.64 226.488 1247.33 230.886H1236.71C1236.87 234.139 1238.59 236.142 1241.27 236.142C1243.56 236.142 1245.15 234.867 1245.59 232.681H1247.38C1246.76 235.726 1244.44 237.573 1241.29 237.573ZM1241.16 224.745C1238.69 224.745 1236.95 226.644 1236.71 229.637H1245.43C1245.28 226.566 1243.69 224.745 1241.16 224.745ZM1264.21 237.313V234.815C1263.4 236.533 1261.74 237.573 1259.6 237.573C1256.77 237.573 1254.92 235.986 1254.92 233.514C1254.92 230.834 1257.05 229.429 1261.22 229.429C1262.05 229.429 1262.68 229.481 1264.03 229.585V228.44C1264.03 226.15 1262.81 224.797 1260.72 224.797C1258.49 224.797 1257.08 226.176 1257.05 228.414H1255.39C1255.47 225.369 1257.57 223.339 1260.7 223.339C1263.9 223.339 1265.77 225.213 1265.77 228.388V237.313H1264.21ZM1256.66 233.462C1256.66 235.127 1257.94 236.246 1259.86 236.246C1262.42 236.246 1264.03 234.581 1264.03 232.005V230.782C1262.86 230.678 1262.05 230.652 1261.3 230.652C1258.17 230.652 1256.66 231.562 1256.66 233.462ZM1271.43 229.324V237.313H1269.6V223.6H1271.3V226.176C1272.18 224.484 1273.85 223.339 1275.82 223.339C1278.69 223.339 1280.53 225.161 1280.53 228.414V237.313H1278.71V229.038C1278.71 226.41 1277.51 224.927 1275.28 224.927C1273.14 224.927 1271.43 226.774 1271.43 229.324ZM1283.35 230.443C1283.35 226.228 1285.7 223.339 1289.39 223.339C1291.45 223.339 1293.19 224.51 1294.1 226.462V218.629H1295.92V237.313H1294.23V234.425C1293.27 236.428 1291.5 237.573 1289.39 237.573C1285.7 237.573 1283.35 234.659 1283.35 230.443ZM1285.2 230.443C1285.2 233.93 1286.97 235.986 1289.65 235.986C1292.3 235.986 1294.13 233.826 1294.13 230.391C1294.13 226.93 1292.25 224.927 1289.65 224.927C1286.97 224.927 1285.2 226.956 1285.2 230.443ZM1019.7 273.313V270.815C1018.89 272.533 1017.22 273.573 1015.09 273.573C1012.25 273.573 1010.41 271.986 1010.41 269.514C1010.41 266.834 1012.54 265.429 1016.7 265.429C1017.54 265.429 1018.16 265.481 1019.51 265.585V264.44C1019.51 262.15 1018.29 260.797 1016.21 260.797C1013.97 260.797 1012.57 262.176 1012.54 264.414H1010.87C1010.95 261.369 1013.06 259.339 1016.18 259.339C1019.38 259.339 1021.26 261.213 1021.26 264.388V273.313H1019.7ZM1012.15 269.462C1012.15 271.127 1013.42 272.246 1015.35 272.246C1017.9 272.246 1019.51 270.581 1019.51 268.005V266.782C1018.34 266.678 1017.54 266.652 1016.78 266.652C1013.66 266.652 1012.15 267.562 1012.15 269.462ZM1030.21 273.599C1026.6 273.599 1024.07 270.659 1024.07 266.443C1024.07 262.28 1026.62 259.339 1030.21 259.339C1033.42 259.339 1035.71 261.473 1036.25 264.908H1034.4C1033.99 262.41 1032.43 260.927 1030.21 260.927C1027.66 260.927 1025.92 263.165 1025.92 266.443C1025.92 269.774 1027.66 272.012 1030.21 272.012C1032.45 272.012 1033.99 270.555 1034.4 268.005H1036.25C1035.76 271.492 1033.44 273.599 1030.21 273.599ZM1046.24 271.57V273.183C1045.54 273.469 1044.94 273.573 1044.27 273.573C1042 273.573 1040.26 272.402 1040.26 269.436V261.135H1037.03V259.6H1040.26V255.54H1042.08V259.6H1046.37V261.135H1042.08V269.046C1042.08 271.179 1043.12 271.908 1044.63 271.908C1045.2 271.908 1045.67 271.804 1046.24 271.57ZM1051.5 256.425C1051.5 257.232 1050.9 257.804 1050.01 257.804C1049.15 257.804 1048.56 257.232 1048.56 256.425C1048.56 255.644 1049.15 255.072 1050.01 255.072C1050.9 255.072 1051.5 255.644 1051.5 256.425ZM1050.95 273.313H1049.13V259.6H1050.95V273.313ZM1060.39 273.573C1056.61 273.573 1053.88 270.581 1053.88 266.443C1053.88 262.332 1056.61 259.365 1060.39 259.365C1064.19 259.365 1066.92 262.332 1066.92 266.443C1066.92 270.581 1064.19 273.573 1060.39 273.573ZM1060.39 271.986C1063.07 271.986 1065.07 269.852 1065.07 266.443C1065.07 263.087 1063.07 260.953 1060.39 260.953C1057.73 260.953 1055.73 263.087 1055.73 266.443C1055.73 269.852 1057.73 271.986 1060.39 271.986ZM1071.69 265.324V273.313H1069.86V259.6H1071.56V262.176C1072.44 260.484 1074.11 259.339 1076.08 259.339C1078.95 259.339 1080.79 261.161 1080.79 264.414V273.313H1078.97V265.038C1078.97 262.41 1077.78 260.927 1075.54 260.927C1073.4 260.927 1071.69 262.774 1071.69 265.324ZM1093.06 273.313V270.815C1092.25 272.533 1090.59 273.573 1088.45 273.573C1085.62 273.573 1083.77 271.986 1083.77 269.514C1083.77 266.834 1085.9 265.429 1090.07 265.429C1090.9 265.429 1091.52 265.481 1092.88 265.585V264.44C1092.88 262.15 1091.65 260.797 1089.57 260.797C1087.34 260.797 1085.93 262.176 1085.9 264.414H1084.24C1084.32 261.369 1086.42 259.339 1089.55 259.339C1092.75 259.339 1094.62 261.213 1094.62 264.388V273.313H1093.06ZM1085.51 269.462C1085.51 271.127 1086.79 272.246 1088.71 272.246C1091.26 272.246 1092.88 270.581 1092.88 268.005V266.782C1091.71 266.678 1090.9 266.652 1090.15 266.652C1087.02 266.652 1085.51 267.562 1085.51 269.462ZM1111.02 266.443C1111.02 270.659 1108.65 273.573 1104.98 273.573C1102.88 273.573 1101.11 272.428 1100.14 270.425V273.313H1098.45V254.629H1100.27V262.488C1101.16 260.484 1102.9 259.339 1104.98 259.339C1108.65 259.339 1111.02 262.228 1111.02 266.443ZM1109.17 266.443C1109.17 262.956 1107.38 260.927 1104.7 260.927C1102.12 260.927 1100.25 262.93 1100.25 266.391C1100.25 269.826 1102.07 271.986 1104.7 271.986C1107.38 271.986 1109.17 269.93 1109.17 266.443ZM1115.78 273.313H1113.95V254.629H1115.78V273.313ZM1125.11 273.573C1121.26 273.573 1118.71 270.685 1118.71 266.339C1118.71 262.332 1121.36 259.339 1125.01 259.339C1128.91 259.339 1131.46 262.488 1131.15 266.886H1120.53C1120.69 270.139 1122.4 272.142 1125.08 272.142C1127.37 272.142 1128.96 270.867 1129.4 268.681H1131.2C1130.57 271.726 1128.26 273.573 1125.11 273.573ZM1124.98 260.745C1122.51 260.745 1120.76 262.644 1120.53 265.637H1129.25C1129.09 262.566 1127.5 260.745 1124.98 260.745ZM1141.42 265.975V273.313H1139.6V259.6H1141.29V262.722C1142.22 260.693 1144.25 259.391 1146.52 259.391V261.291C1143.63 261.187 1141.42 262.982 1141.42 265.975ZM1154.1 273.573C1150.25 273.573 1147.7 270.685 1147.7 266.339C1147.7 262.332 1150.36 259.339 1154 259.339C1157.9 259.339 1160.45 262.488 1160.14 266.886H1149.53C1149.68 270.139 1151.4 272.142 1154.08 272.142C1156.37 272.142 1157.96 270.867 1158.4 268.681H1160.19C1159.57 271.726 1157.25 273.573 1154.1 273.573ZM1153.97 260.745C1151.5 260.745 1149.76 262.644 1149.53 265.637H1158.24C1158.09 262.566 1156.5 260.745 1153.97 260.745ZM1168.02 273.599C1164.41 273.599 1161.88 270.659 1161.88 266.443C1161.88 262.28 1164.43 259.339 1168.02 259.339C1171.23 259.339 1173.52 261.473 1174.06 264.908H1172.21C1171.8 262.41 1170.24 260.927 1168.02 260.927C1165.47 260.927 1163.73 263.165 1163.73 266.443C1163.73 269.774 1165.47 272.012 1168.02 272.012C1170.26 272.012 1171.8 270.555 1172.21 268.005H1174.06C1173.57 271.492 1171.25 273.599 1168.02 273.599ZM1182.31 273.573C1178.54 273.573 1175.81 270.581 1175.81 266.443C1175.81 262.332 1178.54 259.365 1182.31 259.365C1186.11 259.365 1188.85 262.332 1188.85 266.443C1188.85 270.581 1186.11 273.573 1182.31 273.573ZM1182.31 271.986C1185 271.986 1187 269.852 1187 266.443C1187 263.087 1185 260.953 1182.31 260.953C1179.66 260.953 1177.66 263.087 1177.66 266.443C1177.66 269.852 1179.66 271.986 1182.31 271.986ZM1193.61 273.313H1191.79V259.6H1193.48V262.176C1194.39 260.406 1196.01 259.339 1197.96 259.339C1200.09 259.339 1201.68 260.51 1202.25 262.514C1203.11 260.588 1204.83 259.339 1206.99 259.339C1209.83 259.339 1211.59 261.213 1211.59 264.414V273.313H1209.8V265.012C1209.8 262.41 1208.6 260.927 1206.39 260.927C1204.31 260.927 1202.62 262.748 1202.62 265.272V273.313H1200.8V265.012C1200.8 262.41 1199.6 260.927 1197.39 260.927C1195.28 260.927 1193.61 262.748 1193.61 265.272V273.313ZM1217.25 273.313H1215.43V259.6H1217.12V262.176C1218.03 260.406 1219.64 259.339 1221.59 259.339C1223.73 259.339 1225.31 260.51 1225.89 262.514C1226.74 260.588 1228.46 259.339 1230.62 259.339C1233.46 259.339 1235.23 261.213 1235.23 264.414V273.313H1233.43V265.012C1233.43 262.41 1232.24 260.927 1230.02 260.927C1227.94 260.927 1226.25 262.748 1226.25 265.272V273.313H1224.43V265.012C1224.43 262.41 1223.23 260.927 1221.02 260.927C1218.91 260.927 1217.25 262.748 1217.25 265.272V273.313ZM1244.44 273.573C1240.59 273.573 1238.04 270.685 1238.04 266.339C1238.04 262.332 1240.7 259.339 1244.34 259.339C1248.24 259.339 1250.79 262.488 1250.48 266.886H1239.86C1240.02 270.139 1241.74 272.142 1244.42 272.142C1246.71 272.142 1248.3 270.867 1248.74 268.681H1250.53C1249.91 271.726 1247.59 273.573 1244.44 273.573ZM1244.31 260.745C1241.84 260.745 1240.1 262.644 1239.86 265.637H1248.58C1248.43 262.566 1246.84 260.745 1244.31 260.745ZM1255.31 265.324V273.313H1253.49V259.6H1255.18V262.176C1256.07 260.484 1257.73 259.339 1259.71 259.339C1262.57 259.339 1264.42 261.161 1264.42 264.414V273.313H1262.6V265.038C1262.6 262.41 1261.4 260.927 1259.17 260.927C1257.03 260.927 1255.31 262.774 1255.31 265.324ZM1267.24 266.443C1267.24 262.228 1269.58 259.339 1273.28 259.339C1275.33 259.339 1277.08 260.51 1277.99 262.462V254.629H1279.81V273.313H1278.12V270.425C1277.16 272.428 1275.39 273.573 1273.28 273.573C1269.58 273.573 1267.24 270.659 1267.24 266.443ZM1269.09 266.443C1269.09 269.93 1270.86 271.986 1273.54 271.986C1276.19 271.986 1278.02 269.826 1278.02 266.391C1278.02 262.93 1276.14 260.927 1273.54 260.927C1270.86 260.927 1269.09 262.956 1269.09 266.443ZM1292.19 273.313V270.815C1291.38 272.533 1289.72 273.573 1287.58 273.573C1284.75 273.573 1282.9 271.986 1282.9 269.514C1282.9 266.834 1285.03 265.429 1289.2 265.429C1290.03 265.429 1290.65 265.481 1292.01 265.585V264.44C1292.01 262.15 1290.78 260.797 1288.7 260.797C1286.46 260.797 1285.06 262.176 1285.03 264.414H1283.37C1283.45 261.369 1285.55 259.339 1288.68 259.339C1291.88 259.339 1293.75 261.213 1293.75 264.388V273.313H1292.19ZM1284.64 269.462C1284.64 271.127 1285.92 272.246 1287.84 272.246C1290.39 272.246 1292.01 270.581 1292.01 268.005V266.782C1290.84 266.678 1290.03 266.652 1289.27 266.652C1286.15 266.652 1284.64 267.562 1284.64 269.462ZM1304.56 271.57V273.183C1303.86 273.469 1303.26 273.573 1302.58 273.573C1300.32 273.573 1298.57 272.402 1298.57 269.436V261.135H1295.35V259.6H1298.57V255.54H1300.39V259.6H1304.69V261.135H1300.39V269.046C1300.39 271.179 1301.44 271.908 1302.94 271.908C1303.52 271.908 1303.99 271.804 1304.56 271.57ZM1309.81 256.425C1309.81 257.232 1309.21 257.804 1308.33 257.804C1307.47 257.804 1306.87 257.232 1306.87 256.425C1306.87 255.644 1307.47 255.072 1308.33 255.072C1309.21 255.072 1309.81 255.644 1309.81 256.425ZM1309.26 273.313H1307.44V259.6H1309.26V273.313ZM1318.7 273.573C1314.93 273.573 1312.2 270.581 1312.2 266.443C1312.2 262.332 1314.93 259.365 1318.7 259.365C1322.5 259.365 1325.23 262.332 1325.23 266.443C1325.23 270.581 1322.5 273.573 1318.7 273.573ZM1318.7 271.986C1321.38 271.986 1323.39 269.852 1323.39 266.443C1323.39 263.087 1321.38 260.953 1318.7 260.953C1316.05 260.953 1314.04 263.087 1314.04 266.443C1314.04 269.852 1316.05 271.986 1318.7 271.986ZM1330 265.324V273.313H1328.18V259.6H1329.87V262.176C1330.75 260.484 1332.42 259.339 1334.4 259.339C1337.26 259.339 1339.11 261.161 1339.11 264.414V273.313H1337.29V265.038C1337.29 262.41 1336.09 260.927 1333.85 260.927C1331.72 260.927 1330 262.774 1330 265.324ZM1353.2 269.488C1353.2 272.012 1351.17 273.573 1347.78 273.573C1344.37 273.573 1342.29 271.856 1342.03 269.02H1343.78C1343.91 270.971 1345.44 272.194 1347.78 272.194C1350.02 272.194 1351.37 271.336 1351.37 269.774C1351.37 268.421 1350.59 267.797 1348.51 267.38L1346.53 266.99C1343.93 266.495 1342.55 265.22 1342.55 263.243C1342.55 260.953 1344.58 259.339 1347.57 259.339C1350.72 259.339 1352.81 261.031 1353.01 263.763H1351.3C1351.11 261.864 1349.73 260.745 1347.57 260.745C1345.65 260.745 1344.32 261.655 1344.32 263.087C1344.32 264.44 1345.15 265.09 1347.18 265.481L1349.24 265.871C1351.97 266.391 1353.2 267.536 1353.2 269.488ZM1133.29 291.425C1133.29 292.232 1132.69 292.804 1131.8 292.804C1130.94 292.804 1130.34 292.232 1130.34 291.425C1130.34 290.644 1130.94 290.072 1131.8 290.072C1132.69 290.072 1133.29 290.644 1133.29 291.425ZM1132.74 308.313H1130.92V294.6H1132.74V308.313ZM1138.51 300.324V308.313H1136.69V294.6H1138.38V297.176C1139.26 295.484 1140.93 294.339 1142.9 294.339C1145.77 294.339 1147.61 296.161 1147.61 299.414V308.313H1145.79V300.038C1145.79 297.41 1144.6 295.927 1142.36 295.927C1140.22 295.927 1138.51 297.774 1138.51 300.324ZM1161.7 304.488C1161.7 307.012 1159.67 308.573 1156.29 308.573C1152.88 308.573 1150.8 306.856 1150.54 304.02H1152.28C1152.41 305.971 1153.95 307.194 1156.29 307.194C1158.53 307.194 1159.88 306.336 1159.88 304.774C1159.88 303.421 1159.1 302.797 1157.02 302.38L1155.04 301.99C1152.44 301.495 1151.06 300.22 1151.06 298.243C1151.06 295.953 1153.09 294.339 1156.08 294.339C1159.23 294.339 1161.31 296.031 1161.52 298.763H1159.8C1159.62 296.864 1158.24 295.745 1156.08 295.745C1154.16 295.745 1152.83 296.655 1152.83 298.087C1152.83 299.44 1153.66 300.09 1155.69 300.481L1157.75 300.871C1160.48 301.391 1161.7 302.536 1161.7 304.488ZM1171.82 306.57V308.183C1171.12 308.469 1170.52 308.573 1169.84 308.573C1167.58 308.573 1165.83 307.402 1165.83 304.436V296.135H1162.61V294.6H1165.83V290.54H1167.65V294.6H1171.95V296.135H1167.65V304.046C1167.65 306.179 1168.7 306.908 1170.2 306.908C1170.78 306.908 1171.25 306.804 1171.82 306.57ZM1183.13 308.313V305.815C1182.33 307.533 1180.66 308.573 1178.53 308.573C1175.69 308.573 1173.84 306.986 1173.84 304.514C1173.84 301.834 1175.98 300.429 1180.14 300.429C1180.97 300.429 1181.6 300.481 1182.95 300.585V299.44C1182.95 297.15 1181.73 295.797 1179.65 295.797C1177.41 295.797 1176 297.176 1175.98 299.414H1174.31C1174.39 296.369 1176.5 294.339 1179.62 294.339C1182.82 294.339 1184.69 296.213 1184.69 299.388V308.313H1183.13ZM1175.59 304.462C1175.59 306.127 1176.86 307.246 1178.79 307.246C1181.34 307.246 1182.95 305.581 1182.95 303.005V301.782C1181.78 301.678 1180.97 301.652 1180.22 301.652C1177.1 301.652 1175.59 302.562 1175.59 304.462ZM1190.35 300.324V308.313H1188.53V294.6H1190.22V297.176C1191.1 295.484 1192.77 294.339 1194.75 294.339C1197.61 294.339 1199.46 296.161 1199.46 299.414V308.313H1197.63V300.038C1197.63 297.41 1196.44 295.927 1194.2 295.927C1192.07 295.927 1190.35 297.774 1190.35 300.324ZM1210.32 306.57V308.183C1209.61 308.469 1209.02 308.573 1208.34 308.573C1206.08 308.573 1204.33 307.402 1204.33 304.436V296.135H1201.11V294.6H1204.33V290.54H1206.15V294.6H1210.45V296.135H1206.15V304.046C1206.15 306.179 1207.19 306.908 1208.7 306.908C1209.28 306.908 1209.74 306.804 1210.32 306.57ZM1215.02 308.313H1213.2V289.629H1215.02V308.313ZM1229.53 294.6L1222.51 313.335H1220.56L1222.56 308.131L1217.12 294.6H1219.07L1223.5 305.945L1227.69 294.6H1229.53ZM1233.02 306.804C1233.02 307.741 1232.34 308.443 1231.38 308.443C1230.44 308.443 1229.74 307.741 1229.74 306.804C1229.74 305.815 1230.44 305.139 1231.38 305.139C1232.34 305.139 1233.02 305.815 1233.02 306.804Z" fill="white" fill-opacity="0.6"/>
<defs>
<linearGradient id="paint0_linear_1770_589" x1="743.206" y1="-1394.12" x2="743.206" y2="307.788" gradientUnits="userSpaceOnUse">
<stop stop-color="#99E39E"/>
<stop offset="1" stop-color="#99E39E" stop-opacity="0"/>
</linearGradient>
</defs>
</svg>
