<svg width="40" height="41" viewBox="0 0 40 41" fill="none" xmlns="http://www.w3.org/2000/svg">
<path d="M20 40.5C31.0457 40.5 40 31.5457 40 20.5C40 9.4543 31.0457 0.5 20 0.5C8.9543 0.5 0 9.4543 0 20.5C0 31.5457 8.9543 40.5 20 40.5Z" fill="#627EEA"/>
<path d="M20.6235 5.49658V16.5846L29.9948 20.7727L20.6235 5.49658Z" fill="white" fill-opacity="0.6"/>
<path d="M20.6232 5.49658L11.252 20.7727L20.6232 16.5846V5.49658Z" fill="white"/>
<path d="M20.6235 27.9577V35.4919L30.0002 22.5176L20.6235 27.9577Z" fill="white" fill-opacity="0.6"/>
<path d="M20.6232 35.4919V27.9577L11.252 22.5176L20.6232 35.4919Z" fill="white"/>
<path d="M20.6235 26.2132L29.9948 20.773L20.6235 16.585V26.2132Z" fill="white" fill-opacity="0.2"/>
<path d="M11.252 20.773L20.6232 26.2132V16.585L11.252 20.773Z" fill="white" fill-opacity="0.6"/>
</svg>
