<svg width="25" height="24" viewBox="0 0 25 24" fill="none" xmlns="http://www.w3.org/2000/svg">
<mask id="mask0_727_2279" style="mask-type:alpha" maskUnits="userSpaceOnUse" x="0" y="0" width="25" height="24">
<rect x="0.5" width="24" height="24" fill="#D9D9D9"/>
</mask>
<g mask="url(#mask0_727_2279)">
<path d="M5.50012 3.99951V10.1783V10.1533V19.9995V3.99951ZM7.75012 13.7495H11.2981C11.4226 13.4623 11.5675 13.1953 11.7329 12.9485C11.8982 12.7017 12.0841 12.4687 12.2906 12.2495H7.75012V13.7495ZM7.75012 17.7495H10.7809C10.7232 17.4995 10.685 17.2495 10.6664 16.9995C10.6479 16.7495 10.6489 16.4995 10.6694 16.2495H7.75012V17.7495ZM5.80787 21.4995C5.30271 21.4995 4.87512 21.3245 4.52512 20.9745C4.17512 20.6245 4.00012 20.1969 4.00012 19.6918V4.30726C4.00012 3.8021 4.17512 3.37451 4.52512 3.02451C4.87512 2.67451 5.30271 2.49951 5.80787 2.49951H13.7501L19.0001 7.74951V10.509C18.7603 10.4142 18.5154 10.3421 18.2654 10.2928C18.0154 10.2434 17.7603 10.2053 17.5001 10.1783V8.49951H13.0001V3.99951H5.80787C5.73087 3.99951 5.66037 4.03159 5.59637 4.09576C5.53221 4.15976 5.50012 4.23026 5.50012 4.30726V19.6918C5.50012 19.7688 5.53221 19.8393 5.59637 19.9033C5.66037 19.9674 5.73087 19.9995 5.80787 19.9995H11.7079C11.904 20.297 12.1239 20.5717 12.3674 20.8235C12.611 21.0755 12.8751 21.3008 13.1596 21.4995H5.80787ZM17.0001 19.1533C17.745 19.1533 18.3735 18.8972 18.8856 18.385C19.3978 17.8728 19.6539 17.2443 19.6539 16.4995C19.6539 15.7547 19.3978 15.1262 18.8856 14.614C18.3735 14.1018 17.745 13.8458 17.0001 13.8458C16.2553 13.8458 15.6268 14.1018 15.1146 14.614C14.6025 15.1262 14.3464 15.7547 14.3464 16.4995C14.3464 17.2443 14.6025 17.8728 15.1146 18.385C15.6268 18.8972 16.2553 19.1533 17.0001 19.1533ZM22.1001 22.6438L19.3616 19.9053C19.0245 20.1514 18.655 20.3377 18.2531 20.464C17.8511 20.5902 17.4335 20.6533 17.0001 20.6533C15.8463 20.6533 14.8655 20.2494 14.0579 19.4418C13.2502 18.6341 12.8464 17.6533 12.8464 16.4995C12.8464 15.3457 13.2502 14.3649 14.0579 13.5573C14.8655 12.7496 15.8463 12.3458 17.0001 12.3458C18.154 12.3458 19.1347 12.7496 19.9424 13.5573C20.75 14.3649 21.1539 15.3457 21.1539 16.4995C21.1539 16.9328 21.0908 17.3505 20.9646 17.7525C20.8383 18.1543 20.652 18.5238 20.4059 18.861L23.1444 21.5995L22.1001 22.6438Z" fill="white" fill-opacity="0.6"/>
</g>
</svg>
