<svg width="25" height="24" viewBox="0 0 25 24" fill="none" xmlns="http://www.w3.org/2000/svg">
<mask id="mask0_727_2329" style="mask-type:alpha" maskUnits="userSpaceOnUse" x="0" y="0" width="25" height="24">
<rect x="0.25" width="24" height="24" fill="#D9D9D9"/>
</mask>
<g mask="url(#mask0_727_2329)">
<path d="M12.25 21.4803C10.0872 20.8905 8.2965 19.6174 6.878 17.6611C5.45933 15.7048 4.75 13.5176 4.75 11.0996V5.34584L12.25 2.53809L19.75 5.34584V10.1151H18.25V6.37459L12.25 4.13409L6.25 6.37459V11.0996C6.25 13.1163 6.81667 14.9496 7.95 16.5996C9.08333 18.2496 10.5167 19.3496 12.25 19.8996C12.6833 19.7663 13.0958 19.5954 13.4875 19.3871C13.8792 19.1788 14.2667 18.9329 14.65 18.6496L15.6652 19.7226C15.1409 20.1278 14.6012 20.4762 14.0462 20.7678C13.4911 21.0595 12.8923 21.297 12.25 21.4803ZM20.8843 21.4996C20.6716 21.4996 20.4935 21.4277 20.35 21.2838C20.2063 21.14 20.1345 20.9618 20.1345 20.7493C20.1345 20.5367 20.2064 20.3586 20.3503 20.2151C20.4941 20.0714 20.6723 19.9996 20.885 19.9996C21.0975 19.9996 21.2756 20.0715 21.4193 20.2153C21.5627 20.3592 21.6345 20.5373 21.6345 20.7498C21.6345 20.9625 21.5626 21.1406 21.4188 21.2841C21.2751 21.4278 21.0969 21.4996 20.8843 21.4996ZM20.1345 17.8073V12.3073H21.6345V17.8073H20.1345ZM12.25 13.9996C12.8 13.9996 13.2708 13.8038 13.6625 13.4121C14.0542 13.0204 14.25 12.5496 14.25 11.9996C14.25 11.4496 14.0542 10.9788 13.6625 10.5871C13.2708 10.1954 12.8 9.99959 12.25 9.99959C11.7 9.99959 11.2292 10.1954 10.8375 10.5871C10.4458 10.9788 10.25 11.4496 10.25 11.9996C10.25 12.5496 10.4458 13.0204 10.8375 13.4121C11.2292 13.8038 11.7 13.9996 12.25 13.9996ZM12.25 15.4996C11.2875 15.4996 10.4636 15.1568 9.77825 14.4713C9.09275 13.786 8.75 12.9621 8.75 11.9996C8.75 11.0371 9.09275 10.2132 9.77825 9.52784C10.4636 8.84234 11.2875 8.49959 12.25 8.49959C13.2125 8.49959 14.0364 8.84234 14.7218 9.52784C15.4073 10.2132 15.75 11.0371 15.75 11.9996C15.75 12.3371 15.7042 12.6632 15.6125 12.9778C15.5208 13.2923 15.3898 13.5919 15.2193 13.8766L18.146 16.7881L17.077 17.8573L14.1345 14.9303C13.8602 15.12 13.5618 15.2623 13.2395 15.3573C12.917 15.4522 12.5872 15.4996 12.25 15.4996Z" fill="white" fill-opacity="0.6"/>
</g>
</svg>
