<svg width="25" height="24" viewBox="0 0 25 24" fill="none" xmlns="http://www.w3.org/2000/svg">
<mask id="mask0_734_5732" style="mask-type:alpha" maskUnits="userSpaceOnUse" x="0" y="0" width="25" height="24">
<rect x="0.5" width="24" height="24" fill="#D9D9D9"/>
</mask>
<g mask="url(#mask0_734_5732)">
<path d="M12.5 21.4803C10.3372 20.8905 8.5465 19.6174 7.128 17.6611C5.70933 15.7048 5 13.5176 5 11.0996V5.34584L12.5 2.53809L20 5.34584V10.1151H18.5V6.37459L12.5 4.13409L6.5 6.37459V11.0996C6.5 13.1163 7.06667 14.9496 8.2 16.5996C9.33333 18.2496 10.7667 19.3496 12.5 19.8996C12.9333 19.7663 13.3458 19.5954 13.7375 19.3871C14.1292 19.1788 14.5167 18.9329 14.9 18.6496L15.9152 19.7226C15.3909 20.1278 14.8512 20.4762 14.2962 20.7678C13.7411 21.0595 13.1423 21.297 12.5 21.4803ZM21.1343 21.4996C20.9216 21.4996 20.7435 21.4277 20.6 21.2838C20.4563 21.14 20.3845 20.9618 20.3845 20.7493C20.3845 20.5367 20.4564 20.3586 20.6003 20.2151C20.7441 20.0714 20.9223 19.9996 21.135 19.9996C21.3475 19.9996 21.5256 20.0715 21.6693 20.2153C21.8127 20.3592 21.8845 20.5373 21.8845 20.7498C21.8845 20.9625 21.8126 21.1406 21.6688 21.2841C21.5251 21.4278 21.3469 21.4996 21.1343 21.4996ZM20.3845 17.8073V12.3073H21.8845V17.8073H20.3845ZM12.5 13.9996C13.05 13.9996 13.5208 13.8038 13.9125 13.4121C14.3042 13.0204 14.5 12.5496 14.5 11.9996C14.5 11.4496 14.3042 10.9788 13.9125 10.5871C13.5208 10.1954 13.05 9.99959 12.5 9.99959C11.95 9.99959 11.4792 10.1954 11.0875 10.5871C10.6958 10.9788 10.5 11.4496 10.5 11.9996C10.5 12.5496 10.6958 13.0204 11.0875 13.4121C11.4792 13.8038 11.95 13.9996 12.5 13.9996ZM12.5 15.4996C11.5375 15.4996 10.7136 15.1568 10.0283 14.4713C9.34275 13.786 9 12.9621 9 11.9996C9 11.0371 9.34275 10.2132 10.0283 9.52784C10.7136 8.84234 11.5375 8.49959 12.5 8.49959C13.4625 8.49959 14.2864 8.84234 14.9718 9.52784C15.6573 10.2132 16 11.0371 16 11.9996C16 12.3371 15.9542 12.6632 15.8625 12.9778C15.7708 13.2923 15.6398 13.5919 15.4693 13.8766L18.396 16.7881L17.327 17.8573L14.3845 14.9303C14.1102 15.12 13.8118 15.2623 13.4895 15.3573C13.167 15.4522 12.8372 15.4996 12.5 15.4996Z" fill="#99E39E"/>
</g>
</svg>
