<svg width="24" height="24" viewBox="0 0 24 24" fill="none" xmlns="http://www.w3.org/2000/svg">
<mask id="mask0_727_2295" style="mask-type:alpha" maskUnits="userSpaceOnUse" x="0" y="0" width="24" height="24">
<rect width="24" height="24" fill="#D9D9D9"/>
</mask>
<g mask="url(#mask0_727_2295)">
<path d="M11.9808 20.5005C9.81544 20.5005 7.92828 19.7877 6.31928 18.362C4.71028 16.9363 3.78403 15.1492 3.54053 13.0005H5.07128C5.32378 14.7275 6.10103 16.1592 7.40303 17.2957C8.70486 18.4322 10.2308 19.0005 11.9808 19.0005C13.9308 19.0005 15.5849 18.3213 16.9433 16.963C18.3016 15.6047 18.9808 13.9505 18.9808 12.0005C18.9808 10.0505 18.3016 8.39632 16.9433 7.03799C15.5849 5.67966 13.9308 5.00049 11.9808 5.00049C10.8884 5.00049 9.86478 5.24315 8.90978 5.72849C7.95461 6.21365 7.13211 6.88124 6.44228 7.73124H9.05778V9.23124H3.98078V4.15424H5.48078V6.52349C6.29228 5.56582 7.26411 4.82257 8.39628 4.29374C9.52828 3.7649 10.7231 3.50049 11.9808 3.50049C13.1603 3.50049 14.2654 3.72357 15.2963 4.16974C16.3269 4.61591 17.2256 5.22232 17.9923 5.98899C18.7589 6.75565 19.3654 7.65441 19.8115 8.68524C20.2577 9.71591 20.4808 10.821 20.4808 12.0005C20.4808 13.18 20.2577 14.2851 19.8115 15.3157C19.3654 16.3466 18.7589 17.2453 17.9923 18.012C17.2256 18.7787 16.3269 19.3851 15.2963 19.8312C14.2654 20.2774 13.1603 20.5005 11.9808 20.5005ZM14.9828 16.0275L11.2598 12.3042V7.00049H12.7595V11.6967L16.0365 14.9735L14.9828 16.0275Z" fill="white" fill-opacity="0.6"/>
</g>
</svg>
