<svg width="25" height="24" viewBox="0 0 25 24" fill="none" xmlns="http://www.w3.org/2000/svg">
<mask id="mask0_727_1473" style="mask-type:alpha" maskUnits="userSpaceOnUse" x="0" y="0" width="25" height="24">
<rect x="0.25" width="24" height="24" fill="#D9D9D9"/>
</mask>
<g mask="url(#mask0_727_1473)">
<path d="M6.25 21.4995C5.55133 21.4995 4.96 21.2575 4.476 20.7735C3.992 20.2895 3.75 19.6982 3.75 18.9995V16.115H6.75V2.49951H20.75V18.9995C20.75 19.6982 20.508 20.2895 20.024 20.7735C19.54 21.2575 18.9487 21.4995 18.25 21.4995H6.25ZM18.25 19.9995C18.5333 19.9995 18.7708 19.9037 18.9625 19.712C19.1542 19.5203 19.25 19.2828 19.25 18.9995V3.99951H8.25V16.115H17.25V18.9995C17.25 19.2828 17.3458 19.5203 17.5375 19.712C17.7292 19.9037 17.9667 19.9995 18.25 19.9995ZM9.44225 8.69176V7.19176H18.0577V8.69176H9.44225ZM9.44225 11.5765V10.0765H18.0577V11.5765H9.44225ZM6.25 19.9995H15.75V17.6148H5.25V18.9995C5.25 19.2828 5.34583 19.5203 5.5375 19.712C5.72917 19.9037 5.96667 19.9995 6.25 19.9995ZM6.25 19.9995H5.25H15.75H6.25Z" fill="#99E39E"/>
</g>
</svg>
