<svg width="25" height="24" viewBox="0 0 25 24" fill="none" xmlns="http://www.w3.org/2000/svg">
<mask id="mask0_727_2287" style="mask-type:alpha" maskUnits="userSpaceOnUse" x="0" y="0" width="25" height="24">
<rect x="0.75" width="24" height="24" fill="#D9D9D9"/>
</mask>
<g mask="url(#mask0_727_2287)">
<path d="M6.75012 21.4995C6.05146 21.4995 5.46012 21.2575 4.97612 20.7735C4.49212 20.2895 4.25012 19.6982 4.25012 18.9995V16.115H7.25012V2.49951H21.2501V18.9995C21.2501 19.6982 21.0081 20.2895 20.5241 20.7735C20.0401 21.2575 19.4488 21.4995 18.7501 21.4995H6.75012ZM18.7501 19.9995C19.0335 19.9995 19.271 19.9037 19.4626 19.712C19.6543 19.5203 19.7501 19.2828 19.7501 18.9995V3.99951H8.75012V16.115H17.7501V18.9995C17.7501 19.2828 17.846 19.5203 18.0376 19.712C18.2293 19.9037 18.4668 19.9995 18.7501 19.9995ZM9.94237 8.69176V7.19176H18.5579V8.69176H9.94237ZM9.94237 11.5765V10.0765H18.5579V11.5765H9.94237ZM6.75012 19.9995H16.2501V17.6148H5.75012V18.9995C5.75012 19.2828 5.84596 19.5203 6.03762 19.712C6.22929 19.9037 6.46679 19.9995 6.75012 19.9995ZM6.75012 19.9995H5.75012H16.2501H6.75012Z" fill="white" fill-opacity="0.6"/>
</g>
</svg>
