<svg width="25" height="24" viewBox="0 0 25 24" fill="none" xmlns="http://www.w3.org/2000/svg">
<mask id="mask0_727_2342" style="mask-type:alpha" maskUnits="userSpaceOnUse" x="0" y="0" width="25" height="24">
<rect x="0.5" width="24" height="24" fill="#D9D9D9"/>
</mask>
<g mask="url(#mask0_727_2342)">
<path d="M5.80787 20.5005C5.30921 20.5005 4.88321 20.3239 4.52987 19.9707C4.17671 19.6174 4.00012 19.1914 4.00012 18.6927V5.30824C4.00012 4.80957 4.17671 4.38357 4.52987 4.03024C4.88321 3.67707 5.30921 3.50049 5.80787 3.50049H19.1924C19.691 3.50049 20.117 3.67707 20.4704 4.03024C20.8235 4.38357 21.0001 4.80957 21.0001 5.30824V8.02949H19.5001V5.30824C19.5001 5.2184 19.4713 5.14466 19.4136 5.08699C19.356 5.02932 19.2822 5.00049 19.1924 5.00049H5.80787C5.71804 5.00049 5.64429 5.02932 5.58662 5.08699C5.52896 5.14466 5.50012 5.2184 5.50012 5.30824V18.6927C5.50012 18.7826 5.52896 18.8563 5.58662 18.914C5.64429 18.9717 5.71804 19.0005 5.80787 19.0005H19.1924C19.2822 19.0005 19.356 18.9717 19.4136 18.914C19.4713 18.8563 19.5001 18.7826 19.5001 18.6927V15.9715H21.0001V18.6927C21.0001 19.1914 20.8235 19.6174 20.4704 19.9707C20.117 20.3239 19.691 20.5005 19.1924 20.5005H5.80787ZM13.8079 16.5005C13.3092 16.5005 12.8832 16.3239 12.5299 15.9707C12.1767 15.6174 12.0001 15.1914 12.0001 14.6927V9.30824C12.0001 8.80957 12.1767 8.38357 12.5299 8.03024C12.8832 7.67707 13.3092 7.50049 13.8079 7.50049H20.1924C20.691 7.50049 21.117 7.67707 21.4704 8.03024C21.8235 8.38357 22.0001 8.80957 22.0001 9.30824V14.6927C22.0001 15.1914 21.8235 15.6174 21.4704 15.9707C21.117 16.3239 20.691 16.5005 20.1924 16.5005H13.8079ZM20.1924 15.0005C20.2822 15.0005 20.356 14.9717 20.4136 14.914C20.4713 14.8563 20.5001 14.7826 20.5001 14.6927V9.30824C20.5001 9.21841 20.4713 9.14466 20.4136 9.08699C20.356 9.02932 20.2822 9.00049 20.1924 9.00049H13.8079C13.718 9.00049 13.6443 9.02932 13.5866 9.08699C13.529 9.14466 13.5001 9.21841 13.5001 9.30824V14.6927C13.5001 14.7826 13.529 14.8563 13.5866 14.914C13.6443 14.9717 13.718 15.0005 13.8079 15.0005H20.1924ZM16.5001 13.5005C16.9168 13.5005 17.271 13.3547 17.5626 13.063C17.8543 12.7713 18.0001 12.4172 18.0001 12.0005C18.0001 11.5838 17.8543 11.2297 17.5626 10.938C17.271 10.6463 16.9168 10.5005 16.5001 10.5005C16.0835 10.5005 15.7293 10.6463 15.4376 10.938C15.146 11.2297 15.0001 11.5838 15.0001 12.0005C15.0001 12.4172 15.146 12.7713 15.4376 13.063C15.7293 13.3547 16.0835 13.5005 16.5001 13.5005Z" fill="#99E39E"/>
</g>
</svg>
